<?xml version="1.0" encoding="UTF-8"?>
<svg id="Layer_1" data-name="Layer 1" xmlns="http://www.w3.org/2000/svg" xmlns:xlink="http://www.w3.org/1999/xlink" viewBox="0 0 540 390">
  <defs>
    <style>
      .cls-1 {
        fill: none;
      }

      .cls-2 {
        filter: url(#drop-shadow-1);
      }

      .cls-3 {
        opacity: .1;
      }

      .cls-3, .cls-4, .cls-5 {
        fill: #fff;
      }

      .cls-6 {
        fill: #0178d4;
      }

      .cls-7 {
        fill: #33363e;
      }

      .cls-8 {
        fill: #3291ff;
      }

      .cls-9, .cls-10 {
        fill: #dcdfe3;
      }

      .cls-11 {
        fill: #1d2025;
      }

      .cls-12 {
        fill: #3e4045;
      }

      .cls-13 {
        fill: #2a2e36;
      }

      .cls-14 {
        opacity: .8;
      }

      .cls-10 {
        fill-rule: evenodd;
      }

      .cls-5 {
        opacity: .9;
      }

      .cls-15 {
        clip-path: url(#clippath);
      }
    </style>
    <clipPath id="clippath">
      <rect width="540" height="390" rx="15" ry="15" style="fill: none;"/>
    </clipPath>
    <filter id="drop-shadow-1" filterUnits="userSpaceOnUse">
      <feOffset dx="-5" dy="-9"/>
      <feGaussianBlur result="blur" stdDeviation="6"/>
      <feFlood flood-color="#3291ff" flood-opacity=".16"/>
      <feComposite in2="blur" operator="in"/>
      <feComposite in="SourceGraphic"/>
    </filter>
  </defs>
  <g style="clip-path: url(#clippath);">
    <g>
      <rect width="540" height="390" rx="15" ry="15" style="fill: #3291ff;"/>
      <g style="opacity: .8;">
        <rect width="540" height="390" rx="15" ry="15" style="fill: #fff;"/>
      </g>
      <g style="filter: url(#drop-shadow-1);">
        <path d="M525,390H45V60c0-8.28427,6.71573-15,15-15h480V375c0,8.28427-6.71573,15-15,15Z" style="fill: #33363e;"/>
      </g>
      <path d="M60,45h100.72819V390H45V60c0-8.27873,6.72127-15,15-15Z" style="fill: #1d2025;"/>
      <rect x="160.72819" y="44.88915" width="197.59374" height="345" style="fill: #2a2e36;"/>
      <g>
        <circle cx="102.8641" cy="103.66692" r="39.81904" style="fill: #fff; opacity: .1;"/>
        <path d="M119.56124,88.52722c-3.12983-1.43147-6.45377-2.47475-9.92329-3.05704-.43674,.75214-.92201,1.77114-1.2617,2.5718-3.69024-.53378-7.35387-.53378-10.99323,0-.33969-.80066-.84922-1.81967-1.2617-2.5718-3.4937,.58229-6.81764,1.62557-9.92564,3.05704-6.28392,9.26817-7.98229,18.31798-7.13311,27.24646,4.17311,3.03278,8.20068,4.8768,12.15787,6.08997,.97049-1.31023,1.84394-2.71751,2.59608-4.19742-1.43148-.5338-2.79017-1.18891-4.10034-1.96534,.33967-.24248,.67936-.50938,.99477-.77628,7.9095,3.6151,16.47654,3.6151,24.2889,0,.33969,.2669,.65511,.5338,.9948,.77628-1.31023,.77643-2.66883,1.43154-4.10037,1.96534,.75217,1.47992,1.62565,2.8872,2.59603,4.19742,3.95479-1.21317,8.00663-3.0572,12.15787-6.08997,1.04317-10.33561-1.65226-19.31262-7.08697-27.24646Zm-24.65293,21.73897c-2.37773,0-4.31871-2.15929-4.31871-4.80385s1.89246-4.80401,4.31871-4.80401c2.40193,0,4.36711,2.15945,4.31858,4.80401,0,2.64456-1.91666,4.80385-4.31858,4.80385Zm15.94282,0c-2.37782,0-4.32124-2.15929-4.32124-4.80385s1.8949-4.80401,4.32124-4.80401c2.40193,0,4.36711,2.15945,4.31858,4.80401,0,2.64456-1.89239,4.80385-4.31858,4.80385Z" style="fill: #fff; opacity: .9;"/>
      </g>
      <rect x="77.57596" y="159.33628" width="50.57627" height="3.44578" rx="1.72289" ry="1.72289" style="fill: #fff; opacity: .1;"/>
      <path d="M45,195.33917h0c2.97115,0,5.38334,2.41219,5.38334,5.38334v46.74835c0,2.97115-2.41219,5.38334-5.38334,5.38334h0v-57.51503h0Z" style="fill: #fff;"/>
      <g>
        <rect x="62.74961" y="183.9822" width="80.22897" height="80.22897" rx="29.0148" ry="29.0148" style="fill: #fff;"/>
        <path id="logo" d="M125.58407,221.69378c-1.89425-2.40603-4.46254-4.19729-7.37412-5.14597v-.18724c0-8.80962-6.89042-15.99026-15.38485-15.99026-8.50067,0-15.39421,7.16504-15.39421,15.99338v.21845c-6.22261,2.03779-10.76629,8.09811-10.76629,15.24754,0,8.80962,6.89666,15.99338,15.39109,15.99338,4.07558-.00936,7.97953-1.66955,10.8131-4.60297,2.82731,2.93342,6.72814,4.59673,10.8006,4.60297,8.47884,0,15.39421-7.16503,15.39421-15.99338,0-3.68238-1.24827-7.28362-3.47953-10.1359Zm-11.91468,22.08491c-6.33805,0-11.49962-5.3613-11.49962-11.95213,.01559-1.08599-.85819-1.99098-1.94417-2.01595-1.07351,.0156-1.94729,.90499-1.94729,1.97849v.04057c0,2.98647,.802,5.78882,2.17198,8.18237-2.12829,2.39979-5.18654,3.77912-8.39458,3.78536-6.34117,0-11.50586-5.36441-11.50586-11.95213,0-6.58459,5.16469-11.94901,11.50586-11.94901,1.3731,0,2.70874,.2559,3.9882,.73024,.01562,0,.02809,.0156,.04369,.0156,.44315,.15603,1.06727,.45874,1.26074,.62725,.34327,.31519,.79578,.48994,1.26077,.48994,.57108,0,1.11094-.26213,1.46669-.70839,.69905-.8457,.60229-2.10645-.21221-2.8398-.84881-.74584-2.17198-1.2545-2.49651-1.37309-1.6914-.64286-3.48579-.97052-5.29576-.96741-.24654,0-.48996,0-.73648,.0156,.26213-6.36615,5.31135-11.45594,11.50586-11.45594,6.33805,0,11.49965,5.36129,11.49965,11.95213,.01248,3.82593-1.78192,7.43965-4.83703,9.7427-.86754,.66158-1.06727,1.90048-.45875,2.80235,.37449,.54299,.98302,.84882,1.58842,.84882,.39008,0,.78016-.11859,1.12656-.37448,2.90221-2.1751,4.98681-5.26767,5.91364-8.7753,4.44383,1.71324,7.53016,6.17579,7.53016,11.21877-.01559,6.57211-5.17716,11.93341-11.53396,11.93341Z" style="fill: #0178d4;"/>
      </g>
      <g>
        <g>
          <rect x="246.82766" y="142.65638" width="256.12293" height="55.19444" rx="9.19907" ry="9.19907" style="fill: #3e4045;"/>
          <path d="M289.1296,163.54501h-4.67999l.83002-4.69c.07001-.35004-.20001-.67999-.56-.67999h-1.52002c-.28003,0-.51001,.19995-.56,.47998l-.87,4.89001h-8.04999l.82996-4.69c.06-.35004-.20996-.67999-.56-.67999h-1.51996c-.28003,0-.52002,.19995-.57001,.47998l-.86005,4.89001h-4.88995c-.28003,0-.51001,.20001-.56,.47998l-.27002,1.53003c-.06,.34998,.21002,.66998,.56,.66998h4.69l-1.42999,8.04999h-4.88c-.28003,0-.52002,.20001-.56,.47998l-.27002,1.53003c-.06,.34998,.21002,.67999,.56,.67999h4.69l-.83997,4.69c-.06,.34998,.20996,.66998,.57001,.66998h1.50995c.28003,0,.52002-.20001,.57001-.46997l.87-4.89001h8.05005l-.84003,4.69c-.06,.34998,.21002,.66998,.57001,.66998h1.52002c.26996,0,.50995-.20001,.56-.46997l.87-4.89001h4.88c.27997,0,.51996-.20001,.56995-.47998l.27002-1.53003c.06-.34998-.20996-.67999-.57001-.67999h-4.67999l1.41998-8.04999h4.89001c.27002,0,.51001-.20001,.56-.47003l.27002-1.52997c.06-.35999-.21002-.67999-.57001-.67999Zm-9.25,10.72998h-8.04999l1.41998-8.04999h8.04999l-1.41998,8.04999Z" style="fill: #dcdfe3; fill-rule: evenodd;"/>
          <rect x="199.5051" y="78.2968" width="238.15101" height="45.99536" rx="9.19907" ry="9.19907" style="fill: #3e4045;"/>
          <path d="M233.03957,95.54501h-3.90997l.69-3.92004c.07001-.35999-.20001-.67999-.56-.67999h-1.13c-.27997,0-.52002,.20001-.57001,.47003l-.72998,4.13h-6.90002l.69-3.92004c.07001-.35999-.20001-.67999-.56-.67999h-1.13c-.27997,0-.51996,.20001-.57001,.47003l-.72998,4.13h-4.12c-.28003,0-.52002,.20001-.56,.47998l-.21002,1.15002c-.06,.34998,.21002,.66998,.57001,.66998h3.91998l-1.21997,6.90002h-4.12c-.28003,0-.52002,.19995-.57001,.46997l-.20001,1.15002c-.06,.35999,.21002,.67999,.57001,.67999h3.91003l-.69,3.91998c-.06,.35999,.20996,.67999,.56,.67999h1.13995c.27002,0,.51001-.20001,.56-.47998l.73004-4.12h6.89996l-.69,3.91998c-.07001,.35999,.21002,.67999,.56,.67999h1.14001c.27002,0,.51001-.20001,.56-.47998l.73004-4.12h4.12c.27997,0,.51996-.20001,.56995-.48004l.20001-1.14996c.06-.35004-.20996-.66998-.57001-.66998h-3.90997l1.21002-6.90002h4.12c.27997,0,.51996-.20001,.57001-.47998l.19995-1.15002c.06-.34998-.20996-.66998-.57001-.66998Zm-7.82996,9.20001h-6.90002l1.22003-6.90002h6.89996l-1.21997,6.90002Z" style="fill: #dcdfe3; fill-rule: evenodd;"/>
          <rect x="199.5051" y="216.21502" width="238.15101" height="45.99536" rx="9.19907" ry="9.19907" style="fill: #3e4045;"/>
          <path d="M233.03957,233.46499h-3.90997l.69-3.92999c.07001-.34998-.20001-.66998-.56-.66998h-1.13c-.27997,0-.52002,.19995-.57001,.46997l-.72998,4.13h-6.90002l.69-3.92999c.07001-.34998-.20001-.66998-.56-.66998h-1.13c-.27997,0-.51996,.19995-.57001,.46997l-.72998,4.13h-4.12c-.28003,0-.52002,.20001-.56,.47003l-.21002,1.14996c-.06,.35999,.21002,.67999,.57001,.67999h3.91998l-1.21997,6.90002h-4.12c-.28003,0-.52002,.20001-.57001,.46997l-.20001,1.15002c-.06,.35999,.21002,.67999,.57001,.67999h3.91003l-.69,3.91998c-.06,.35004,.20996,.67999,.56,.67999h1.13995c.27002,0,.51001-.19995,.56-.47998l.73004-4.12h6.89996l-.69,3.91998c-.07001,.35004,.21002,.67999,.56,.67999h1.14001c.27002,0,.51001-.19995,.56-.47998l.73004-4.12h4.12c.27997,0,.51996-.20001,.56995-.47998l.20001-1.15002c.06-.34998-.20996-.66998-.57001-.66998h-3.90997l1.21002-6.90002h4.12c.27997,0,.51996-.20001,.57001-.47998l.19995-1.15002c.06-.34998-.20996-.66998-.57001-.66998Zm-7.82996,9.20001h-6.90002l1.22003-6.90002h6.89996l-1.21997,6.90002Z" style="fill: #dcdfe3; fill-rule: evenodd;"/>
          <rect x="199.5051" y="280.5746" width="238.15101" height="45.99536" rx="9.19907" ry="9.19907" style="fill: #3e4045;"/>
          <path d="M215.47389,313.92124c-.35772,0-.62864-.32312-.56609-.67499l.69649-3.92455h-3.91524c-.35715,0-.62784-.32197-.56632-.67383l.20122-1.14988c.04818-.27482,.28701-.47605,.56632-.47605h4.11647l1.21887-6.8993h-3.91524c-.35715,0-.62783-.32197-.56632-.67383l.20123-1.14988c.04818-.27482,.28701-.47605,.56632-.47605h4.11646l.73225-4.12464c.04876-.27482,.28736-.4749,.56609-.4749h1.13194c.35773,0,.62853,.32312,.56609,.67499l-.6966,3.92455h6.8993l.73225-4.12464c.04876-.27482,.28736-.4749,.56609-.4749h1.13194c.35773,0,.62853,.32312,.56609,.67499l-.6966,3.92455h3.91525c.35727,0,.62795,.32197,.56643,.67383l-.20123,1.14988c-.04818,.27482-.28713,.47605-.56643,.47605h-4.11647l-1.21887,6.8993h3.91524c.35727,0,.62795,.32197,.56643,.67383l-.20123,1.14988c-.04817,.27482-.28712,.47605-.56643,.47605h-4.11646l-.73214,4.12464c-.04875,.27482-.28736,.4749-.56609,.4749h-1.13194c-.35772,0-.62864-.32312-.56609-.67499l.69649-3.92455h-6.8993l-.73214,4.12464c-.04875,.27482-.28736,.4749-.56609,.4749h-1.13194Zm4.05208-13.79861l-1.21888,6.8993h6.8993l1.21888-6.8993h-6.8993Z" style="fill: #dcdfe3; fill-rule: evenodd;"/>
        </g>
        <g>
          <path d="M254.96127,99.20399l-2.07227,.36719c-.08691-.26562-.22363-.51758-.40918-.75781-.18652-.23926-.4375-.43555-.75293-.58887-.31641-.15234-.71191-.22949-1.18555-.22949-.64746,0-1.18848,.14453-1.62207,.43262-.43262,.28809-.64941,.65918-.64941,1.1123,0,.39355,.14551,.70898,.43555,.94922,.29102,.23926,.75977,.43555,1.40723,.58887l1.86621,.42773c1.08105,.25,1.88672,.63477,2.41699,1.15527,.53027,.51953,.79492,1.19531,.79492,2.02637,0,.70312-.20215,1.3291-.60742,1.87695-.40625,.54883-.96875,.97852-1.69043,1.28906s-1.55664,.4668-2.50488,.4668c-1.31543,0-2.38867-.28223-3.21973-.8457-.83105-.5625-1.34082-1.36426-1.5293-2.40527l2.20996-.33594c.1377,.57617,.4209,1.01074,.84863,1.30371,.42871,.29297,.9873,.43945,1.6748,.43945,.75,0,1.34863-.15625,1.79785-.46973,.44824-.31348,.67285-.69727,.67285-1.15137,0-.36719-.13672-.67578-.40918-.9248-.27246-.25-.68945-.43848-1.25-.56641l-1.98926-.43555c-1.0957-.25-1.90527-.64746-2.42773-1.19336s-.78418-1.23633-.78418-2.07227c0-.69336,.19434-1.30078,.58105-1.82031,.3877-.52051,.92285-.92676,1.60645-1.21973s1.46582-.44043,2.34766-.44043c1.26953,0,2.26855,.27441,2.99805,.82227,.72949,.54883,1.21094,1.28125,1.44531,2.19922Z" style="fill: #dcdfe3;"/>
          <path d="M265.14096,103.21083v-6.875h2.29395v11.74707h-2.24805v-2.03418h-.12305c-.26953,.62695-.70215,1.14844-1.2959,1.56348-.59375,.41602-1.33203,.62402-2.21387,.62402-.75488,0-1.42188-.16699-2-.50098-.5791-.33398-1.03223-.83008-1.36133-1.48828-.3291-.65723-.49316-1.4707-.49316-2.43945v-7.47168h2.28613v7.19629c0,.80078,.22266,1.43848,.66602,1.91211,.44336,.47461,1.01953,.71191,1.72852,.71191,.42773,0,.85449-.10742,1.28027-.32129,.42578-.21484,.78027-.53809,1.06348-.97168s.42188-.98438,.41699-1.65234Z" style="fill: #dcdfe3;"/>
          <path d="M270.50131,112.48817v-16.15234h2.2334v1.9043h.19043c.13281-.24512,.32422-.52734,.57422-.84863,.24902-.32129,.59668-.60352,1.04004-.8457,.44336-.24121,1.0293-.36328,1.75879-.36328,.94824,0,1.79492,.24023,2.53906,.71973,.74414,.47852,1.3291,1.16992,1.75488,2.07227s.63867,1.98828,.63867,3.25781-.21191,2.35645-.63477,3.26172-1.00391,1.60156-1.74316,2.08789c-.73926,.4873-1.58301,.73047-2.53223,.73047-.71387,0-1.2959-.12012-1.74707-.35938s-.80469-.52051-1.05957-.8418c-.25488-.32031-.45117-.60645-.58887-.85645h-.1377v6.2334h-2.28613Zm2.24023-10.27832c0,.8252,.12012,1.5498,.35938,2.17188,.24023,.62207,.58691,1.10742,1.04102,1.45703,.45312,.34863,1.00879,.52344,1.66699,.52344,.68262,0,1.25391-.18262,1.71289-.54688s.80664-.86035,1.04395-1.4873,.35547-1.33301,.35547-2.11816c0-.77539-.11621-1.47168-.34766-2.08789-.23242-.61719-.5791-1.10449-1.04004-1.46094-.46191-.35742-1.03613-.53516-1.72461-.53516-.66309,0-1.22266,.1709-1.67871,.51172-.45703,.3418-.80176,.81836-1.03613,1.43066-.23535,.61133-.35254,1.3252-.35254,2.1416Z" style="fill: #dcdfe3;"/>
          <path d="M283.7933,112.48817v-16.15234h2.2334v1.9043h.19043c.13281-.24512,.32422-.52734,.57422-.84863,.24902-.32129,.59668-.60352,1.04004-.8457,.44336-.24121,1.0293-.36328,1.75879-.36328,.94824,0,1.79492,.24023,2.53906,.71973,.74414,.47852,1.3291,1.16992,1.75488,2.07227s.63867,1.98828,.63867,3.25781-.21191,2.35645-.63477,3.26172-1.00391,1.60156-1.74316,2.08789c-.73926,.4873-1.58301,.73047-2.53223,.73047-.71387,0-1.2959-.12012-1.74707-.35938s-.80469-.52051-1.05957-.8418c-.25488-.32031-.45117-.60645-.58887-.85645h-.1377v6.2334h-2.28613Zm2.24023-10.27832c0,.8252,.12012,1.5498,.35938,2.17188,.24023,.62207,.58691,1.10742,1.04102,1.45703,.45312,.34863,1.00879,.52344,1.66699,.52344,.68262,0,1.25391-.18262,1.71289-.54688s.80664-.86035,1.04395-1.4873,.35547-1.33301,.35547-2.11816c0-.77539-.11621-1.47168-.34766-2.08789-.23242-.61719-.5791-1.10449-1.04004-1.46094-.46191-.35742-1.03613-.53516-1.72461-.53516-.66309,0-1.22266,.1709-1.67871,.51172-.45703,.3418-.80176,.81836-1.03613,1.43066-.23535,.61133-.35254,1.3252-.35254,2.1416Z" style="fill: #dcdfe3;"/>
          <path d="M302.03354,108.3202c-1.10156,0-2.0625-.25293-2.88379-.75781-.82031-.50391-1.45801-1.20996-1.91211-2.11816-.45312-.90723-.68066-1.96777-.68066-3.18164,0-1.21777,.22754-2.28418,.68066-3.19629,.4541-.91309,1.0918-1.62109,1.91211-2.12598,.82129-.50488,1.78223-.75781,2.88379-.75781,1.10059,0,2.06152,.25293,2.88281,.75781s1.45801,1.21289,1.91211,2.12598c.4541,.91211,.68066,1.97852,.68066,3.19629,0,1.21387-.22656,2.27441-.68066,3.18164-.4541,.9082-1.09082,1.61426-1.91211,2.11816-.82129,.50488-1.78223,.75781-2.88281,.75781Zm.00781-1.91992c.71289,0,1.30469-.18848,1.77344-.56543,.46973-.37793,.81738-.87988,1.04395-1.50684,.22754-.62695,.34082-1.31836,.34082-2.07227,0-.75-.11328-1.43945-.34082-2.06934-.22656-.62988-.57422-1.13574-1.04395-1.51758-.46875-.38281-1.06055-.57422-1.77344-.57422-.71973,0-1.31445,.19141-1.78613,.57422-.47168,.38184-.82129,.8877-1.04785,1.51758s-.33984,1.31934-.33984,2.06934c0,.75391,.11328,1.44531,.33984,2.07227s.57617,1.12891,1.04785,1.50684c.47168,.37695,1.06641,.56543,1.78613,.56543Z" style="fill: #dcdfe3;"/>
          <path d="M310.05502,108.0829v-11.74707h2.21094v1.86621h.12207c.21387-.63184,.59277-1.13086,1.13574-1.49512s1.1582-.54688,1.84668-.54688c.14258,0,.3125,.00488,.50879,.01562,.19629,.00977,.35059,.02246,.46289,.03809v2.1875c-.0918-.02637-.25488-.05469-.49023-.08887-.23438-.03223-.46875-.04883-.70312-.04883-.54004,0-1.02051,.11328-1.44141,.33984s-.75391,.54102-.99805,.94043c-.24512,.40039-.36719,.85547-.36719,1.36523v7.17383h-2.28711Z" style="fill: #dcdfe3;"/>
          <path d="M324.50131,96.33583v1.83594h-6.41602v-1.83594h6.41602Zm-4.69531-2.81445h2.28711v11.1123c0,.44336,.06543,.77637,.19824,.99805s.30469,.37207,.5166,.45117c.21094,.0791,.44238,.11816,.69141,.11816,.18359,0,.34473-.01172,.48242-.03809,.1377-.02539,.24414-.0459,.32129-.06055l.41309,1.88867c-.13281,.05078-.32129,.10352-.56641,.15723-.24414,.05273-.55078,.08203-.91797,.08789-.60156,.00977-1.16211-.09766-1.68164-.32129-.52051-.22461-.94141-.57129-1.2627-1.04004-.32129-.46973-.48145-1.05859-.48145-1.7666v-11.58691Z" style="fill: #dcdfe3;"/>
        </g>
        <g>
          <path d="M248.44565,238.53309v6.97461h-2.28711v-11.74707h2.19531v1.91211h.14551c.26953-.62207,.69434-1.12207,1.27344-1.49902,.57812-.37695,1.30859-.56641,2.19043-.56641,.80078,0,1.50195,.16797,2.10352,.50098,.60156,.33398,1.06836,.83008,1.39941,1.48828,.33105,.65723,.49707,1.4707,.49707,2.43945v7.47168h-2.28613v-7.19629c0-.85156-.22266-1.51855-.66602-2-.44336-.48242-1.05273-.72266-1.82715-.72266-.53125,0-1.00098,.11426-1.41113,.34375-.41113,.22949-.73438,.56445-.97168,1.00586s-.35547,.97266-.35547,1.59473Z" style="fill: #dcdfe3;"/>
          <path d="M264.0853,245.74501c-1.1582,0-2.15332-.24902-2.98633-.74609-.83398-.49707-1.47656-1.19824-1.92773-2.10254-.45117-.90527-.67676-1.9668-.67676-3.18555,0-1.20312,.22559-2.26367,.67676-3.18164s1.08301-1.63379,1.89648-2.14941c.81348-.51465,1.76562-.77246,2.85645-.77246,.66309,0,1.30566,.11035,1.92773,.3291,.62207,.21973,1.17969,.56348,1.6748,1.03223,.49414,.46973,.88477,1.07715,1.16992,1.82422s.42871,1.65332,.42871,2.71875v.81055h-9.33887v-1.71289h7.09766c0-.60156-.12207-1.13574-.36719-1.60254-.24512-.46582-.58789-.83398-1.02832-1.10449-.44141-.27051-.95801-.40527-1.54883-.40527-.64258,0-1.20215,.15625-1.67871,.46973-.47656,.31445-.84375,.72168-1.10156,1.22363-.25684,.50293-.38574,1.04688-.38574,1.63281v1.33887c0,.78516,.13867,1.45312,.41699,2.00391,.27734,.55078,.66602,.96973,1.16602,1.25781,.49902,.28809,1.08301,.43164,1.75098,.43164,.43359,0,.8291-.06152,1.18555-.18652s.66504-.3125,.92578-.5625c.25977-.25,.45801-.55859,.5957-.92578l2.16504,.39062c-.17383,.63672-.4834,1.19434-.92969,1.6709s-1.00391,.84668-1.6748,1.1084c-.66992,.2627-1.43359,.39453-2.29004,.39453Z" style="fill: #dcdfe3;"/>
          <path d="M274.18783,245.5077l-3.45703-11.74707h2.36328l2.30176,8.62695h.11426l2.31055-8.62695h2.3623l2.29492,8.58887h.11426l2.28711-8.58887h2.36328l-3.44922,11.74707h-2.33301l-2.38574-8.48145h-.17578l-2.38672,8.48145h-2.32422Z" style="fill: #dcdfe3;"/>
          <path d="M298.20932,236.6288l-2.07324,.36719c-.08594-.26562-.22266-.51758-.40918-.75781-.18555-.23926-.43652-.43555-.75293-.58887-.31641-.15234-.71094-.22949-1.18555-.22949-.64746,0-1.1875,.14453-1.62109,.43262s-.65039,.65918-.65039,1.1123c0,.39355,.14551,.70898,.43652,.94922,.29004,.23926,.75977,.43555,1.40723,.58887l1.86523,.42773c1.08105,.25,1.88672,.63477,2.41699,1.15527,.53027,.51953,.7959,1.19531,.7959,2.02637,0,.70312-.20312,1.3291-.6084,1.87695-.40527,.54883-.96875,.97852-1.69043,1.28906s-1.55566,.4668-2.50391,.4668c-1.31543,0-2.38965-.28223-3.21973-.8457-.83105-.5625-1.3418-1.36426-1.53027-2.40527l2.21094-.33594c.1377,.57617,.41992,1.01074,.84863,1.30371,.42773,.29297,.98633,.43945,1.6748,.43945,.74902,0,1.34863-.15625,1.79688-.46973,.44922-.31348,.67285-.69727,.67285-1.15137,0-.36719-.13574-.67578-.40918-.9248-.27246-.25-.68945-.43848-1.25-.56641l-1.98828-.43555c-1.09668-.25-1.90527-.64746-2.42871-1.19336-.52246-.5459-.7832-1.23633-.7832-2.07227,0-.69336,.19336-1.30078,.58105-1.82031,.3877-.52051,.92285-.92676,1.60547-1.21973,.68359-.29297,1.46582-.44043,2.34863-.44043,1.26953,0,2.26855,.27441,2.99805,.82227,.72852,.54883,1.20996,1.28125,1.44531,2.19922Z" style="fill: #dcdfe3;"/>
        </g>
        <g>
          <path d="M250.556,309.64051c-.94824,0-1.79297-.24316-2.53516-.73047-.74121-.48633-1.32324-1.18262-1.74316-2.08789-.4209-.90527-.63086-1.99219-.63086-3.26172s.21289-2.35547,.63867-3.25781c.4248-.90234,1.01074-1.59375,1.75488-2.07227,.74414-.47949,1.58789-.71973,2.53125-.71973,.72949,0,1.31641,.12207,1.7627,.36328,.44629,.24219,.79297,.52441,1.04004,.8457s.43945,.60352,.57715,.84863h.1377v-5.82031h2.28711v15.66309h-2.2334v-1.82812h-.19141c-.1377,.25-.33496,.53613-.5918,.85645-.25781,.32129-.61133,.60254-1.05957,.8418-.44922,.23926-1.03027,.35938-1.74414,.35938Zm.50488-1.9502c.6582,0,1.21484-.1748,1.6709-.52344,.45703-.34961,.80371-.83496,1.04004-1.45703,.2373-.62207,.35645-1.34668,.35645-2.17188,0-.81641-.11816-1.53027-.35254-2.1416-.23438-.6123-.57812-1.08887-1.03223-1.43066-.4541-.34082-1.01465-.51172-1.68262-.51172-.68848,0-1.26172,.17773-1.7207,.53516-.45898,.35645-.80371,.84375-1.03613,1.46094-.23242,.61621-.34766,1.3125-.34766,2.08789,0,.78516,.11719,1.49121,.35156,2.11816s.58203,1.12305,1.04395,1.4873c.46094,.36426,1.03125,.54688,1.70898,.54688Z" style="fill: #dcdfe3;"/>
          <path d="M264.69662,309.64833c-1.15723,0-2.15234-.24902-2.98633-.74609s-1.47559-1.19824-1.92676-2.10254c-.45117-.90527-.67773-1.9668-.67773-3.18555,0-1.20312,.22656-2.26367,.67773-3.18164s1.08301-1.63379,1.89648-2.14941c.8125-.51465,1.76465-.77246,2.85645-.77246,.66211,0,1.30469,.11035,1.92676,.3291,.62207,.21973,1.18066,.56348,1.6748,1.03223,.49512,.46973,.88477,1.07715,1.16992,1.82422,.28613,.74707,.42871,1.65332,.42871,2.71875v.81055h-9.33789v-1.71289h7.09668c0-.60156-.12207-1.13574-.36621-1.60254-.24512-.46582-.58789-.83398-1.0293-1.10449-.44043-.27051-.95703-.40527-1.54883-.40527-.6416,0-1.20117,.15625-1.67871,.46973-.47656,.31445-.84375,.72168-1.10059,1.22363-.25781,.50293-.38672,1.04688-.38672,1.63281v1.33887c0,.78516,.13867,1.45312,.41699,2.00391s.66699,.96973,1.16602,1.25781c.5,.28809,1.08398,.43164,1.75195,.43164,.43262,0,.82812-.06152,1.18555-.18652,.35645-.125,.66504-.3125,.9248-.5625s.45898-.55859,.59668-.92578l2.16406,.39062c-.17285,.63672-.4834,1.19434-.92871,1.6709-.44629,.47656-1.00488,.84668-1.6748,1.1084-.6709,.2627-1.43457,.39453-2.29102,.39453Z" style="fill: #dcdfe3;"/>
          <path d="M281.9808,297.66395l-4.25977,11.74707h-2.44727l-4.26758-11.74707h2.45508l2.97461,9.04004h.12305l2.9668-9.04004h2.45508Z" style="fill: #dcdfe3;"/>
          <path d="M288.78061,309.64833c-1.1582,0-2.15332-.24902-2.98633-.74609-.83398-.49707-1.47656-1.19824-1.92773-2.10254-.45117-.90527-.67676-1.9668-.67676-3.18555,0-1.20312,.22559-2.26367,.67676-3.18164s1.08301-1.63379,1.89648-2.14941c.81348-.51465,1.76562-.77246,2.85645-.77246,.66309,0,1.30566,.11035,1.92773,.3291,.62207,.21973,1.17969,.56348,1.6748,1.03223,.49414,.46973,.88477,1.07715,1.16992,1.82422s.42871,1.65332,.42871,2.71875v.81055h-9.33887v-1.71289h7.09766c0-.60156-.12207-1.13574-.36719-1.60254-.24512-.46582-.58789-.83398-1.02832-1.10449-.44141-.27051-.95801-.40527-1.54883-.40527-.64258,0-1.20215,.15625-1.67871,.46973-.47656,.31445-.84375,.72168-1.10156,1.22363-.25684,.50293-.38574,1.04688-.38574,1.63281v1.33887c0,.78516,.13867,1.45312,.41699,2.00391,.27734,.55078,.66602,.96973,1.16602,1.25781,.49902,.28809,1.08301,.43164,1.75098,.43164,.43359,0,.8291-.06152,1.18555-.18652s.66504-.3125,.92578-.5625c.25977-.25,.45801-.55859,.5957-.92578l2.16504,.39062c-.17383,.63672-.4834,1.19434-.92969,1.6709s-1.00391,.84668-1.6748,1.1084c-.66992,.2627-1.43359,.39453-2.29004,.39453Z" style="fill: #dcdfe3;"/>
          <path d="M298.65365,293.74794v15.66309h-2.28711v-15.66309h2.28711Z" style="fill: #dcdfe3;"/>
          <path d="M306.67612,309.64833c-1.10156,0-2.0625-.25293-2.88379-.75781-.82031-.50391-1.45801-1.20996-1.91211-2.11816-.45312-.90723-.68066-1.96777-.68066-3.18164,0-1.21777,.22754-2.28418,.68066-3.19629,.4541-.91309,1.0918-1.62109,1.91211-2.12598,.82129-.50488,1.78223-.75781,2.88379-.75781,1.10059,0,2.06152,.25293,2.88281,.75781s1.45801,1.21289,1.91211,2.12598c.4541,.91211,.68066,1.97852,.68066,3.19629,0,1.21387-.22656,2.27441-.68066,3.18164-.4541,.9082-1.09082,1.61426-1.91211,2.11816-.82129,.50488-1.78223,.75781-2.88281,.75781Zm.00781-1.91992c.71289,0,1.30469-.18848,1.77344-.56543,.46973-.37793,.81738-.87988,1.04395-1.50684,.22754-.62695,.34082-1.31836,.34082-2.07227,0-.75-.11328-1.43945-.34082-2.06934-.22656-.62988-.57422-1.13574-1.04395-1.51758-.46875-.38281-1.06055-.57422-1.77344-.57422-.71973,0-1.31445,.19141-1.78613,.57422-.47168,.38184-.82129,.8877-1.04785,1.51758s-.33984,1.31934-.33984,2.06934c0,.75391,.11328,1.44531,.33984,2.07227s.57617,1.12891,1.04785,1.50684c.47168,.37695,1.06641,.56543,1.78613,.56543Z" style="fill: #dcdfe3;"/>
          <path d="M314.6976,313.8163v-16.15234h2.2334v1.9043h.19141c.13281-.24512,.32324-.52734,.57324-.84863s.59668-.60352,1.04004-.8457c.44336-.24121,1.03027-.36328,1.75879-.36328,.94922,0,1.79492,.24023,2.53906,.71973,.74512,.47852,1.33008,1.16992,1.75586,2.07227s.63867,1.98828,.63867,3.25781-.21191,2.35645-.63477,3.26172c-.42383,.90527-1.00488,1.60156-1.74414,2.08789-.73926,.4873-1.58301,.73047-2.53125,.73047-.71387,0-1.2959-.12012-1.74707-.35938-.45215-.23926-.80469-.52051-1.05957-.8418-.25488-.32031-.45117-.60645-.58887-.85645h-.1377v6.2334h-2.28711Zm2.24121-10.27832c0,.8252,.12012,1.5498,.35938,2.17188s.58594,1.10742,1.04004,1.45703c.4541,.34863,1.00977,.52344,1.66699,.52344,.68359,0,1.25488-.18262,1.71289-.54688,.45898-.36426,.80762-.86035,1.04395-1.4873,.2373-.62695,.35645-1.33301,.35645-2.11816,0-.77539-.11621-1.47168-.34863-2.08789-.23145-.61719-.57812-1.10449-1.04004-1.46094-.46094-.35742-1.03613-.53516-1.72461-.53516-.66211,0-1.22266,.1709-1.67871,.51172-.45605,.3418-.80176,.81836-1.03613,1.43066-.23438,.61133-.35156,1.3252-.35156,2.1416Z" style="fill: #dcdfe3;"/>
          <path d="M327.98959,309.41102v-11.74707h2.19531v1.91211h.14551c.24414-.64746,.64453-1.15332,1.2002-1.51855,.55566-.36426,1.22168-.54688,1.99609-.54688,.78516,0,1.44434,.18359,1.97754,.55078,.53223,.36719,.92578,.87207,1.18164,1.51465h.12207c.28027-.62695,.72656-1.12793,1.33789-1.50293,.6123-.375,1.34082-.5625,2.1875-.5625,1.06543,0,1.93652,.33398,2.61133,1.00195,.67578,.66797,1.01367,1.6748,1.01367,3.02148v7.87695h-2.28613v-7.66309c0-.79492-.2168-1.37109-.65039-1.72852-.43359-.35645-.95117-.53516-1.55273-.53516-.74414,0-1.32324,.22852-1.73633,.68457-.41211,.45605-.61914,1.04102-.61914,1.75488v7.4873h-2.2793v-7.80859c0-.63672-.19824-1.14941-.5957-1.53711-.39844-.3877-.91602-.58105-1.55273-.58105-.43359,0-.83301,.11328-1.19727,.33984-.36426,.22754-.65723,.54199-.87891,.94531-.22266,.40234-.33301,.86914-.33301,1.39941v7.24219h-2.28711Z" style="fill: #dcdfe3;"/>
          <path d="M352.08041,309.64833c-1.1582,0-2.15332-.24902-2.98633-.74609-.83398-.49707-1.47656-1.19824-1.92773-2.10254-.45117-.90527-.67676-1.9668-.67676-3.18555,0-1.20312,.22559-2.26367,.67676-3.18164s1.08301-1.63379,1.89648-2.14941c.81348-.51465,1.76562-.77246,2.85645-.77246,.66309,0,1.30566,.11035,1.92773,.3291,.62207,.21973,1.17969,.56348,1.6748,1.03223,.49414,.46973,.88477,1.07715,1.16992,1.82422s.42871,1.65332,.42871,2.71875v.81055h-9.33887v-1.71289h7.09766c0-.60156-.12207-1.13574-.36719-1.60254-.24512-.46582-.58789-.83398-1.02832-1.10449-.44141-.27051-.95801-.40527-1.54883-.40527-.64258,0-1.20215,.15625-1.67871,.46973-.47656,.31445-.84375,.72168-1.10156,1.22363-.25684,.50293-.38574,1.04688-.38574,1.63281v1.33887c0,.78516,.13867,1.45312,.41699,2.00391,.27734,.55078,.66602,.96973,1.16602,1.25781,.49902,.28809,1.08301,.43164,1.75098,.43164,.43359,0,.8291-.06152,1.18555-.18652s.66504-.3125,.92578-.5625c.25977-.25,.45801-.55859,.5957-.92578l2.16504,.39062c-.17383,.63672-.4834,1.19434-.92969,1.6709s-1.00391,.84668-1.6748,1.1084c-.66992,.2627-1.43359,.39453-2.29004,.39453Z" style="fill: #dcdfe3;"/>
          <path d="M361.95346,302.43641v6.97461h-2.28711v-11.74707h2.19531v1.91211h.14551c.26953-.62207,.69434-1.12207,1.27344-1.49902,.57812-.37695,1.30859-.56641,2.19043-.56641,.80078,0,1.50195,.16797,2.10352,.50098,.60156,.33398,1.06836,.83008,1.39941,1.48828,.33105,.65723,.49707,1.4707,.49707,2.43945v7.47168h-2.28613v-7.19629c0-.85156-.22266-1.51855-.66602-2-.44336-.48242-1.05273-.72266-1.82715-.72266-.53125,0-1.00098,.11426-1.41113,.34375-.41113,.22949-.73438,.56445-.97168,1.00586s-.35547,.97266-.35547,1.59473Z" style="fill: #dcdfe3;"/>
          <path d="M378.01303,297.66395v1.83594h-6.41602v-1.83594h6.41602Zm-4.69531-2.81445h2.28711v11.1123c0,.44336,.06543,.77637,.19824,.99805s.30469,.37207,.5166,.45117c.21094,.0791,.44238,.11816,.69141,.11816,.18359,0,.34473-.01172,.48242-.03809,.1377-.02539,.24414-.0459,.32129-.06055l.41309,1.88867c-.13281,.05078-.32129,.10352-.56641,.15723-.24414,.05273-.55078,.08203-.91797,.08789-.60156,.00977-1.16211-.09766-1.68164-.32129-.52051-.22461-.94141-.57129-1.2627-1.04004-.32129-.46973-.48145-1.05859-.48145-1.7666v-11.58691Z" style="fill: #dcdfe3;"/>
        </g>
        <g>
          <path d="M308.66733,164.72352v2.44727h-7.25v-2.44727h7.25Zm-5.58984,11.74707v-12.5957c0-.85156,.16602-1.55762,.5-2.11816,.33398-.56152,.79199-.98145,1.37305-1.2627,.58105-.28027,1.24121-.41992,1.98145-.41992,.49902,0,.95703,.03809,1.37207,.11426,.41602,.07617,.72559,.14551,.92969,.20703l-.58105,2.44727c-.12793-.04102-.28516-.0791-.4707-.11523-.18652-.03516-.37598-.05371-.56934-.05371-.47949,0-.81348,.11133-1.00195,.33301-.18945,.22168-.2832,.53125-.2832,.92871v12.53516h-3.25Z" style="fill: #fff;"/>
          <path d="M315.59604,176.70008c-1.20801,0-2.24707-.24609-3.11621-.73828s-1.53809-1.19043-2.00684-2.0957c-.46973-.9043-.7041-1.97656-.7041-3.21582,0-1.20801,.23438-2.26855,.7041-3.18066,.46875-.91309,1.12988-1.62402,1.98438-2.13379,.85352-.50977,1.85645-.76562,3.00879-.76562,.77539,0,1.49805,.12402,2.16895,.37109,.66992,.24805,1.25586,.61816,1.75879,1.11328,.50195,.49414,.89355,1.11523,1.17383,1.8623s.4209,1.62012,.4209,2.61914v.89453h-9.91992v-2.01855h6.85254c0-.46973-.10156-.88477-.30566-1.24707-.2041-.36133-.48535-.64648-.84473-.85254s-.77637-.30957-1.25098-.30957c-.49414,0-.93164,.11328-1.31152,.33984-.37988,.22754-.67676,.53027-.89062,.91016-.21484,.37988-.32422,.80176-.3291,1.26562v1.91992c0,.58105,.1084,1.08301,.3252,1.50684,.2168,.42285,.52344,.74902,.92188,.97852,.39746,.22949,.86914,.34473,1.41406,.34473,.3623,0,.69336-.05176,.99414-.15332s.55859-.25488,.77246-.45898c.21484-.2041,.37793-.4541,.49023-.74902l3.0127,.19824c-.15332,.72461-.46484,1.35547-.93652,1.89258-.47168,.53809-1.07812,.95605-1.82031,1.25488-.74219,.29785-1.59766,.44727-2.56641,.44727Z" style="fill: #fff;"/>
          <path d="M326.4642,176.69227c-.75,0-1.41797-.13086-2.00391-.39355-.58691-.2627-1.04883-.65234-1.3877-1.16992-.33984-.51758-.50879-1.16406-.50879-1.93945,0-.65234,.11914-1.2002,.35938-1.64355,.23926-.44434,.56543-.80078,.97852-1.07129,.41309-.26953,.88379-.47363,1.41113-.61133s1.08203-.23438,1.66309-.29102c.68359-.07129,1.23438-.13867,1.65234-.20215,.41797-.06445,.72168-.15918,.91016-.28711,.18848-.12695,.2832-.31641,.2832-.56641v-.0459c0-.4834-.15234-.8584-.45508-1.12402-.30371-.26465-.7334-.39746-1.28906-.39746-.58594,0-1.05273,.12891-1.39941,.38574-.34668,.25781-.57617,.58008-.68848,.96777l-3.0127-.24414c.15234-.71387,.45312-1.33203,.90234-1.85547,.44824-.52246,1.02832-.9248,1.73926-1.20801,.71191-.2832,1.53613-.4248,2.47461-.4248,.65234,0,1.27832,.07715,1.87695,.22949,.59961,.15332,1.13184,.39062,1.59863,.71191s.83496,.73242,1.10547,1.23438c.26953,.50293,.40527,1.10352,.40527,1.80176v7.92285h-3.08984v-1.62891h-.0918c-.18848,.36719-.44141,.68945-.75684,.96777-.31641,.27734-.69629,.49414-1.13965,.64941s-.95605,.2334-1.53711,.2334Zm.93262-2.24805c.47949,0,.90234-.0957,1.26953-.28711s.65527-.4502,.86426-.77637,.31348-.69629,.31348-1.1084v-1.24707c-.10156,.06641-.24121,.12598-.41699,.17969s-.37305,.10254-.59277,.14551c-.21875,.04297-.43848,.08203-.65723,.11426-.21973,.0332-.41797,.0625-.59668,.08789-.38281,.05664-.7168,.14551-1.00195,.26855-.28516,.12207-.50684,.28613-.66504,.49316-.1582,.20605-.2373,.46191-.2373,.76855,0,.44336,.16211,.78125,.48535,1.0127,.32422,.23242,.73535,.34863,1.23535,.34863Z" style="fill: #fff;"/>
          <path d="M341.85873,164.72352v2.44727h-7.07422v-2.44727h7.07422Zm-5.46777-2.81445h3.25781v10.95215c0,.30078,.0459,.53418,.1377,.69922,.0918,.16602,.2207,.28223,.38574,.34863,.16602,.06543,.3584,.09863,.57812,.09863,.15234,0,.30566-.01367,.45898-.04199,.15234-.02734,.26953-.0498,.35156-.06445l.5127,2.42383c-.16406,.05078-.39355,.11133-.68848,.17969-.2959,.06934-.65527,.11133-1.07812,.12598-.78613,.03125-1.47266-.07324-2.06152-.31348-.58887-.23926-1.04688-.61133-1.37305-1.11621s-.48633-1.1416-.48145-1.91211v-11.37988Z" style="fill: #fff;"/>
          <path d="M351.5101,171.46864v-6.74512h3.25781v11.74707h-3.12793v-2.13379h-.12207c-.26562,.68848-.70508,1.24121-1.31934,1.65918-.61426,.41895-1.3623,.62793-2.24512,.62793-.78516,0-1.47559-.17871-2.07227-.53613-.59668-.35645-1.06152-.86426-1.39551-1.52148s-.50391-1.44531-.50879-2.36328v-7.47949h3.25781v6.89844c.00488,.69336,.19141,1.24121,.55859,1.64453,.36719,.40234,.85938,.60352,1.47559,.60352,.39258,0,.75977-.08984,1.10156-.27148,.3418-.18066,.61816-.44922,.83008-.80664,.21094-.35645,.31445-.79785,.30957-1.32324Z" style="fill: #fff;"/>
          <path d="M357.3685,176.47059v-11.74707h3.1582v2.0498h.12207c.21387-.72949,.57422-1.28125,1.07812-1.65625,.50488-.37402,1.08594-.56152,1.74414-.56152,.16309,0,.33887,.00977,.52734,.03027s.35449,.04883,.49707,.08398v2.8916c-.15234-.0459-.36426-.08691-.63477-.12305-.26953-.03516-.51758-.05371-.74121-.05371-.47949,0-.90625,.10352-1.28125,.31055-.375,.20605-.6709,.49316-.88672,.86035-.2168,.36621-.3252,.79004-.3252,1.26953v6.64551h-3.25781Z" style="fill: #fff;"/>
          <path d="M370.97299,176.70008c-1.20801,0-2.24707-.24609-3.11621-.73828s-1.53809-1.19043-2.00684-2.0957c-.46973-.9043-.7041-1.97656-.7041-3.21582,0-1.20801,.23438-2.26855,.7041-3.18066,.46875-.91309,1.12988-1.62402,1.98438-2.13379,.85352-.50977,1.85645-.76562,3.00879-.76562,.77539,0,1.49805,.12402,2.16895,.37109,.66992,.24805,1.25586,.61816,1.75879,1.11328,.50195,.49414,.89355,1.11523,1.17383,1.8623s.4209,1.62012,.4209,2.61914v.89453h-9.91992v-2.01855h6.85254c0-.46973-.10156-.88477-.30566-1.24707-.2041-.36133-.48535-.64648-.84473-.85254s-.77637-.30957-1.25098-.30957c-.49414,0-.93164,.11328-1.31152,.33984-.37988,.22754-.67676,.53027-.89062,.91016-.21484,.37988-.32422,.80176-.3291,1.26562v1.91992c0,.58105,.1084,1.08301,.3252,1.50684,.2168,.42285,.52344,.74902,.92188,.97852,.39746,.22949,.86914,.34473,1.41406,.34473,.3623,0,.69336-.05176,.99414-.15332s.55859-.25488,.77246-.45898c.21484-.2041,.37793-.4541,.49023-.74902l3.0127,.19824c-.15332,.72461-.46484,1.35547-.93652,1.89258-.47168,.53809-1.07812,.95605-1.82031,1.25488-.74219,.29785-1.59766,.44727-2.56641,.44727Z" style="fill: #fff;"/>
          <path d="M385.8099,168.74598v2.58496h-7.14258v-2.58496h7.14258Z" style="fill: #fff;"/>
          <path d="M388.58627,176.47059v-11.74707h3.1582v2.0498h.12305c.21387-.72949,.57324-1.28125,1.07812-1.65625,.50488-.37402,1.08594-.56152,1.74316-.56152,.16309,0,.33984,.00977,.52832,.03027s.35449,.04883,.49707,.08398v2.8916c-.15332-.0459-.36426-.08691-.63477-.12305-.27051-.03516-.51758-.05371-.74219-.05371-.47949,0-.90625,.10352-1.28125,.31055-.37402,.20605-.66992,.49316-.88672,.86035-.2168,.36621-.3252,.79004-.3252,1.26953v6.64551h-3.25781Z" style="fill: #fff;"/>
          <path d="M402.19174,176.70008c-1.20801,0-2.24707-.24609-3.11621-.73828s-1.53906-1.19043-2.00781-2.0957c-.46875-.9043-.70312-1.97656-.70312-3.21582,0-1.20801,.23438-2.26855,.70312-3.18066,.46875-.91309,1.13086-1.62402,1.98438-2.13379,.85449-.50977,1.85742-.76562,3.00977-.76562,.77441,0,1.49707,.12402,2.16797,.37109,.6709,.24805,1.25684,.61816,1.75879,1.11328,.50195,.49414,.89355,1.11523,1.17383,1.8623s.4209,1.62012,.4209,2.61914v.89453h-9.91895v-2.01855h6.85254c0-.46973-.10254-.88477-.30664-1.24707-.20312-.36133-.48535-.64648-.84473-.85254s-.77637-.30957-1.25-.30957c-.49512,0-.93262,.11328-1.31152,.33984-.37988,.22754-.67676,.53027-.8916,.91016-.21387,.37988-.32324,.80176-.32812,1.26562v1.91992c0,.58105,.10742,1.08301,.32422,1.50684,.2168,.42285,.52441,.74902,.92188,.97852s.86914,.34473,1.41504,.34473c.36133,0,.69336-.05176,.99414-.15332s.55859-.25488,.77246-.45898,.37695-.4541,.48926-.74902l3.01367,.19824c-.15332,.72461-.46582,1.35547-.9375,1.89258-.47168,.53809-1.07812,.95605-1.82031,1.25488-.74121,.29785-1.59668,.44727-2.56543,.44727Z" style="fill: #fff;"/>
          <path d="M420.72104,180.87587h-3.24902v-6.28711h-.09961c-.15332,.32715-.36816,.64941-.64648,.96777-.27734,.31934-.63672,.58301-1.07812,.79199s-.97754,.31348-1.60938,.31348c-.89258,0-1.69922-.23047-2.4209-.69238-.72168-.46094-1.29297-1.1416-1.71289-2.04199-.4209-.89941-.63086-2.00488-.63086-3.31543,0-1.3457,.2168-2.46582,.64941-3.36133,.43359-.89453,1.01074-1.56445,1.73242-2.01074s1.5127-.66992,2.375-.66992c.65723,0,1.20703,.11133,1.64746,.33301,.44141,.22168,.79785,.49707,1.07129,.82617,.27246,.3291,.48047,.65137,.62305,.96777h.1377v-1.97363h3.21094v16.15234Zm-3.18066-10.27832c0-.69922-.09668-1.30566-.29004-1.82031-.19434-.51562-.47461-.91309-.8418-1.19336s-.81348-.4209-1.33789-.4209c-.53516,0-.98633,.14551-1.35352,.43652-.36719,.29004-.64551,.69336-.83398,1.20801s-.2832,1.11133-.2832,1.79004c0,.68262,.0957,1.28613,.28711,1.80859s.46875,.93066,.83398,1.22363c.36426,.29297,.81445,.43945,1.34961,.43945,.52441,0,.96973-.14355,1.33398-.43262,.36523-.28711,.64551-.69141,.8418-1.21191,.19629-.51953,.29395-1.12891,.29395-1.82715Z" style="fill: #fff;"/>
          <path d="M430.86264,171.46864v-6.74512h3.25781v11.74707h-3.12793v-2.13379h-.12207c-.26562,.68848-.70508,1.24121-1.31934,1.65918-.61426,.41895-1.3623,.62793-2.24414,.62793-.78516,0-1.47656-.17871-2.07324-.53613-.59668-.35645-1.06152-.86426-1.39551-1.52148s-.50391-1.44531-.50879-2.36328v-7.47949h3.25781v6.89844c.00586,.69336,.19141,1.24121,.55859,1.64453,.36719,.40234,.85938,.60352,1.47656,.60352,.39258,0,.75879-.08984,1.10059-.27148,.3418-.18066,.61816-.44922,.83008-.80664,.21191-.35645,.31445-.79785,.30957-1.32324Z" style="fill: #fff;"/>
          <path d="M442.07358,176.70008c-1.20801,0-2.24707-.24609-3.11621-.73828s-1.53809-1.19043-2.00781-2.0957c-.46875-.9043-.70312-1.97656-.70312-3.21582,0-1.20801,.23438-2.26855,.70312-3.18066,.46973-.91309,1.13086-1.62402,1.98438-2.13379,.85449-.50977,1.85742-.76562,3.00977-.76562,.77539,0,1.49805,.12402,2.16797,.37109,.6709,.24805,1.25684,.61816,1.75879,1.11328,.50293,.49414,.89355,1.11523,1.1748,1.8623,.28027,.74707,.41992,1.62012,.41992,2.61914v.89453h-9.91895v-2.01855h6.85254c0-.46973-.10254-.88477-.30566-1.24707-.2041-.36133-.48633-.64648-.8457-.85254s-.77637-.30957-1.25-.30957c-.49512,0-.93164,.11328-1.31152,.33984-.37988,.22754-.67676,.53027-.89062,.91016-.21484,.37988-.32422,.80176-.3291,1.26562v1.91992c0,.58105,.1084,1.08301,.3252,1.50684,.21582,.42285,.52344,.74902,.9209,.97852s.86914,.34473,1.41504,.34473c.3623,0,.69336-.05176,.99414-.15332s.55859-.25488,.77246-.45898,.37695-.4541,.48926-.74902l3.01367,.19824c-.15332,.72461-.46582,1.35547-.93652,1.89258-.47168,.53809-1.0791,.95605-1.82031,1.25488-.74219,.29785-1.59766,.44727-2.56641,.44727Z" style="fill: #fff;"/>
          <path d="M459.36557,168.07313l-2.98242,.18359c-.05176-.25488-.16113-.48535-.3291-.69238-.16895-.20605-.38867-.37207-.66211-.49707-.27246-.12402-.59766-.18652-.97461-.18652-.50488,0-.93066,.10547-1.27734,.31738-.34668,.21094-.51953,.49316-.51953,.84473,0,.28027,.11133,.51758,.33594,.71094,.22461,.19434,.60938,.34961,1.15527,.4668l2.12598,.42773c1.1416,.23535,1.99316,.6123,2.55371,1.13281,.56152,.51953,.8418,1.20312,.8418,2.04883,0,.77051-.22559,1.44531-.67676,2.02734-.45117,.58105-1.06836,1.0332-1.85059,1.35742-.7832,.32324-1.68457,.48535-2.7041,.48535-1.55469,0-2.79297-.3252-3.71289-.97559-.91992-.64941-1.45898-1.53516-1.61719-2.65723l3.2041-.16797c.09668,.47363,.33105,.83496,.7041,1.08203,.37207,.24707,.84863,.37109,1.42969,.37109,.57129,0,1.03125-.11133,1.38086-.33301,.34863-.22168,.52637-.50879,.53125-.86035-.00488-.2959-.12988-.53906-.375-.73047-.24414-.19141-.62207-.33789-1.13184-.43945l-2.03418-.40527c-1.14746-.22949-2-.62695-2.55859-1.19336-.55762-.56543-.83691-1.28711-.83691-2.16406,0-.75488,.20508-1.4043,.61523-1.9502s.98926-.96582,1.73633-1.26172,1.62207-.44434,2.62695-.44434c1.4834,0,2.65234,.31445,3.50684,.94141,.85352,.62695,1.35254,1.48047,1.49512,2.56152Z" style="fill: #fff;"/>
          <path d="M467.93881,164.72352v2.44727h-7.07422v-2.44727h7.07422Zm-5.46875-2.81445h3.25781v10.95215c0,.30078,.0459,.53418,.1377,.69922,.0918,.16602,.2207,.28223,.38672,.34863,.16504,.06543,.35742,.09863,.57715,.09863,.15332,0,.30566-.01367,.45898-.04199,.15234-.02734,.27051-.0498,.35156-.06445l.5127,2.42383c-.16309,.05078-.39258,.11133-.68848,.17969-.2959,.06934-.65527,.11133-1.07812,.12598-.78516,.03125-1.47266-.07324-2.06152-.31348-.58887-.23926-1.0459-.61133-1.37305-1.11621-.32617-.50488-.48633-1.1416-.48145-1.91211v-11.37988Z" style="fill: #fff;"/>
          <path d="M479.67026,168.07313l-2.98242,.18359c-.05176-.25488-.16113-.48535-.3291-.69238-.16895-.20605-.38867-.37207-.66211-.49707-.27246-.12402-.59766-.18652-.97461-.18652-.50488,0-.93066,.10547-1.27734,.31738-.34668,.21094-.51953,.49316-.51953,.84473,0,.28027,.11133,.51758,.33594,.71094,.22461,.19434,.60938,.34961,1.15527,.4668l2.12598,.42773c1.1416,.23535,1.99316,.6123,2.55371,1.13281,.56152,.51953,.8418,1.20312,.8418,2.04883,0,.77051-.22559,1.44531-.67676,2.02734-.45117,.58105-1.06836,1.0332-1.85059,1.35742-.7832,.32324-1.68457,.48535-2.7041,.48535-1.55469,0-2.79297-.3252-3.71289-.97559-.91992-.64941-1.45898-1.53516-1.61719-2.65723l3.2041-.16797c.09668,.47363,.33105,.83496,.7041,1.08203,.37207,.24707,.84863,.37109,1.42969,.37109,.57129,0,1.03125-.11133,1.38086-.33301,.34863-.22168,.52637-.50879,.53125-.86035-.00488-.2959-.12988-.53906-.375-.73047-.24414-.19141-.62207-.33789-1.13184-.43945l-2.03418-.40527c-1.14746-.22949-2-.62695-2.55859-1.19336-.55762-.56543-.83691-1.28711-.83691-2.16406,0-.75488,.20508-1.4043,.61523-1.9502s.98926-.96582,1.73633-1.26172,1.62207-.44434,2.62695-.44434c1.4834,0,2.65234,.31445,3.50684,.94141,.85352,.62695,1.35254,1.48047,1.49512,2.56152Z" style="fill: #fff;"/>
        </g>
      </g>
    </g>
  </g>
</svg>