<?xml version="1.0" encoding="UTF-8"?><svg id="a" xmlns="http://www.w3.org/2000/svg" width="540" height="390" xmlns:xlink="http://www.w3.org/1999/xlink" viewBox="0 0 540 390"><defs><style>.g{fill:none;}.h{opacity:.1;}.h,.i,.j{fill:#fff;}.k{fill:#0178d4;}.l{fill:#33363e;}.m{fill:#3291ff;}.n,.o{fill:#dcdfe3;}.p{fill:#1d2025;}.q{fill:#3e4045;}.r{fill:#2a2e36;}.s{filter:url(#c);}.t{opacity:.8;}.o{fill-rule:evenodd;}.u{clip-path:url(#b);}.j{opacity:.9;}</style><clipPath id="b"><rect width="540" height="390" rx="15" ry="15" fill="none"/></clipPath><filter id="c" filterUnits="userSpaceOnUse"><feOffset dx="-5" dy="-9"/><feGaussianBlur result="d" stdDeviation="6"/><feFlood flood-color="#3291ff" flood-opacity=".16"/><feComposite in2="d" operator="in"/><feComposite in="SourceGraphic"/></filter></defs><g clip-path="#b"><g><rect width="540" height="390" rx="15" ry="15" fill="#3291ff"/><g opacity=".8"><rect width="540" height="390" rx="15" ry="15" fill="#fff"/></g><g filter="#c"><path d="M525,390H45V60c0-8.28,6.72-15,15-15h480V375c0,8.28-6.72,15-15,15Z" fill="#33363e"/></g><path d="M60,45h100.73V390H45V60c0-8.28,6.72-15,15-15Z" fill="#1d2025"/><rect x="160.73" y="44.89" width="197.59" height="345" fill="#2a2e36"/><g><circle cx="102.86" cy="103.67" r="39.82" fill="#fff" opacity=".1"/><path d="M119.56,88.53c-3.13-1.43-6.45-2.47-9.92-3.06-.44,.75-.92,1.77-1.26,2.57-3.69-.53-7.35-.53-10.99,0-.34-.8-.85-1.82-1.26-2.57-3.49,.58-6.82,1.63-9.93,3.06-6.28,9.27-7.98,18.32-7.13,27.25,4.17,3.03,8.2,4.88,12.16,6.09,.97-1.31,1.84-2.72,2.6-4.2-1.43-.53-2.79-1.19-4.1-1.97,.34-.24,.68-.51,.99-.78,7.91,3.62,16.48,3.62,24.29,0,.34,.27,.66,.53,.99,.78-1.31,.78-2.67,1.43-4.1,1.97,.75,1.48,1.63,2.89,2.6,4.2,3.95-1.21,8.01-3.06,12.16-6.09,1.04-10.34-1.65-19.31-7.09-27.25Zm-24.65,21.74c-2.38,0-4.32-2.16-4.32-4.8s1.89-4.8,4.32-4.8,4.37,2.16,4.32,4.8c0,2.64-1.92,4.8-4.32,4.8Zm15.94,0c-2.38,0-4.32-2.16-4.32-4.8s1.89-4.8,4.32-4.8,4.37,2.16,4.32,4.8c0,2.64-1.89,4.8-4.32,4.8Z" fill="#fff" opacity=".9"/></g><rect x="77.58" y="159.34" width="50.58" height="3.45" rx="1.72" ry="1.72" fill="#fff" opacity=".1"/><path d="M45,195.34h0c2.97,0,5.38,2.41,5.38,5.38v46.75c0,2.97-2.41,5.38-5.38,5.38h0v-57.52h0Z" fill="#fff"/><g><g><rect x="246.83" y="142.66" width="256.12" height="55.19" rx="9.2" ry="9.2" fill="#3e4045"/><path d="M289.13,163.55h-4.68l.83-4.69c.07-.35-.2-.68-.56-.68h-1.52c-.28,0-.51,.2-.56,.48l-.87,4.89h-8.05l.83-4.69c.06-.35-.21-.68-.56-.68h-1.52c-.28,0-.52,.2-.57,.48l-.86,4.89h-4.89c-.28,0-.51,.2-.56,.48l-.27,1.53c-.06,.35,.21,.67,.56,.67h4.69l-1.43,8.05h-4.88c-.28,0-.52,.2-.56,.48l-.27,1.53c-.06,.35,.21,.68,.56,.68h4.69l-.84,4.69c-.06,.35,.21,.67,.57,.67h1.51c.28,0,.52-.2,.57-.47l.87-4.89h8.05l-.84,4.69c-.06,.35,.21,.67,.57,.67h1.52c.27,0,.51-.2,.56-.47l.87-4.89h4.88c.28,0,.52-.2,.57-.48l.27-1.53c.06-.35-.21-.68-.57-.68h-4.68l1.42-8.05h4.89c.27,0,.51-.2,.56-.47l.27-1.53c.06-.36-.21-.68-.57-.68Zm-9.25,10.73h-8.05l1.42-8.05h8.05l-1.42,8.05Z" fill="#dcdfe3" fill-rule="evenodd"/><rect x="199.51" y="78.3" width="238.15" height="46" rx="9.2" ry="9.2" fill="#3e4045"/><path d="M233.04,95.55h-3.91l.69-3.92c.07-.36-.2-.68-.56-.68h-1.13c-.28,0-.52,.2-.57,.47l-.73,4.13h-6.9l.69-3.92c.07-.36-.2-.68-.56-.68h-1.13c-.28,0-.52,.2-.57,.47l-.73,4.13h-4.12c-.28,0-.52,.2-.56,.48l-.21,1.15c-.06,.35,.21,.67,.57,.67h3.92l-1.22,6.9h-4.12c-.28,0-.52,.2-.57,.47l-.2,1.15c-.06,.36,.21,.68,.57,.68h3.91l-.69,3.92c-.06,.36,.21,.68,.56,.68h1.14c.27,0,.51-.2,.56-.48l.73-4.12h6.9l-.69,3.92c-.07,.36,.21,.68,.56,.68h1.14c.27,0,.51-.2,.56-.48l.73-4.12h4.12c.28,0,.52-.2,.57-.48l.2-1.15c.06-.35-.21-.67-.57-.67h-3.91l1.21-6.9h4.12c.28,0,.52-.2,.57-.48l.2-1.15c.06-.35-.21-.67-.57-.67Zm-7.83,9.2h-6.9l1.22-6.9h6.9l-1.22,6.9Z" fill="#dcdfe3" fill-rule="evenodd"/><rect x="199.51" y="216.22" width="238.15" height="46" rx="9.2" ry="9.2" fill="#3e4045"/><path d="M233.04,233.46h-3.91l.69-3.93c.07-.35-.2-.67-.56-.67h-1.13c-.28,0-.52,.2-.57,.47l-.73,4.13h-6.9l.69-3.93c.07-.35-.2-.67-.56-.67h-1.13c-.28,0-.52,.2-.57,.47l-.73,4.13h-4.12c-.28,0-.52,.2-.56,.47l-.21,1.15c-.06,.36,.21,.68,.57,.68h3.92l-1.22,6.9h-4.12c-.28,0-.52,.2-.57,.47l-.2,1.15c-.06,.36,.21,.68,.57,.68h3.91l-.69,3.92c-.06,.35,.21,.68,.56,.68h1.14c.27,0,.51-.2,.56-.48l.73-4.12h6.9l-.69,3.92c-.07,.35,.21,.68,.56,.68h1.14c.27,0,.51-.2,.56-.48l.73-4.12h4.12c.28,0,.52-.2,.57-.48l.2-1.15c.06-.35-.21-.67-.57-.67h-3.91l1.21-6.9h4.12c.28,0,.52-.2,.57-.48l.2-1.15c.06-.35-.21-.67-.57-.67Zm-7.83,9.2h-6.9l1.22-6.9h6.9l-1.22,6.9Z" fill="#dcdfe3" fill-rule="evenodd"/><rect x="199.51" y="280.57" width="238.15" height="46" rx="9.2" ry="9.2" fill="#3e4045"/><path d="M215.47,313.92c-.36,0-.63-.32-.57-.67l.7-3.92h-3.92c-.36,0-.63-.32-.57-.67l.2-1.15c.05-.27,.29-.48,.57-.48h4.12l1.22-6.9h-3.92c-.36,0-.63-.32-.57-.67l.2-1.15c.05-.27,.29-.48,.57-.48h4.12l.73-4.12c.05-.27,.29-.47,.57-.47h1.13c.36,0,.63,.32,.57,.67l-.7,3.92h6.9l.73-4.12c.05-.27,.29-.47,.57-.47h1.13c.36,0,.63,.32,.57,.67l-.7,3.92h3.92c.36,0,.63,.32,.57,.67l-.2,1.15c-.05,.27-.29,.48-.57,.48h-4.12l-1.22,6.9h3.92c.36,0,.63,.32,.57,.67l-.2,1.15c-.05,.27-.29,.48-.57,.48h-4.12l-.73,4.12c-.05,.27-.29,.47-.57,.47h-1.13c-.36,0-.63-.32-.57-.67l.7-3.92h-6.9l-.73,4.12c-.05,.27-.29,.47-.57,.47h-1.13Zm4.05-13.8l-1.22,6.9h6.9l1.22-6.9h-6.9Z" fill="#dcdfe3" fill-rule="evenodd"/></g><g><path d="M254.96,99.2l-2.07,.37c-.09-.27-.22-.52-.41-.76-.19-.24-.44-.44-.75-.59-.32-.15-.71-.23-1.19-.23-.65,0-1.19,.14-1.62,.43-.43,.29-.65,.66-.65,1.11,0,.39,.15,.71,.44,.95,.29,.24,.76,.44,1.41,.59l1.87,.43c1.08,.25,1.89,.63,2.42,1.16,.53,.52,.8,1.2,.8,2.03,0,.7-.2,1.33-.61,1.88-.41,.55-.97,.98-1.69,1.29s-1.56,.47-2.5,.47c-1.32,0-2.39-.28-3.22-.85-.83-.56-1.34-1.36-1.53-2.41l2.21-.34c.14,.58,.42,1.01,.85,1.3s.99,.44,1.67,.44c.75,0,1.35-.16,1.8-.47s.67-.7,.67-1.15c0-.37-.14-.68-.41-.92-.27-.25-.69-.44-1.25-.57l-1.99-.44c-1.1-.25-1.91-.65-2.43-1.19-.52-.55-.78-1.24-.78-2.07,0-.69,.19-1.3,.58-1.82,.39-.52,.92-.93,1.61-1.22,.68-.29,1.47-.44,2.35-.44,1.27,0,2.27,.27,3,.82,.73,.55,1.21,1.28,1.45,2.2Z" fill="#dcdfe3"/><path d="M265.14,103.21v-6.88h2.29v11.75h-2.25v-2.03h-.12c-.27,.63-.7,1.15-1.3,1.56-.59,.42-1.33,.62-2.21,.62-.75,0-1.42-.17-2-.5s-1.03-.83-1.36-1.49-.49-1.47-.49-2.44v-7.47h2.29v7.2c0,.8,.22,1.44,.67,1.91,.44,.47,1.02,.71,1.73,.71,.43,0,.85-.11,1.28-.32,.43-.21,.78-.54,1.06-.97,.28-.43,.42-.98,.42-1.65Z" fill="#dcdfe3"/><path d="M270.5,112.49v-16.15h2.23v1.9h.19c.13-.25,.32-.53,.57-.85,.25-.32,.6-.6,1.04-.85,.44-.24,1.03-.36,1.76-.36,.95,0,1.79,.24,2.54,.72,.74,.48,1.33,1.17,1.76,2.07s.64,1.99,.64,3.26-.21,2.36-.63,3.26c-.42,.91-1,1.6-1.74,2.09-.74,.49-1.58,.73-2.53,.73-.71,0-1.3-.12-1.75-.36-.45-.24-.8-.52-1.06-.84-.25-.32-.45-.61-.59-.86h-.14v6.23h-2.29Zm2.24-10.28c0,.83,.12,1.55,.36,2.17,.24,.62,.59,1.11,1.04,1.46,.45,.35,1.01,.52,1.67,.52s1.25-.18,1.71-.55c.46-.36,.81-.86,1.04-1.49,.24-.63,.36-1.33,.36-2.12s-.12-1.47-.35-2.09c-.23-.62-.58-1.1-1.04-1.46-.46-.36-1.04-.54-1.72-.54s-1.22,.17-1.68,.51c-.46,.34-.8,.82-1.04,1.43-.23,.61-.35,1.33-.35,2.14Z" fill="#dcdfe3"/><path d="M283.79,112.49v-16.15h2.23v1.9h.19c.13-.25,.32-.53,.57-.85,.25-.32,.6-.6,1.04-.85,.44-.24,1.03-.36,1.76-.36,.95,0,1.79,.24,2.54,.72,.74,.48,1.33,1.17,1.76,2.07s.64,1.99,.64,3.26-.21,2.36-.63,3.26c-.42,.91-1,1.6-1.74,2.09-.74,.49-1.58,.73-2.53,.73-.71,0-1.3-.12-1.75-.36-.45-.24-.8-.52-1.06-.84-.25-.32-.45-.61-.59-.86h-.14v6.23h-2.29Zm2.24-10.28c0,.83,.12,1.55,.36,2.17,.24,.62,.59,1.11,1.04,1.46,.45,.35,1.01,.52,1.67,.52s1.25-.18,1.71-.55c.46-.36,.81-.86,1.04-1.49,.24-.63,.36-1.33,.36-2.12s-.12-1.47-.35-2.09c-.23-.62-.58-1.1-1.04-1.46-.46-.36-1.04-.54-1.72-.54s-1.22,.17-1.68,.51c-.46,.34-.8,.82-1.04,1.43-.23,.61-.35,1.33-.35,2.14Z" fill="#dcdfe3"/><path d="M302.03,108.32c-1.1,0-2.06-.25-2.88-.76-.82-.5-1.46-1.21-1.91-2.12s-.68-1.97-.68-3.18,.23-2.28,.68-3.2c.45-.91,1.09-1.62,1.91-2.13s1.78-.76,2.88-.76,2.06,.25,2.88,.76c.82,.5,1.46,1.21,1.91,2.13,.45,.91,.68,1.98,.68,3.2s-.23,2.27-.68,3.18c-.45,.91-1.09,1.61-1.91,2.12-.82,.5-1.78,.76-2.88,.76Zm0-1.92c.71,0,1.31-.19,1.77-.57,.47-.38,.82-.88,1.04-1.51,.23-.63,.34-1.32,.34-2.07s-.11-1.44-.34-2.07c-.23-.63-.57-1.14-1.04-1.52-.47-.38-1.06-.57-1.77-.57s-1.31,.19-1.79,.57c-.47,.38-.82,.89-1.05,1.52-.23,.63-.34,1.32-.34,2.07s.11,1.45,.34,2.07c.23,.63,.58,1.13,1.05,1.51,.47,.38,1.07,.57,1.79,.57Z" fill="#dcdfe3"/><path d="M310.06,108.08v-11.75h2.21v1.87h.12c.21-.63,.59-1.13,1.14-1.5s1.16-.55,1.85-.55c.14,0,.31,0,.51,.02,.2,0,.35,.02,.46,.04v2.19c-.09-.03-.25-.05-.49-.09-.23-.03-.47-.05-.7-.05-.54,0-1.02,.11-1.44,.34-.42,.23-.75,.54-1,.94-.24,.4-.37,.86-.37,1.37v7.17h-2.29Z" fill="#dcdfe3"/><path d="M324.5,96.34v1.84h-6.42v-1.84h6.42Zm-4.7-2.81h2.29v11.11c0,.44,.07,.78,.2,1,.13,.22,.3,.37,.52,.45,.21,.08,.44,.12,.69,.12,.18,0,.34-.01,.48-.04,.14-.03,.25-.05,.32-.06l.41,1.89c-.13,.05-.32,.1-.57,.16-.25,.05-.55,.08-.92,.09-.6,0-1.16-.1-1.68-.32-.52-.22-.94-.57-1.26-1.04-.32-.47-.48-1.06-.48-1.77v-11.59Z" fill="#dcdfe3"/></g><g><path d="M248.45,238.53v6.97h-2.29v-11.75h2.19v1.91h.15c.27-.62,.69-1.12,1.27-1.5s1.31-.57,2.19-.57c.8,0,1.5,.17,2.1,.5,.6,.33,1.07,.83,1.4,1.49,.33,.66,.5,1.47,.5,2.44v7.47h-2.29v-7.2c0-.85-.22-1.52-.67-2-.44-.48-1.05-.72-1.83-.72-.53,0-1,.11-1.41,.34-.41,.23-.73,.56-.97,1.01-.24,.44-.36,.97-.36,1.59Z" fill="#dcdfe3"/><path d="M264.08,245.74c-1.16,0-2.15-.25-2.99-.75-.83-.5-1.48-1.2-1.93-2.1-.45-.91-.68-1.97-.68-3.19s.23-2.26,.68-3.18,1.08-1.63,1.9-2.15c.81-.51,1.77-.77,2.86-.77,.66,0,1.31,.11,1.93,.33,.62,.22,1.18,.56,1.67,1.03,.49,.47,.88,1.08,1.17,1.82,.29,.75,.43,1.65,.43,2.72v.81h-9.34v-1.71h7.1c0-.6-.12-1.14-.37-1.6-.25-.47-.59-.83-1.03-1.1s-.96-.41-1.55-.41c-.64,0-1.2,.16-1.68,.47-.48,.31-.84,.72-1.1,1.22-.26,.5-.39,1.05-.39,1.63v1.34c0,.79,.14,1.45,.42,2,.28,.55,.67,.97,1.17,1.26s1.08,.43,1.75,.43c.43,0,.83-.06,1.19-.19,.36-.12,.67-.31,.93-.56,.26-.25,.46-.56,.6-.93l2.16,.39c-.17,.64-.48,1.19-.93,1.67-.45,.48-1,.85-1.67,1.11-.67,.26-1.43,.39-2.29,.39Z" fill="#dcdfe3"/><path d="M274.19,245.51l-3.46-11.75h2.36l2.3,8.63h.11l2.31-8.63h2.36l2.29,8.59h.11l2.29-8.59h2.36l-3.45,11.75h-2.33l-2.39-8.48h-.18l-2.39,8.48h-2.32Z" fill="#dcdfe3"/><path d="M298.21,236.63l-2.07,.37c-.09-.27-.22-.52-.41-.76-.19-.24-.44-.44-.75-.59-.32-.15-.71-.23-1.19-.23-.65,0-1.19,.14-1.62,.43-.43,.29-.65,.66-.65,1.11,0,.39,.15,.71,.44,.95,.29,.24,.76,.44,1.41,.59l1.87,.43c1.08,.25,1.89,.63,2.42,1.16,.53,.52,.8,1.2,.8,2.03,0,.7-.2,1.33-.61,1.88-.41,.55-.97,.98-1.69,1.29s-1.56,.47-2.5,.47c-1.32,0-2.39-.28-3.22-.85-.83-.56-1.34-1.36-1.53-2.41l2.21-.34c.14,.58,.42,1.01,.85,1.3s.99,.44,1.67,.44c.75,0,1.35-.16,1.8-.47s.67-.7,.67-1.15c0-.37-.14-.68-.41-.92-.27-.25-.69-.44-1.25-.57l-1.99-.44c-1.1-.25-1.91-.65-2.43-1.19-.52-.55-.78-1.24-.78-2.07,0-.69,.19-1.3,.58-1.82,.39-.52,.92-.93,1.61-1.22,.68-.29,1.47-.44,2.35-.44,1.27,0,2.27,.27,3,.82,.73,.55,1.21,1.28,1.45,2.2Z" fill="#dcdfe3"/></g><g><path d="M256.21,297.66l-4.26,11.75h-2.45l-4.27-11.75h2.46l2.97,9.04h.12l2.97-9.04h2.46Z" fill="#dcdfe3"/><path d="M258.33,309.41v-1.71l5.3-5.49c.57-.6,1.03-1.12,1.4-1.57s.65-.88,.83-1.29,.28-.84,.28-1.3c0-.52-.12-.97-.37-1.35-.24-.38-.58-.67-1-.88-.42-.21-.9-.31-1.43-.31-.56,0-1.05,.11-1.47,.34s-.74,.55-.96,.97c-.22,.42-.34,.91-.34,1.47h-2.26c0-.95,.22-1.79,.66-2.5,.44-.71,1.04-1.27,1.81-1.66,.76-.39,1.63-.59,2.61-.59s1.85,.2,2.6,.58c.75,.39,1.34,.92,1.76,1.59,.42,.67,.63,1.43,.63,2.27,0,.58-.11,1.15-.33,1.71s-.59,1.17-1.13,1.85-1.28,1.5-2.23,2.47l-3.11,3.26v.12h7.05v2.03h-10.31Z" fill="#dcdfe3"/><path d="M278.49,301.8v1.98h-6.94v-1.98h6.94Z" fill="#dcdfe3"/><path d="M285.93,309.64c-.95,0-1.79-.24-2.54-.73-.74-.49-1.32-1.18-1.74-2.09s-.63-1.99-.63-3.26,.21-2.36,.64-3.26c.43-.9,1.01-1.59,1.75-2.07,.74-.48,1.59-.72,2.53-.72,.73,0,1.32,.12,1.76,.36,.45,.24,.79,.52,1.04,.85,.25,.32,.44,.6,.58,.85h.14v-5.82h2.29v15.66h-2.23v-1.83h-.19c-.14,.25-.33,.54-.59,.86-.26,.32-.61,.6-1.06,.84s-1.03,.36-1.74,.36Zm.5-1.95c.66,0,1.21-.17,1.67-.52,.46-.35,.8-.83,1.04-1.46,.24-.62,.36-1.35,.36-2.17s-.12-1.53-.35-2.14c-.23-.61-.58-1.09-1.03-1.43-.45-.34-1.01-.51-1.68-.51s-1.26,.18-1.72,.54c-.46,.36-.8,.84-1.04,1.46-.23,.62-.35,1.31-.35,2.09s.12,1.49,.35,2.12c.23,.63,.58,1.12,1.04,1.49s1.03,.55,1.71,.55Z" fill="#dcdfe3"/><path d="M300.08,309.65c-1.16,0-2.15-.25-2.99-.75-.83-.5-1.48-1.2-1.93-2.1-.45-.91-.68-1.97-.68-3.19s.23-2.26,.68-3.18,1.08-1.63,1.9-2.15c.81-.51,1.77-.77,2.86-.77,.66,0,1.31,.11,1.93,.33,.62,.22,1.18,.56,1.67,1.03,.49,.47,.88,1.08,1.17,1.82,.29,.75,.43,1.65,.43,2.72v.81h-9.34v-1.71h7.1c0-.6-.12-1.14-.37-1.6-.25-.47-.59-.83-1.03-1.1s-.96-.41-1.55-.41c-.64,0-1.2,.16-1.68,.47-.48,.31-.84,.72-1.1,1.22-.26,.5-.39,1.05-.39,1.63v1.34c0,.79,.14,1.45,.42,2,.28,.55,.67,.97,1.17,1.26s1.08,.43,1.75,.43c.43,0,.83-.06,1.19-.19,.36-.12,.67-.31,.93-.56,.26-.25,.46-.56,.6-.93l2.16,.39c-.17,.64-.48,1.19-.93,1.67-.45,.48-1,.85-1.67,1.11-.67,.26-1.43,.39-2.29,.39Z" fill="#dcdfe3"/><path d="M317.36,297.66l-4.26,11.75h-2.45l-4.27-11.75h2.46l2.97,9.04h.12l2.97-9.04h2.46Z" fill="#dcdfe3"/></g><g><path d="M308.67,164.72v2.45h-7.25v-2.45h7.25Zm-5.59,11.75v-12.6c0-.85,.17-1.56,.5-2.12,.33-.56,.79-.98,1.37-1.26,.58-.28,1.24-.42,1.98-.42,.5,0,.96,.04,1.37,.11,.42,.08,.72,.15,.93,.21l-.58,2.45c-.13-.04-.28-.08-.47-.12-.19-.04-.38-.05-.57-.05-.48,0-.81,.11-1,.33s-.28,.53-.28,.93v12.54h-3.25Z" fill="#fff"/><path d="M315.6,176.7c-1.21,0-2.25-.25-3.12-.74s-1.54-1.19-2.01-2.1c-.47-.9-.7-1.98-.7-3.22s.23-2.27,.7-3.18c.47-.91,1.13-1.62,1.98-2.13,.85-.51,1.86-.77,3.01-.77,.77,0,1.5,.12,2.17,.37,.67,.25,1.26,.62,1.76,1.11,.5,.49,.89,1.12,1.17,1.86s.42,1.62,.42,2.62v.89h-9.92v-2.02h6.85c0-.47-.1-.88-.31-1.25-.2-.36-.49-.65-.84-.85s-.78-.31-1.25-.31-.93,.11-1.31,.34c-.38,.23-.68,.53-.89,.91-.21,.38-.32,.8-.33,1.27v1.92c0,.58,.11,1.08,.32,1.51,.22,.42,.52,.75,.92,.98s.87,.34,1.42,.34c.36,0,.69-.05,.99-.15s.56-.25,.77-.46,.38-.45,.49-.75l3.01,.2c-.15,.72-.47,1.36-.94,1.89-.47,.54-1.08,.96-1.82,1.25-.74,.3-1.6,.45-2.57,.45Z" fill="#fff"/><path d="M326.46,176.69c-.75,0-1.42-.13-2-.39-.59-.26-1.05-.65-1.39-1.17s-.51-1.16-.51-1.94c0-.65,.12-1.2,.36-1.64,.24-.44,.57-.8,.98-1.07,.41-.27,.88-.47,1.41-.61,.53-.14,1.08-.23,1.66-.29,.68-.07,1.23-.14,1.65-.2,.42-.06,.72-.16,.91-.29,.19-.13,.28-.32,.28-.57v-.05c0-.48-.15-.86-.46-1.12-.3-.26-.73-.4-1.29-.4-.59,0-1.05,.13-1.4,.39-.35,.26-.58,.58-.69,.97l-3.01-.24c.15-.71,.45-1.33,.9-1.86,.45-.52,1.03-.92,1.74-1.21s1.54-.42,2.47-.42c.65,0,1.28,.08,1.88,.23,.6,.15,1.13,.39,1.6,.71,.47,.32,.83,.73,1.1,1.23,.27,.5,.41,1.1,.41,1.8v7.92h-3.09v-1.63h-.09c-.19,.37-.44,.69-.76,.97-.32,.28-.7,.49-1.14,.65-.44,.16-.96,.23-1.54,.23Zm.93-2.25c.48,0,.9-.1,1.27-.29s.65-.45,.86-.78c.21-.33,.31-.7,.31-1.11v-1.25c-.1,.07-.24,.13-.42,.18s-.37,.1-.59,.15c-.22,.04-.44,.08-.66,.11-.22,.03-.42,.06-.6,.09-.38,.06-.72,.15-1,.27-.29,.12-.51,.29-.67,.49-.16,.21-.24,.46-.24,.77,0,.44,.16,.78,.49,1.01,.32,.23,.74,.35,1.24,.35Z" fill="#fff"/><path d="M341.86,164.72v2.45h-7.07v-2.45h7.07Zm-5.47-2.81h3.26v10.95c0,.3,.04,.53,.14,.7,.09,.17,.22,.28,.39,.35,.17,.07,.36,.1,.58,.1,.15,0,.31-.01,.46-.04,.15-.03,.27-.05,.35-.06l.51,2.42c-.16,.05-.39,.11-.69,.18-.3,.07-.66,.11-1.08,.13-.79,.03-1.47-.07-2.06-.31-.59-.24-1.05-.61-1.37-1.12s-.49-1.14-.48-1.91v-11.38Z" fill="#fff"/><path d="M351.51,171.47v-6.75h3.26v11.75h-3.13v-2.13h-.12c-.26,.69-.71,1.24-1.32,1.66-.61,.42-1.36,.63-2.24,.63-.79,0-1.48-.18-2.07-.54-.6-.36-1.06-.86-1.4-1.52s-.5-1.45-.51-2.36v-7.48h3.26v6.9c0,.69,.19,1.24,.56,1.64,.37,.4,.86,.6,1.48,.6,.39,0,.76-.09,1.1-.27,.34-.18,.62-.45,.83-.81,.21-.36,.32-.8,.31-1.32Z" fill="#fff"/><path d="M357.37,176.47v-11.75h3.16v2.05h.12c.21-.73,.57-1.28,1.08-1.66,.5-.37,1.09-.56,1.74-.56,.16,0,.34,0,.53,.03s.35,.05,.5,.08v2.89c-.15-.05-.36-.09-.63-.12-.27-.04-.52-.05-.74-.05-.48,0-.91,.1-1.28,.31-.37,.21-.67,.49-.89,.86-.22,.37-.33,.79-.33,1.27v6.65h-3.26Z" fill="#fff"/><path d="M370.97,176.7c-1.21,0-2.25-.25-3.12-.74s-1.54-1.19-2.01-2.1c-.47-.9-.7-1.98-.7-3.22s.23-2.27,.7-3.18c.47-.91,1.13-1.62,1.98-2.13,.85-.51,1.86-.77,3.01-.77,.77,0,1.5,.12,2.17,.37,.67,.25,1.26,.62,1.76,1.11,.5,.49,.89,1.12,1.17,1.86s.42,1.62,.42,2.62v.89h-9.92v-2.02h6.85c0-.47-.1-.88-.31-1.25-.2-.36-.49-.65-.84-.85s-.78-.31-1.25-.31-.93,.11-1.31,.34c-.38,.23-.68,.53-.89,.91-.21,.38-.32,.8-.33,1.27v1.92c0,.58,.11,1.08,.32,1.51,.22,.42,.52,.75,.92,.98s.87,.34,1.42,.34c.36,0,.69-.05,.99-.15s.56-.25,.77-.46,.38-.45,.49-.75l3.01,.2c-.15,.72-.47,1.36-.94,1.89-.47,.54-1.08,.96-1.82,1.25-.74,.3-1.6,.45-2.57,.45Z" fill="#fff"/><path d="M385.81,168.75v2.58h-7.14v-2.58h7.14Z" fill="#fff"/><path d="M388.59,176.47v-11.75h3.16v2.05h.12c.21-.73,.57-1.28,1.08-1.66,.5-.37,1.09-.56,1.74-.56,.16,0,.34,0,.53,.03s.35,.05,.5,.08v2.89c-.15-.05-.36-.09-.63-.12-.27-.04-.52-.05-.74-.05-.48,0-.91,.1-1.28,.31-.38,.21-.67,.49-.89,.86-.22,.37-.33,.79-.33,1.27v6.65h-3.26Z" fill="#fff"/><path d="M402.19,176.7c-1.21,0-2.25-.25-3.12-.74s-1.54-1.19-2.01-2.1c-.47-.9-.7-1.98-.7-3.22s.23-2.27,.7-3.18c.47-.91,1.13-1.62,1.98-2.13,.85-.51,1.86-.77,3.01-.77,.78,0,1.5,.12,2.17,.37,.67,.25,1.26,.62,1.76,1.11,.5,.49,.89,1.12,1.17,1.86s.42,1.62,.42,2.62v.89h-9.92v-2.02h6.85c0-.47-.1-.88-.31-1.25-.2-.36-.49-.65-.84-.85s-.78-.31-1.25-.31-.93,.11-1.31,.34c-.38,.23-.68,.53-.89,.91-.21,.38-.32,.8-.33,1.27v1.92c0,.58,.11,1.08,.33,1.51,.22,.42,.52,.75,.92,.98,.4,.23,.87,.34,1.41,.34,.36,0,.69-.05,.99-.15s.56-.25,.77-.46c.21-.2,.38-.45,.49-.75l3.01,.2c-.15,.72-.46,1.36-.94,1.89-.47,.54-1.08,.96-1.82,1.25-.74,.3-1.6,.45-2.57,.45Z" fill="#fff"/><path d="M420.72,180.88h-3.25v-6.29h-.1c-.15,.33-.37,.65-.65,.97-.28,.32-.64,.58-1.08,.79-.44,.21-.98,.31-1.61,.31-.89,0-1.7-.23-2.42-.69-.72-.46-1.29-1.14-1.71-2.04-.42-.9-.63-2-.63-3.32s.22-2.47,.65-3.36c.43-.89,1.01-1.56,1.73-2.01,.72-.45,1.51-.67,2.37-.67,.66,0,1.21,.11,1.65,.33,.44,.22,.8,.5,1.07,.83,.27,.33,.48,.65,.62,.97h.14v-1.97h3.21v16.15Zm-3.18-10.28c0-.7-.1-1.31-.29-1.82-.19-.52-.47-.91-.84-1.19s-.81-.42-1.34-.42-.99,.15-1.35,.44c-.37,.29-.64,.69-.83,1.21-.19,.51-.28,1.11-.28,1.79s.1,1.29,.29,1.81c.19,.52,.47,.93,.83,1.22s.81,.44,1.35,.44,.97-.14,1.33-.43c.36-.29,.64-.69,.84-1.21,.2-.52,.29-1.13,.29-1.83Z" fill="#fff"/><path d="M430.86,171.47v-6.75h3.26v11.75h-3.13v-2.13h-.12c-.27,.69-.71,1.24-1.32,1.66-.61,.42-1.36,.63-2.24,.63-.79,0-1.48-.18-2.07-.54-.6-.36-1.06-.86-1.4-1.52s-.5-1.45-.51-2.36v-7.48h3.26v6.9c0,.69,.19,1.24,.56,1.64,.37,.4,.86,.6,1.48,.6,.39,0,.76-.09,1.1-.27,.34-.18,.62-.45,.83-.81,.21-.36,.31-.8,.31-1.32Z" fill="#fff"/><path d="M442.07,176.7c-1.21,0-2.25-.25-3.12-.74s-1.54-1.19-2.01-2.1c-.47-.9-.7-1.98-.7-3.22s.23-2.27,.7-3.18c.47-.91,1.13-1.62,1.98-2.13,.85-.51,1.86-.77,3.01-.77,.78,0,1.5,.12,2.17,.37,.67,.25,1.26,.62,1.76,1.11,.5,.49,.89,1.12,1.17,1.86,.28,.75,.42,1.62,.42,2.62v.89h-9.92v-2.02h6.85c0-.47-.1-.88-.31-1.25-.2-.36-.49-.65-.85-.85s-.78-.31-1.25-.31-.93,.11-1.31,.34c-.38,.23-.68,.53-.89,.91-.21,.38-.32,.8-.33,1.27v1.92c0,.58,.11,1.08,.33,1.51,.22,.42,.52,.75,.92,.98s.87,.34,1.42,.34c.36,0,.69-.05,.99-.15s.56-.25,.77-.46,.38-.45,.49-.75l3.01,.2c-.15,.72-.47,1.36-.94,1.89-.47,.54-1.08,.96-1.82,1.25-.74,.3-1.6,.45-2.57,.45Z" fill="#fff"/><path d="M459.37,168.07l-2.98,.18c-.05-.25-.16-.49-.33-.69-.17-.21-.39-.37-.66-.5-.27-.12-.6-.19-.97-.19-.5,0-.93,.11-1.28,.32-.35,.21-.52,.49-.52,.84,0,.28,.11,.52,.34,.71,.22,.19,.61,.35,1.16,.47l2.13,.43c1.14,.24,1.99,.61,2.55,1.13,.56,.52,.84,1.2,.84,2.05,0,.77-.23,1.45-.68,2.03-.45,.58-1.07,1.03-1.85,1.36-.78,.32-1.68,.49-2.7,.49-1.55,0-2.79-.33-3.71-.98-.92-.65-1.46-1.54-1.62-2.66l3.2-.17c.1,.47,.33,.83,.7,1.08,.37,.25,.85,.37,1.43,.37s1.03-.11,1.38-.33c.35-.22,.53-.51,.53-.86,0-.3-.13-.54-.38-.73-.24-.19-.62-.34-1.13-.44l-2.03-.41c-1.15-.23-2-.63-2.56-1.19-.56-.57-.84-1.29-.84-2.16,0-.75,.21-1.4,.62-1.95s.99-.97,1.74-1.26,1.62-.44,2.63-.44c1.48,0,2.65,.31,3.51,.94,.85,.63,1.35,1.48,1.5,2.56Z" fill="#fff"/><path d="M467.94,164.72v2.45h-7.07v-2.45h7.07Zm-5.47-2.81h3.26v10.95c0,.3,.05,.53,.14,.7,.09,.17,.22,.28,.39,.35,.17,.07,.36,.1,.58,.1,.15,0,.31-.01,.46-.04,.15-.03,.27-.05,.35-.06l.51,2.42c-.16,.05-.39,.11-.69,.18-.3,.07-.66,.11-1.08,.13-.79,.03-1.47-.07-2.06-.31-.59-.24-1.05-.61-1.37-1.12-.33-.5-.49-1.14-.48-1.91v-11.38Z" fill="#fff"/><path d="M479.67,168.07l-2.98,.18c-.05-.25-.16-.49-.33-.69-.17-.21-.39-.37-.66-.5-.27-.12-.6-.19-.97-.19-.5,0-.93,.11-1.28,.32-.35,.21-.52,.49-.52,.84,0,.28,.11,.52,.34,.71,.22,.19,.61,.35,1.16,.47l2.13,.43c1.14,.24,1.99,.61,2.55,1.13,.56,.52,.84,1.2,.84,2.05,0,.77-.23,1.45-.68,2.03-.45,.58-1.07,1.03-1.85,1.36-.78,.32-1.68,.49-2.7,.49-1.55,0-2.79-.33-3.71-.98-.92-.65-1.46-1.54-1.62-2.66l3.2-.17c.1,.47,.33,.83,.7,1.08,.37,.25,.85,.37,1.43,.37s1.03-.11,1.38-.33c.35-.22,.53-.51,.53-.86,0-.3-.13-.54-.38-.73-.24-.19-.62-.34-1.13-.44l-2.03-.41c-1.15-.23-2-.63-2.56-1.19-.56-.57-.84-1.29-.84-2.16,0-.75,.21-1.4,.62-1.95s.99-.97,1.74-1.26,1.62-.44,2.63-.44c1.48,0,2.65,.31,3.51,.94,.85,.63,1.35,1.48,1.5,2.56Z" fill="#fff"/></g></g><path id="e" d="M113.96,264.22h-22.2c-16.02,0-29.01-12.99-29.01-29.01v-22.2c0-16.02,12.99-29.01,29.01-29.01h22.2c16.02,0,29.01,12.99,29.01,29.01v22.2c0,16.02-12.99,29.01-29.01,29.01h0" fill="#fff"/><path id="f" d="M125.58,221.71c-1.9-2.41-4.46-4.2-7.37-5.15v-.19c0-8.81-6.89-15.99-15.39-15.99s-15.39,7.16-15.39,15.99v.22c-6.5,2.24-10.83,8.38-10.77,15.25,0,8.81,6.9,15.99,15.39,15.99,4.08,0,7.98-1.67,10.81-4.6,2.83,2.93,6.73,4.59,10.8,4.6,8.48,0,15.39-7.16,15.39-15.99,0-3.67-1.23-7.24-3.48-10.14m-11.92,22.08c-6.47-.14-11.61-5.48-11.5-11.95,.03-1.07-.81-1.97-1.89-2-1.07-.03-1.97,.81-2,1.89,0,.03,0,.05,0,.08v.04c0,2.87,.75,5.69,2.17,8.18-2.13,2.4-5.18,3.78-8.4,3.79-6.6-.26-11.74-5.81-11.49-12.41,.24-6.24,5.25-11.24,11.49-11.49,1.36,0,2.71,.25,3.99,.73,.01,0,.03,.01,.04,.01,.45,.15,.87,.36,1.26,.63,.76,.7,1.94,.64,2.64-.12,.03-.03,.06-.07,.09-.1,.7-.85,.6-2.1-.21-2.84-.75-.59-1.6-1.05-2.5-1.37-1.69-.64-3.49-.97-5.3-.97-.25,0-.49,0-.74,.02,.04-6.35,5.23-11.47,11.58-11.43s11.47,5.23,11.43,11.58c0,.11,0,.23,0,.34,.01,3.83-1.78,7.44-4.84,9.74-.87,.67-1.07,1.89-.46,2.8,.36,.53,.95,.84,1.59,.85,.41,0,.8-.13,1.13-.38,2.9-2.18,4.99-5.27,5.91-8.77,4.57,1.84,7.56,6.29,7.53,11.22,.09,6.47-5.06,11.8-11.53,11.93" fill="#0178d4"/></g></g></svg>