<?xml version="1.0" encoding="UTF-8"?><svg id="a" xmlns="http://www.w3.org/2000/svg" width="781" height="689.05" xmlns:xlink="http://www.w3.org/1999/xlink" viewBox="0 0 781 689.05"><defs><style>.e{fill:url(#d);}.f{fill:url(#b);}.g{opacity:.1;}.h{fill:#fff;}.i{fill:#c93738;}.j{opacity:.3;}.k{opacity:.4;}.l{opacity:.5;}</style><linearGradient id="b" x1="390.5" y1="127.15" x2="390.5" y2="295.16" gradientTransform="matrix(1, 0, 0, 1, 0, 0)" gradientUnits="userSpaceOnUse"><stop offset="0" stop-color="#ed654e"/><stop offset="1" stop-color="#a13928"/></linearGradient><linearGradient id="d" x1="390.5" y1="337.02" x2="390.5" y2="664.6" gradientTransform="matrix(1, 0, 0, 1, 0, 0)" gradientUnits="userSpaceOnUse"><stop offset="0" stop-color="#fff" stop-opacity="0"/><stop offset=".05" stop-color="#fff" stop-opacity=".23"/><stop offset=".12" stop-color="#fff" stop-opacity=".5"/><stop offset=".17" stop-color="#fff" stop-opacity=".71"/><stop offset=".23" stop-color="#fff" stop-opacity=".87"/><stop offset=".27" stop-color="#fff" stop-opacity=".96"/><stop offset=".29" stop-color="#fff"/></linearGradient></defs><g class="g"><path class="i" d="M394.84,685.29l-3.34,3.02,.67,.74,3.34-3.02-.67-.74Zm-9.36-.82l-.67,.74,3.35,3.02,.67-.75-3.35-3.01Zm16.04-5.21l-3.34,3.02,.67,.74,3.34-3.02-.67-.74Zm-22.72-.82l-.67,.75,3.34,3.01,.67-.74-3.34-3.02Zm29.4-5.21l-3.34,3.02,.67,.74,3.34-3.02-.67-.74Zm-36.08-.81l-.67,.74,3.34,3.01,.67-.74-3.34-3.01Zm42.76-5.22l-3.34,3.02,.67,.74,3.34-3.02-.67-.74Zm-49.45-.81l-.67,.74,3.34,3.02,.67-.75-3.34-3.01Zm56.13-5.22l-3.34,3.02,.67,.74,3.34-3.02-.67-.74Zm-62.81-.81l-.67,.75,3.34,3.01,.67-.74-3.34-3.02Zm69.5-5.22l-3.35,3.02,.67,.74,3.35-3.02-.67-.74Zm-76.19-.8l-.67,.74,3.34,3.01,.67-.74-3.34-3.01Zm82.87-5.23l-3.34,3.02,.67,.74,3.34-3.02-.67-.74Zm-89.55-.8l-.67,.74,3.34,3.02,.67-.75-3.34-3.01Zm96.23-5.23l-3.34,3.02,.67,.74,3.34-3.02-.67-.74Zm-102.92-.79l-.67,.74,3.34,3.01,.67-.74-3.34-3.01Zm109.6-5.24l-3.34,3.02,.67,.74,3.34-3.02-.67-.74Zm-116.28-.79l-.67,.74,3.34,3.02,.67-.75-3.34-3.01Zm122.96-5.24l-3.34,3.02,.67,.74,3.34-3.02-.67-.74Zm-129.65-.79l-.67,.75,3.35,3.01,.67-.74-3.35-3.02Zm136.33-5.24l-3.34,3.02,.67,.74,3.34-3.02-.67-.74Zm-143.01-.78l-.67,.74,3.34,3.01,.67-.74-3.34-3.01Zm149.69-5.25l-3.34,3.02,.67,.74,3.34-3.02-.67-.74Zm-156.38-.78l-.67,.74,3.35,3.02,.67-.75-3.35-3.01Zm163.06-5.25l-3.34,3.02,.67,.74,3.34-3.02-.67-.74Zm-169.74-.78l-.67,.75,3.34,3.01,.67-.74-3.34-3.02Zm176.43-5.25l-3.35,3.02,.67,.74,3.35-3.02-.67-.74Zm-183.12-.77l-.67,.74,3.35,3.01,.67-.74-3.35-3.01Zm189.8-5.26l-3.34,3.02,.67,.74,3.34-3.02-.67-.74Zm-196.48-.77l-.67,.74,3.34,3.02,.67-.75-3.34-3.01Zm203.16-5.26l-3.34,3.02,.67,.74,3.34-3.02-.67-.74Zm-209.85-.76l-.67,.74,3.35,3.01,.67-.74-3.35-3.01Zm216.53-5.27l-3.34,3.02,.67,.74,3.34-3.02-.67-.74Zm-223.21-.76l-.67,.74,3.34,3.02,.67-.75-3.34-3.01Zm229.89-5.27l-3.34,3.02,.67,.74,3.34-3.02-.67-.74Zm-236.57-.76l-.67,.75,3.34,3.01,.67-.74-3.34-3.02Zm243.25-5.27l-3.34,3.02,.67,.74,3.34-3.02-.67-.74Zm-249.94-.75l-.67,.74,3.34,3.01,.67-.74-3.34-3.01Zm256.62-5.28l-3.34,3.02,.67,.74,3.34-3.02-.67-.74Zm-263.3-.75l-.67,.74,3.34,3.02,.67-.75-3.34-3.01Zm269.98-5.28l-3.34,3.02,.67,.74,3.34-3.02-.67-.74Zm-276.67-.75l-.67,.75,3.34,3.01,.67-.74-3.34-3.02Zm283.36-5.28l-3.35,3.02,.67,.74,3.34-3.02-.66-.74Zm-290.04-.74l-.67,.74,3.34,3.01,.67-.74-3.34-3.01Zm296.72-5.29l-3.34,3.02,.67,.74,3.34-3.02-.67-.74Zm-303.41-.74l-.67,.74,3.34,3.02,.67-.74-3.34-3.02Zm310.09-5.29l-3.34,3.02,.67,.74,3.34-3.02-.67-.74Zm-316.77-.73l-.67,.74,3.34,3.01,.67-.74-3.34-3.01Zm323.45-5.3l-3.34,3.02,.67,.74,3.34-3.02-.67-.74Zm-330.14-.73l-.67,.74,3.35,3.02,.67-.75-3.35-3.01Zm336.82-5.3l-3.34,3.02,.67,.74,3.34-3.02-.67-.74Zm-343.5-.73l-.67,.75,3.34,3.01,.67-.74-3.34-3.02Zm350.18-5.3l-3.34,3.02,.67,.74,3.34-3.02-.67-.74Zm-356.87-.72l-.67,.74,3.35,3.01,.67-.74-3.35-3.01Zm363.55-5.31l-3.34,3.02,.67,.74,3.34-3.02-.67-.74Zm-370.23-.72l-.67,.74,3.34,3.02,.67-.75-3.34-3.01Zm376.91-5.31l-3.34,3.02,.67,.74,3.34-3.02-.67-.74Zm-383.6-.72l-.67,.75,3.35,3.01,.67-.74-3.35-3.02Zm390.28-5.31l-3.34,3.02,.67,.74,3.34-3.02-.67-.74Zm-396.96-.71l-.67,.74,3.34,3.01,.67-.74-3.34-3.01Zm403.65-5.32l-3.34,3.02,.67,.74,3.34-3.02-.67-.74Zm-410.33-.71l-.67,.74,3.34,3.02,.67-.75-3.34-3.01Zm-4.95-4.52l-.67,.74,3.31,3.05,.67-.74-3.31-3.05Zm421.91-.85l-3.32,3.05,.68,.73,3.31-3.04-.67-.74Zm-428.53-5.25l-.68,.74,3.31,3.05,.68-.73-3.31-3.06Zm435.15-.84l-3.31,3.05,.68,.73,3.31-3.05-.68-.73Zm-441.75-5.27l-.68,.74,3.3,3.06,.68-.74-3.3-3.06Zm448.35-.85l-3.3,3.06,.68,.74,3.3-3.07-.68-.73Zm-454.94-5.28l-.68,.73c1.1,1.03,2.2,2.05,3.29,3.07l.68-.73c-1.09-1.02-2.19-2.04-3.29-3.07Zm461.52-.86c-1.1,1.03-2.19,2.06-3.28,3.07l.68,.74c1.09-1.02,2.19-2.05,3.29-3.08l-.69-.73Zm-468.07-5.31l-.69,.72c1.1,1.04,2.19,2.07,3.28,3.09l.68-.72c-1.08-1.03-2.18-2.06-3.27-3.09Zm474.62-.86c-1.09,1.03-2.18,2.06-3.27,3.09l.69,.73c1.08-1.03,2.17-2.06,3.27-3.1l-.69-.72Zm-481.13-5.36l-.69,.72c1.09,1.05,2.17,2.09,3.25,3.12l.69-.72c-1.08-1.04-2.16-2.07-3.25-3.12Zm487.63-.86c-1.08,1.04-2.16,2.08-3.24,3.11l.69,.73c1.08-1.04,2.16-2.08,3.25-3.12l-.7-.72Zm-494.09-5.4l-.7,.71c1.08,1.06,2.16,2.1,3.23,3.15l.7-.72c-1.08-1.04-2.15-2.09-3.23-3.14Zm500.54-.87c-1.07,1.05-2.14,2.1-3.22,3.14l.7,.72c1.07-1.04,2.15-2.09,3.22-3.15l-.7-.71Zm-506.94-5.45l-.7,.71c1.06,1.06,2.13,2.12,3.19,3.17l.7-.71c-1.06-1.05-2.12-2.11-3.19-3.17Zm513.34-.88c-1.07,1.06-2.13,2.12-3.19,3.17l.7,.71c1.07-1.05,2.13-2.11,3.2-3.17l-.71-.71Zm-519.67-5.51l-.72,.7c1.06,1.08,2.11,2.15,3.17,3.21l.71-.7c-1.06-1.07-2.11-2.13-3.16-3.21Zm526-.88c-1.05,1.07-2.11,2.14-3.16,3.2l.71,.71c1.05-1.07,2.11-2.14,3.16-3.21l-.71-.7Zm-532.27-5.57l-.72,.69c1.04,1.09,2.08,2.17,3.13,3.24l.71-.69c-1.04-1.08-2.08-2.16-3.12-3.24Zm538.52-.9c-1.04,1.09-2.08,2.17-3.12,3.24l.72,.7c1.04-1.08,2.08-2.16,3.12-3.25l-.72-.69Zm-544.7-5.63l-.73,.68c1.02,1.1,2.05,2.19,3.08,3.28l.73-.69c-1.03-1.08-2.06-2.18-3.08-3.27Zm550.88-.91c-1.03,1.1-2.05,2.19-3.08,3.28l.73,.69c1.02-1.09,2.05-2.19,3.08-3.29l-.73-.68Zm-556.98-5.71l-.74,.68c1.01,1.11,2.03,2.22,3.04,3.32l.74-.68c-1.02-1.1-2.03-2.2-3.04-3.32Zm563.06-.91c-1.01,1.11-2.02,2.22-3.03,3.32l.74,.68c1.01-1.11,2.02-2.22,3.03-3.33l-.74-.67Zm-569.06-5.78l-.75,.66c.99,1.13,1.99,2.25,2.99,3.36l.75-.66c-1-1.12-2-2.24-2.99-3.36Zm575.05-.93c-.99,1.13-1.99,2.25-2.98,3.36l.74,.67c1-1.12,2-2.24,2.99-3.37l-.75-.66Zm-580.95-5.86l-.76,.65c.98,1.14,1.96,2.28,2.94,3.41l.76-.65c-.99-1.13-1.97-2.27-2.94-3.41Zm586.84-.94c-.98,1.14-1.95,2.28-2.93,3.41l.75,.66c.98-1.14,1.96-2.28,2.94-3.42l-.76-.65Zm-592.63-5.94l-.77,.64c.96,1.16,1.92,2.31,2.88,3.46l.77-.65c-.96-1.14-1.92-2.29-2.88-3.45Zm598.4-.95c-.95,1.16-1.91,2.31-2.87,3.45l.76,.65c.97-1.15,1.93-2.31,2.88-3.47l-.77-.63Zm-604.08-6.03l-.78,.63c.94,1.17,1.89,2.34,2.83,3.5l.78-.63c-.95-1.16-1.89-2.32-2.83-3.5Zm609.74-.96c-.94,1.17-1.87,2.34-2.82,3.5l.78,.63c.94-1.16,1.88-2.33,2.82-3.51l-.78-.62Zm-615.28-6.11l-.79,.61c.91,1.19,1.83,2.38,2.76,3.56l.79-.62c-.93-1.18-1.85-2.36-2.76-3.55Zm620.81-.98c-.91,1.19-1.83,2.38-2.75,3.55l.79,.62c.92-1.18,1.84-2.37,2.75-3.56l-.79-.61Zm-626.23-6.2l-.8,.6c.89,1.21,1.79,2.41,2.7,3.61l.79-.61c-.9-1.19-1.79-2.39-2.69-3.6Zm631.63-.99c-.89,1.21-1.79,2.41-2.69,3.61l.8,.6c.9-1.2,1.8-2.41,2.69-3.62l-.8-.59Zm-636.9-6.29l-.82,.58c.87,1.23,1.75,2.45,2.63,3.66l.81-.58c-.88-1.22-1.76-2.43-2.62-3.66Zm642.15-1.01c-.86,1.23-1.73,2.45-2.61,3.66l.81,.59c.88-1.22,1.75-2.44,2.62-3.67l-.82-.58Zm-647.28-6.37l-.83,.56c.85,1.25,1.7,2.48,2.55,3.71l.82-.57c-.85-1.22-1.7-2.46-2.54-3.7Zm652.39-1.02c-.84,1.24-1.69,2.48-2.54,3.71l.83,.57c.85-1.24,1.7-2.48,2.54-3.72l-.83-.56Zm-657.36-6.47l-.84,.55c.82,1.26,1.64,2.51,2.47,3.76l.83-.55c-.82-1.25-1.65-2.5-2.46-3.76Zm662.31-1.04c-.81,1.26-1.63,2.52-2.46,3.77l.84,.55c.82-1.25,1.64-2.51,2.46-3.77l-.84-.55Zm-667.12-6.55l-.85,.52c.79,1.28,1.58,2.56,2.39,3.82l.84-.53c-.8-1.27-1.59-2.54-2.38-3.81Zm671.91-1.05c-.79,1.27-1.58,2.55-2.38,3.81l.85,.54c.8-1.27,1.59-2.55,2.38-3.83l-.85-.52Zm-676.55-6.65l-.86,.51c.76,1.29,1.53,2.58,2.3,3.87l.86-.52c-.78-1.28-1.54-2.57-2.3-3.86Zm681.16-1.07c-.75,1.3-1.52,2.59-2.28,3.87l.85,.52c.77-1.29,1.54-2.58,2.3-3.88l-.87-.51Zm-685.62-6.73l-.88,.48c.74,1.32,1.47,2.63,2.22,3.93l.87-.5c-.75-1.3-1.48-2.6-2.21-3.91Zm690.06-1.08c-.73,1.31-1.46,2.62-2.2,3.92l.87,.49c.74-1.3,1.47-2.61,2.2-3.93l-.87-.48Zm-694.34-6.83l-.88,.47c.7,1.33,1.4,2.66,2.12,3.97l.88-.47c-.72-1.32-1.42-2.64-2.12-3.97Zm698.59-1.09c-.7,1.33-1.4,2.65-2.1,3.97l.88,.47c.71-1.32,1.41-2.64,2.1-3.98l-.88-.46Zm-702.67-6.91l-.9,.44c.67,1.35,1.34,2.69,2.02,4.03l.89-.46c-.68-1.33-1.35-2.67-2.01-4.01Zm706.73-1.11c-.67,1.35-1.33,2.69-2.01,4.02l.89,.45c.68-1.33,1.35-2.68,2.01-4.03l-.89-.44Zm-710.62-6.99l-.91,.42c.64,1.36,1.28,2.72,1.93,4.07l.9-.43c-.65-1.35-1.29-2.7-1.92-4.06Zm714.47-1.12c-.62,1.36-1.26,2.72-1.9,4.06l.9,.43c.65-1.35,1.28-2.71,1.91-4.08l-.91-.41Zm-718.16-7.08l-.91,.4c.6,1.38,1.2,2.76,1.82,4.12l.91-.41c-.61-1.36-1.22-2.73-1.82-4.11Zm721.82-1.13c-.59,1.37-1.19,2.75-1.8,4.11l.91,.41c.61-1.37,1.21-2.75,1.81-4.13l-.92-.39Zm-725.29-7.15l-.93,.37c.57,1.4,1.14,2.79,1.72,4.17l.92-.39c-.58-1.38-1.15-2.76-1.71-4.15Zm728.73-1.15c-.55,1.39-1.12,2.78-1.69,4.16l.92,.38c.58-1.38,1.14-2.77,1.7-4.17l-.93-.37Zm-731.99-7.23l-.94,.36c.53,1.41,1.07,2.81,1.61,4.2l.93-.36c-.54-1.39-1.08-2.79-1.6-4.2Zm735.23-1.16c-.53,1.41-1.06,2.81-1.59,4.21l.93,.36c.54-1.4,1.07-2.81,1.59-4.22l-.93-.35Zm-738.28-7.29l-.94,.33c.49,1.42,.99,2.84,1.5,4.25l.94-.34c-.51-1.41-1.01-2.82-1.5-4.24Zm741.29-1.17c-.49,1.42-.98,2.83-1.48,4.24l.94,.34c.5-1.42,1-2.83,1.48-4.26l-.94-.32Zm-744.11-7.36l-.95,.3c.45,1.44,.92,2.87,1.39,4.29l.95-.32c-.47-1.41-.93-2.84-1.39-4.27Zm746.9-1.18c-.45,1.43-.91,2.86-1.37,4.28l.95,.31c.47-1.43,.92-2.86,1.37-4.29l-.95-.3ZM14.65,268.58l-.96,.28c.41,1.44,.84,2.88,1.27,4.32l.96-.29c-.43-1.43-.86-2.87-1.27-4.31Zm752.05-1.19c-.41,1.44-.83,2.88-1.25,4.31l.96,.29c.42-1.44,.84-2.88,1.25-4.33l-.96-.27ZM12.28,259.91l-.96,.26c.38,1.45,.76,2.9,1.16,4.35l.96-.27c-.39-1.44-.78-2.88-1.16-4.34Zm756.77-1.2c-.37,1.46-.75,2.91-1.14,4.35l.97,.26c.38-1.45,.77-2.9,1.14-4.36l-.97-.25ZM10.14,251.19l-.97,.22c.34,1.47,.69,2.93,1.05,4.39l.97-.24c-.36-1.45-.71-2.91-1.05-4.37Zm761.02-1.21c-.33,1.46-.68,2.92-1.03,4.37l.97,.24c.36-1.46,.7-2.92,1.03-4.39l-.97-.22ZM8.22,242.41l-.98,.2c.3,1.48,.61,2.95,.93,4.41l.98-.21c-.32-1.46-.63-2.93-.93-4.4Zm764.81-1.22c-.3,1.48-.6,2.94-.91,4.4l.98,.21c.31-1.46,.61-2.93,.91-4.41l-.98-.2ZM6.55,233.58l-.99,.18c.26,1.48,.54,2.96,.82,4.43l.98-.19c-.28-1.46-.55-2.94-.81-4.42Zm768.14-1.22c-.26,1.48-.52,2.96-.8,4.42l.99,.19c.27-1.47,.54-2.95,.8-4.44l-.99-.17ZM5.08,224.72l-.99,.15c.22,1.49,.46,2.97,.7,4.45l.99-.16c-.24-1.48-.48-2.96-.7-4.44Zm771.03-1.23c-.22,1.49-.45,2.97-.69,4.44l.99,.16c.24-1.48,.47-2.96,.69-4.45l-.99-.15ZM3.85,215.82l-.99,.12c.18,1.5,.38,2.99,.59,4.47l.99-.14c-.21-1.48-.4-2.96-.59-4.45Zm773.45-1.23c-.18,1.49-.37,2.97-.57,4.45l.99,.14c.2-1.49,.39-2.98,.58-4.47l-1-.12ZM2.84,206.89l-.99,.1c.15,1.5,.31,2.99,.48,4.48l.99-.11c-.17-1.48-.33-2.97-.48-4.47Zm775.44-1.24c-.15,1.5-.3,2.99-.46,4.47l.99,.11c.16-1.49,.32-2.98,.46-4.48l-.99-.1ZM2.07,197.94l-1,.08c.12,1.5,.24,2.99,.37,4.49l.99-.09c-.13-1.49-.25-2.98-.36-4.48Zm776.97-1.24c-.11,1.5-.23,2.99-.35,4.48l1,.08c.12-1.49,.24-2.99,.34-4.49l-.99-.07ZM1.51,188.97l-1,.05c.07,1.51,.16,3.01,.25,4.5l1-.06c-.09-1.49-.18-2.99-.25-4.49Zm778.06-1.24c-.07,1.5-.15,3-.24,4.49l1,.06c.09-1.5,.17-3,.24-4.5l-1-.05ZM1.15,179.99l-1,.03c.04,1.51,.09,3.01,.15,4.5l1-.04c-.06-1.49-.11-2.98-.15-4.49Zm778.73-1.24c-.04,1.5-.08,3-.13,4.49l1,.04c.05-1.5,.09-3,.13-4.51l-1-.02ZM1.03,172.28l-.02-1.28H0l.02,1.29c0,1.08,.02,2.15,.03,3.23l1-.02c-.01-1.07-.03-2.14-.03-3.22Zm778.97-2.52c0,.78,0,1.56-.01,2.34-.01,.72-.01,1.44-.02,2.16h1c.01-.71,.01-1.43,.02-2.16,.01-.77,.01-1.55,.01-2.33h-1ZM.07,162l-.03,2.16-.03,2.34H1.01c.01-.77,.02-1.54,.03-2.32l.03-2.16-1-.02Zm780.85-1.24l-1,.02c.03,1.49,.06,2.99,.07,4.49h1c-.01-1.51-.04-3.01-.07-4.51ZM.34,152.99c-.06,1.5-.12,3-.17,4.5l1,.04c.05-1.5,.1-3,.17-4.49l-1-.05Zm780.25-1.22l-1,.05c.08,1.49,.14,2.98,.19,4.48l1-.04c-.05-1.5-.12-3-.19-4.49ZM.86,144c-.11,1.49-.2,2.99-.29,4.49l1,.06c.09-1.5,.18-2.99,.29-4.48l-1-.07Zm779.18-1.21l-.99,.08c.11,1.49,.21,2.98,.3,4.47l1-.06c-.09-1.5-.19-2.99-.31-4.49ZM1.62,135.02c-.15,1.49-.29,2.98-.41,4.48l.99,.09c.13-1.5,.27-2.99,.41-4.48l-.99-.09Zm777.64-1.19l-.99,.1c.15,1.49,.29,2.98,.42,4.47l.99-.09c-.13-1.5-.27-2.99-.42-4.48ZM2.61,126.06c-.19,1.49-.36,2.98-.53,4.47l1,.11c.16-1.49,.34-2.97,.52-4.46l-.99-.12Zm775.64-1.17l-.99,.13c.18,1.48,.36,2.97,.53,4.45l.99-.11c-.16-1.49-.34-2.98-.53-4.47ZM3.84,117.13c-.22,1.48-.44,2.97-.65,4.46l1,.14c.2-1.49,.41-2.97,.64-4.45l-.99-.15Zm773.16-1.15l-.99,.16c.23,1.47,.45,2.95,.65,4.43l.99-.13c-.21-1.49-.42-2.97-.65-4.46ZM5.32,108.24c-.27,1.48-.52,2.96-.77,4.44l.99,.16c.25-1.48,.5-2.95,.76-4.42l-.98-.18Zm770.21-1.13l-.99,.18c.27,1.47,.53,2.94,.77,4.42l.99-.17c-.25-1.48-.51-2.96-.77-4.43ZM7.02,99.39c-.3,1.47-.59,2.94-.88,4.42l.98,.19c.29-1.47,.58-2.94,.88-4.41l-.98-.2Zm766.79-1.12l-.98,.21c.31,1.46,.6,2.93,.89,4.39l.98-.19c-.29-1.47-.58-2.94-.89-4.41ZM8.95,90.59c-.34,1.46-.67,2.93-1,4.39l.98,.22c.32-1.46,.66-2.93,1-4.38l-.98-.23Zm762.91-1.11l-.98,.23c.34,1.46,.68,2.92,1,4.38l.98-.22c-.33-1.46-.66-2.93-1-4.39ZM11.14,81.84c-.38,1.46-.75,2.91-1.12,4.37l.97,.24c.36-1.45,.74-2.9,1.12-4.35l-.97-.26Zm758.55-1.09l-.97,.25c.38,1.45,.75,2.9,1.11,4.35l.97-.24c-.36-1.46-.73-2.91-1.11-4.36ZM13.55,73.14c-.42,1.45-.83,2.9-1.24,4.35l.97,.27c.4-1.45,.81-2.9,1.23-4.34l-.96-.28Zm753.73-1.07l-.96,.28c.42,1.44,.83,2.88,1.23,4.32l.96-.27c-.4-1.45-.81-2.89-1.23-4.33ZM16.19,64.49c-.46,1.44-.91,2.87-1.35,4.32l.95,.29c.44-1.44,.89-2.87,1.35-4.3l-.95-.31Zm748.44-1.03l-.96,.3c.46,1.43,.91,2.86,1.35,4.29l.95-.29c-.44-1.44-.89-2.87-1.34-4.3ZM19.07,55.91c-.5,1.43-.99,2.85-1.47,4.28l.95,.32c.48-1.43,.97-2.85,1.46-4.26l-.94-.34Zm742.69-.99l-.95,.33c.5,1.41,.98,2.83,1.46,4.25l.95-.32c-.48-1.42-.97-2.84-1.46-4.26ZM22.17,47.42c-.53,1.41-1.06,2.82-1.58,4.24l.94,.34c.52-1.41,1.04-2.82,1.58-4.22l-.94-.36Zm736.49-.96l-.93,.35c.53,1.4,1.05,2.81,1.57,4.21l.94-.34c-.52-1.41-1.04-2.82-1.58-4.22ZM25.51,39.02c-.57,1.39-1.13,2.79-1.69,4.19l.93,.37c.55-1.4,1.12-2.79,1.69-4.18l-.93-.38Zm729.84-.94l-.92,.38c.57,1.39,1.13,2.77,1.68,4.17l.93-.37c-.55-1.4-1.12-2.79-1.69-4.18ZM29.06,30.71c-.61,1.38-1.21,2.76-1.8,4.14l.92,.4c.59-1.39,1.19-2.76,1.8-4.14l-.92-.4Zm722.75-.92l-.91,.41c.6,1.37,1.2,2.74,1.79,4.12l.92-.4c-.59-1.38-1.19-2.75-1.8-4.13ZM32.82,22.5c-.64,1.36-1.28,2.72-1.91,4.09l.91,.42c.63-1.37,1.26-2.73,1.91-4.08l-.91-.43Zm715.22-.9l-.9,.43c.64,1.35,1.27,2.71,1.9,4.07l.91-.42c-.63-1.36-1.27-2.72-1.91-4.08ZM36.82,14.39c-.69,1.34-1.36,2.69-2.02,4.04l.89,.44c.67-1.34,1.34-2.69,2.02-4.02l-.89-.46Zm707.25-.88l-.89,.45c.68,1.34,1.35,2.68,2.01,4.02l.9-.44c-.67-1.35-1.34-2.69-2.02-4.03ZM41.01,6.4c-.72,1.32-1.42,2.65-2.12,3.98l.88,.47c.7-1.33,1.41-2.66,2.12-3.98l-.88-.47Zm698.87-.87l-.88,.47c.71,1.32,1.42,2.64,2.12,3.97l.88-.47c-.7-1.33-1.4-2.65-2.12-3.97ZM44.57,0c-.47,.81-.93,1.62-1.38,2.44l.87,.49c.55-.98,1.1-1.96,1.66-2.93h-1.15ZM736.82,0h-1.16c.4,.69,.79,1.38,1.17,2.06l.87-.48c-.29-.53-.59-1.06-.88-1.58Z"/></g><g class="g"><path class="i" d="M394.62,608.94l-3.34,3.02,.67,.74,3.34-3.01-.67-.75Zm-9.36-1.18l-.67,.75,3.35,3.01,.67-.74-3.35-3.02Zm16.04-4.84l-3.34,3.01,.67,.74,3.34-3.01-.67-.74Zm-22.72-1.18l-.67,.74,3.34,3.01,.67-.74-3.34-3.01Zm29.4-4.86l-3.34,3.02,.67,.74,3.34-3.01-.67-.75Zm-36.09-1.17l-.67,.74,3.35,3.02,.67-.75-3.35-3.01Zm42.77-4.86l-3.34,3.02,.67,.74,3.34-3.01-.67-.75Zm-49.45-1.16l-.67,.74,3.34,3.01,.67-.74-3.34-3.01Zm56.13-4.87l-3.34,3.02,.67,.74,3.34-3.01-.67-.75Zm-62.82-1.16l-.66,.74,3.34,3.02,.67-.75-3.35-3.01Zm69.5-4.87l-3.34,3.02,.67,.74,3.34-3.01-.67-.75Zm-76.18-1.16l-.67,.75,3.34,3.01,.67-.74-3.34-3.02Zm82.87-4.87l-3.34,3.02,.67,.74,3.34-3.01-.67-.75Zm-89.55-1.15l-.67,.74,3.34,3.01,.67-.74-3.34-3.01Zm96.23-4.88l-3.34,3.02,.67,.74,3.34-3.01-.67-.75Zm-102.92-1.15l-.67,.74,3.34,3.02,.67-.75-3.34-3.01Zm109.6-4.88l-3.34,3.02,.67,.74,3.34-3.01-.67-.75Zm-116.28-1.15l-.67,.75,3.34,3.01,.67-.74-3.34-3.02Zm122.96-4.88l-3.34,3.02,.67,.74,3.34-3.01-.67-.75Zm-129.65-1.14l-.67,.74,3.34,3.01,.67-.74-3.34-3.01Zm136.33-4.89l-3.34,3.02,.67,.74,3.34-3.01-.67-.75Zm-143.01-1.14l-.67,.75,3.34,3.01,.67-.74-3.34-3.02Zm149.69-4.89l-3.34,3.02,.67,.74,3.34-3.01-.67-.75Zm-156.38-1.13l-.67,.74,3.34,3.01,.67-.74-3.34-3.01Zm163.06-4.9l-3.34,3.02,.67,.74,3.34-3.01-.67-.75Zm-169.74-1.13l-.67,.74,3.34,3.02,.67-.75-3.34-3.01Zm176.42-4.9l-3.34,3.02,.67,.74,3.34-3.01-.67-.75Zm-183.11-1.13l-.67,.75,3.35,3.01,.67-.74-3.35-3.02Zm189.8-4.9l-3.35,3.02,.67,.74,3.35-3.01-.67-.75Zm-196.48-1.12l-.67,.74,3.34,3.01,.67-.74-3.34-3.01Zm203.16-4.91l-3.34,3.02,.67,.74,3.34-3.01-.67-.75Zm-209.85-1.12l-.67,.74,3.35,3.02,.67-.75-3.35-3.01Zm216.53-4.91l-3.34,3.02,.67,.74,3.34-3.01-.67-.75Zm-223.21-1.12l-.67,.75,3.34,3.01,.67-.74-3.34-3.02Zm229.89-4.91l-3.34,3.02,.67,.74,3.34-3.01-.67-.75Zm-236.58-1.11l-.67,.74,3.35,3.01,.67-.74-3.35-3.01Zm243.26-4.92l-3.34,3.02,.67,.74,3.34-3.01-.67-.75Zm-249.94-1.11l-.67,.75,3.34,3.01,.67-.74-3.34-3.02Zm256.62-4.92l-3.34,3.02,.67,.74,3.34-3.01-.67-.75Zm-263.31-1.1l-.67,.74,3.35,3.01,.67-.74-3.35-3.01Zm269.99-4.93l-3.34,3.02,.67,.74,3.34-3.01-.67-.75Zm-276.67-1.1l-.67,.74,3.34,3.02,.67-.75-3.34-3.01Zm283.35-4.93l-3.34,3.02,.67,.74,3.34-3.01-.67-.75Zm-290.03-1.1l-.67,.75,3.34,3.01,.67-.74-3.34-3.02Zm296.72-4.93l-3.35,3.02,.67,.74,3.35-3.01-.67-.75Zm-303.41-1.09l-.67,.74,3.34,3.01,.67-.74-3.34-3.01Zm310.09-4.94l-3.34,3.02,.67,.74,3.34-3.01-.67-.75Zm-316.77-1.09l-.67,.74,3.34,3.02,.67-.75-3.34-3.01Zm323.45-4.94l-3.34,3.02,.67,.74,3.34-3.01-.67-.75Zm-330.14-1.08l-.67,.74,3.34,3.01,.67-.74-3.34-3.01Zm336.79-4.97l-3.32,3.04,.68,.73,3.31-3.04-.67-.73Zm-343.19-.87l-.68,.73,3.31,3.05,.68-.73-3.31-3.05Zm349.81-5.23l-3.31,3.05,.68,.73,3.31-3.04-.68-.74Zm-356.43-.87l-.68,.74,3.31,3.05,.67-.74-3.3-3.05Zm363.04-5.24l-3.3,3.06,.67,.73,3.31-3.05-.68-.74Zm-369.65-.87l-.68,.73,3.3,3.06,.68-.73-3.3-3.06Zm376.24-5.26c-1.1,1.03-2.2,2.05-3.29,3.07l.68,.73c1.09-1.02,2.19-2.04,3.29-3.07l-.68-.73Zm-382.82-.88l-.69,.73c1.1,1.03,2.2,2.05,3.29,3.07l.68-.73c-1.09-1.02-2.19-2.04-3.28-3.07Zm389.37-5.29c-1.09,1.04-2.18,2.07-3.27,3.09l.68,.73c1.09-1.03,2.18-2.06,3.28-3.09l-.69-.73Zm-395.92-.88l-.69,.72c1.09,1.04,2.18,2.07,3.27,3.1l.69-.73c-1.09-1.03-2.18-2.06-3.27-3.09Zm402.43-5.33c-1.08,1.05-2.17,2.08-3.25,3.11l.69,.73c1.08-1.03,2.17-2.07,3.25-3.12l-.69-.72Zm-408.93-.89l-.7,.72c1.09,1.04,2.17,2.08,3.25,3.12l.69-.73c-1.08-1.03-2.16-2.07-3.24-3.11Zm415.39-5.37c-1.08,1.05-2.15,2.1-3.22,3.14l.69,.72c1.08-1.04,2.15-2.09,3.23-3.14l-.7-.72Zm-421.84-.9l-.7,.71c1.07,1.06,2.14,2.1,3.22,3.15l.69-.72c-1.07-1.04-2.14-2.09-3.21-3.14Zm428.24-5.42c-1.07,1.06-2.13,2.11-3.19,3.17l.7,.71c1.07-1.06,2.13-2.11,3.19-3.18l-.7-.7Zm-434.63-.92l-.71,.71c1.06,1.06,2.13,2.12,3.19,3.18l.7-.71c-1.06-1.06-2.12-2.11-3.18-3.18Zm440.95-5.48c-1.05,1.08-2.1,2.14-3.15,3.21l.71,.7c1.05-1.06,2.11-2.13,3.16-3.21l-.72-.7Zm-447.26-.92l-.72,.69c1.05,1.08,2.1,2.15,3.15,3.22l.71-.7c-1.05-1.07-2.1-2.14-3.14-3.21Zm453.51-5.55c-1.04,1.09-2.07,2.17-3.11,3.25l.72,.69c1.04-1.08,2.08-2.16,3.11-3.25l-.72-.69Zm-459.75-.94l-.72,.69c1.03,1.09,2.07,2.18,3.11,3.26l.72-.7c-1.04-1.08-2.07-2.16-3.11-3.25Zm465.91-5.62c-1.02,1.1-2.05,2.2-3.07,3.29l.73,.69c1.02-1.1,2.05-2.19,3.07-3.3l-.73-.68Zm-472.05-.95l-.73,.68c1.01,1.1,2.04,2.2,3.06,3.3l.73-.68c-1.02-1.1-2.04-2.2-3.06-3.3Zm478.1-5.7c-1,1.12-2.01,2.23-3.01,3.34l.74,.67c1.01-1.1,2.01-2.22,3.02-3.34l-.75-.67Zm-484.14-.96l-.75,.66c1.01,1.13,2.01,2.24,3.02,3.35l.74-.67c-1.01-1.11-2.01-2.22-3.01-3.34Zm490.09-5.78c-.98,1.13-1.97,2.26-2.96,3.38l.75,.67,2.97-3.39-.76-.66Zm-496.02-.98l-.76,.65c.99,1.14,1.97,2.27,2.96,3.4l.75-.66c-.99-1.12-1.97-2.25-2.95-3.39Zm501.85-5.87c-.96,1.15-1.93,2.3-2.9,3.44l.76,.65c.97-1.14,1.94-2.29,2.91-3.44l-.77-.65Zm-507.66-.99l-.77,.64c.96,1.15,1.93,2.3,2.9,3.45l.76-.65c-.97-1.14-1.93-2.29-2.89-3.44Zm513.36-5.96c-.94,1.17-1.89,2.33-2.84,3.49l.78,.63c.95-1.16,1.9-2.32,2.84-3.49l-.78-.63Zm-519.04-1.01l-.78,.62c.94,1.18,1.88,2.34,2.83,3.51l.78-.63c-.95-1.16-1.89-2.33-2.83-3.5Zm524.6-6.05c-.92,1.18-1.84,2.37-2.77,3.54l.79,.62c.93-1.18,1.85-2.36,2.77-3.55l-.79-.61Zm-530.13-1.03l-.8,.6c.92,1.2,1.84,2.38,2.76,3.57l.79-.62c-.92-1.18-1.84-2.36-2.75-3.55Zm535.53-6.15c-.89,1.2-1.78,2.41-2.68,3.6l.8,.6c.9-1.2,1.8-2.4,2.69-3.61l-.81-.59Zm-540.92-1.05l-.81,.59c.89,1.21,1.78,2.42,2.68,3.62l.8-.6c-.89-1.2-1.78-2.4-2.67-3.61Zm546.17-6.25c-.86,1.23-1.73,2.45-2.6,3.66l.81,.59c.88-1.22,1.75-2.45,2.61-3.68l-.82-.57Zm-551.39-1.07l-.82,.57c.86,1.24,1.72,2.47,2.59,3.69l.82-.58c-.87-1.22-1.73-2.45-2.59-3.68Zm556.47-6.35c-.84,1.25-1.67,2.49-2.52,3.72l.83,.57c.84-1.24,1.68-2.48,2.52-3.73l-.83-.56Zm-561.52-1.08l-.83,.55c.82,1.25,1.66,2.5,2.5,3.74l.83-.56c-.84-1.24-1.67-2.48-2.5-3.73Zm566.41-6.46c-.8,1.27-1.61,2.53-2.42,3.79l.83,.54c.82-1.26,1.63-2.52,2.43-3.79l-.84-.54Zm-571.27-1.1l-.85,.53c.8,1.28,1.6,2.55,2.41,3.81l.84-.54c-.81-1.26-1.61-2.53-2.4-3.8Zm575.97-6.56c-.77,1.29-1.55,2.57-2.33,3.85l.85,.52c.79-1.28,1.57-2.56,2.34-3.86l-.86-.51Zm-580.64-1.11l-.87,.5c.77,1.3,1.54,2.59,2.32,3.87l.86-.52c-.78-1.28-1.55-2.56-2.31-3.85Zm585.13-6.67c-.73,1.31-1.47,2.61-2.22,3.91l.87,.5c.75-1.3,1.49-2.61,2.22-3.92l-.87-.49Zm-589.6-1.13l-.87,.48c.73,1.32,1.46,2.63,2.21,3.93l.87-.5c-.75-1.3-1.48-2.6-2.21-3.91Zm593.88-6.77c-.7,1.33-1.4,2.65-2.11,3.97l.88,.47c.71-1.32,1.42-2.64,2.12-3.97l-.89-.47Zm-598.13-1.15l-.88,.46c.69,1.34,1.39,2.67,2.1,3.99l.88-.48c-.71-1.31-1.41-2.64-2.1-3.97Zm602.19-6.87c-.66,1.35-1.33,2.69-2,4.03l.89,.45c.68-1.34,1.34-2.68,2-4.04l-.89-.44Zm-606.21-1.16l-.9,.43c.66,1.36,1.32,2.71,1.99,4.05l.89-.45c-.66-1.34-1.33-2.68-1.98-4.03Zm610.03-6.97c-.62,1.37-1.25,2.73-1.88,4.08l.9,.43c.64-1.36,1.27-2.72,1.89-4.09l-.91-.42Zm-613.82-1.18l-.91,.41c.62,1.38,1.24,2.74,1.87,4.1l.91-.42c-.63-1.36-1.25-2.72-1.87-4.09Zm617.39-7.06c-.57,1.39-1.16,2.77-1.75,4.14l.91,.4c.6-1.38,1.19-2.76,1.77-4.15l-.93-.39Zm-620.93-1.19l-.92,.38c.57,1.39,1.15,2.78,1.74,4.15l.92-.39c-.59-1.37-1.17-2.75-1.74-4.14Zm624.26-7.15c-.53,1.4-1.08,2.8-1.63,4.19l.93,.37c.56-1.4,1.1-2.8,1.64-4.2l-.94-.36Zm-627.55-1.21l-.94,.35c.53,1.41,1.07,2.82,1.62,4.21l.93-.37c-.54-1.39-1.08-2.78-1.61-4.19Zm630.62-7.23c-.49,1.42-.99,2.83-1.5,4.23l.94,.34c.51-1.4,1.02-2.82,1.51-4.24l-.95-.33Zm-633.66-1.22l-.94,.32c.48,1.43,.98,2.84,1.49,4.25l.94-.33c-.51-1.41-1-2.82-1.49-4.24Zm636.47-7.31c-.44,1.43-.9,2.86-1.37,4.28l.95,.31c.47-1.42,.93-2.85,1.38-4.29l-.96-.3Zm-639.24-1.23l-.96,.29c.45,1.44,.9,2.87,1.36,4.3l.95-.31c-.46-1.42-.91-2.85-1.35-4.28Zm641.78-7.38c-.4,1.44-.81,2.88-1.23,4.31l.96,.29c.42-1.44,.83-2.89,1.24-4.34l-.97-.26Zm-644.28-1.25l-.97,.27c.4,1.45,.81,2.89,1.23,4.33l.96-.28c-.42-1.43-.83-2.87-1.22-4.32Zm646.56-7.44c-.36,1.45-.73,2.91-1.11,4.35l.97,.25c.38-1.45,.75-2.9,1.11-4.37l-.97-.23Zm-648.8-1.26l-.97,.23c.35,1.47,.72,2.93,1.09,4.38l.97-.25c-.37-1.45-.74-2.9-1.09-4.36Zm650.8-7.5c-.32,1.47-.64,2.93-.97,4.39l.97,.22c.34-1.46,.66-2.93,.97-4.4l-.97-.21Zm-652.76-1.26l-.98,.2c.31,1.48,.63,2.94,.95,4.4l.98-.21c-.33-1.46-.64-2.92-.95-4.39Zm654.48-7.55c-.26,1.47-.54,2.95-.83,4.41l.98,.19c.29-1.47,.57-2.94,.84-4.43l-.99-.17Zm-656.17-1.27l-.98,.17c.26,1.48,.53,2.96,.81,4.43l.98-.19c-.28-1.46-.55-2.93-.81-4.41Zm657.63-7.6c-.22,1.49-.46,2.97-.7,4.44l.99,.16c.24-1.47,.47-2.96,.7-4.45l-.99-.15Zm-659.04-1.27l-.99,.14c.21,1.49,.44,2.98,.67,4.45l.99-.15c-.23-1.48-.46-2.96-.67-4.44Zm660.22-7.63c-.18,1.49-.36,2.98-.56,4.46l.99,.13c.2-1.48,.39-2.97,.56-4.47l-.99-.12Zm-661.37-1.28l-.99,.11c.17,1.5,.35,2.99,.54,4.48l.99-.13c-.19-1.48-.37-2.97-.54-4.46Zm662.29-7.65c-.14,1.49-.28,2.98-.43,4.47l1,.1c.15-1.49,.29-2.99,.42-4.49l-.99-.08Zm-663.17-1.29l-.99,.08c.12,1.51,.26,3,.4,4.49l1-.1c-.15-1.48-.28-2.97-.41-4.47Zm663.82-7.67c-.09,1.5-.19,2.99-.3,4.48l1,.07c.11-1.49,.21-2.99,.3-4.5l-1-.05Zm-664.43-1.29l-1,.05c.08,1.51,.17,3.01,.27,4.5l1-.07c-.1-1.48-.19-2.98-.27-4.48Zm664.82-7.69c-.04,1.51-.1,3-.16,4.49l1,.04c.06-1.49,.12-2.99,.16-4.5l-1-.03Zm-665.18-1.29l-1,.03c.04,1.51,.09,3.01,.15,4.5l.99-.04c-.05-1.49-.1-2.98-.14-4.49Zm665.33-7.69v1.41c-.02,1.03-.03,2.06-.05,3.08l1,.02c.02-1.03,.03-2.06,.04-3.09v-1.42h-.99Zm-665.43,1.54c-.01-.94-.02-1.89-.02-2.83h-1c0,.95,.01,1.9,.02,2.84v1.66h1.01v-1.67Zm666.33-10.55l-1,.03c.04,1.49,.06,2.99,.08,4.49h1c-.02-1.52-.04-3.02-.08-4.52Zm-667.23-1.3c-.04,1.5-.08,3.01-.1,4.51h1c.02-1.49,.06-2.98,.1-4.48l-1-.03Zm666.86-7.69l-.99,.06c.08,1.49,.15,2.98,.21,4.48l1-.04c-.06-1.5-.13-3-.22-4.5Zm-666.45-1.31c-.09,1.5-.17,3-.24,4.5l1,.05c.06-1.5,.14-3,.23-4.49l-.99-.06Zm665.81-7.66l-1,.09c.13,1.48,.25,2.97,.36,4.46l1-.07c-.11-1.49-.23-2.99-.36-4.48Zm-665.12-1.33c-.14,1.5-.27,2.99-.38,4.49l.99,.08c.12-1.5,.25-2.99,.38-4.48l-.99-.09Zm664.19-7.62l-.99,.12c.18,1.48,.34,2.96,.49,4.45l1-.1c-.15-1.49-.32-2.98-.5-4.47Zm-663.22-1.34c-.18,1.49-.36,2.98-.52,4.48l.99,.11c.17-1.5,.34-2.98,.53-4.47l-1-.12Zm662.02-7.58l-.99,.15c.22,1.47,.43,2.95,.63,4.44l1-.14c-.21-1.48-.42-2.97-.64-4.45Zm-660.75-1.35c-.24,1.49-.46,2.97-.67,4.46l.99,.14c.21-1.48,.43-2.96,.66-4.44l-.98-.16Zm659.26-7.53l-.98,.18c.27,1.47,.53,2.94,.78,4.42l.98-.17c-.25-1.48-.51-2.96-.78-4.43Zm-657.72-1.35c-.28,1.48-.55,2.96-.81,4.44l.99,.17c.25-1.48,.52-2.95,.8-4.42l-.98-.19Zm655.96-7.48l-.98,.21c.32,1.46,.62,2.93,.92,4.39l.98-.19c-.3-1.48-.6-2.95-.92-4.41Zm-654.13-1.34c-.33,1.46-.65,2.93-.95,4.4l.98,.21c.3-1.47,.62-2.94,.95-4.39l-.98-.22Zm652.08-7.43l-.97,.24c.37,1.45,.72,2.9,1.06,4.36l.97-.22c-.34-1.47-.69-2.93-1.06-4.38Zm-649.97-1.34c-.37,1.46-.74,2.91-1.09,4.38l.97,.23c.35-1.46,.72-2.91,1.09-4.36l-.97-.25Zm647.65-7.37l-.96,.28c.41,1.44,.81,2.88,1.19,4.32l.97-.25c-.39-1.45-.79-2.9-1.2-4.35Zm-645.25-1.34c-.43,1.45-.84,2.9-1.24,4.36l.96,.26c.4-1.45,.81-2.9,1.24-4.34l-.96-.28Zm642.66-7.28l-.96,.3c.46,1.43,.9,2.86,1.33,4.29l.96-.29c-.43-1.44-.88-2.87-1.33-4.3Zm-639.99-1.36c-.47,1.43-.92,2.87-1.37,4.31l.96,.3c.44-1.44,.9-2.87,1.36-4.3l-.95-.31Zm637.11-7.18l-.94,.33c.5,1.41,.99,2.82,1.47,4.24l.94-.31c-.47-1.43-.96-2.85-1.47-4.26Zm-634.16-1.37c-.51,1.41-1.01,2.84-1.51,4.26l.95,.33c.49-1.42,.99-2.84,1.5-4.25l-.94-.34Zm631.02-7.08l-.93,.36c.54,1.4,1.08,2.8,1.6,4.2l.94-.35c-.53-1.41-1.06-2.81-1.61-4.21Zm-627.79-1.37c-.56,1.4-1.11,2.8-1.65,4.21l.94,.36c.53-1.41,1.08-2.8,1.64-4.2l-.93-.37Zm624.38-6.98l-.92,.4c.59,1.37,1.17,2.76,1.73,4.14l.93-.38c-.57-1.39-1.15-2.77-1.74-4.16Zm-620.89-1.36c-.61,1.38-1.2,2.77-1.78,4.16l.92,.38c.58-1.38,1.17-2.76,1.77-4.14l-.91-.4Zm617.21-6.87l-.9,.42c.63,1.36,1.25,2.72,1.86,4.09l.91-.41c-.61-1.37-1.23-2.74-1.87-4.1Zm-613.46-1.35c-.65,1.36-1.28,2.73-1.91,4.1l.91,.41c.62-1.36,1.26-2.72,1.9-4.08l-.9-.43Zm609.52-6.76l-.89,.45c.68,1.34,1.34,2.68,2,4.03l.9-.44c-.66-1.35-1.33-2.7-2.01-4.04Zm-605.51-1.33c-.69,1.33-1.37,2.68-2.04,4.03l.9,.44c.66-1.34,1.34-2.68,2.03-4.02l-.89-.45Zm601.32-6.66l-.88,.48c.72,1.32,1.43,2.64,2.12,3.97l.89-.47c-.7-1.33-1.41-2.66-2.13-3.98Zm-597.06-1.31c-.73,1.32-1.45,2.64-2.16,3.97l.88,.47c.71-1.32,1.43-2.64,2.15-3.95l-.87-.49Zm592.61-6.53l-.86,.5c.76,1.29,1.51,2.59,2.25,3.9l.87-.5c-.74-1.31-1.5-2.61-2.26-3.9Zm-588.1-1.29c-.77,1.29-1.53,2.59-2.29,3.9l.87,.49c.75-1.29,1.51-2.59,2.28-3.87l-.86-.52Zm583.41-6.42l-.85,.53c.8,1.27,1.59,2.55,2.37,3.83l.85-.53c-.78-1.28-1.57-2.56-2.37-3.83ZM101.74,15.1c-.81,1.27-1.61,2.54-2.4,3.82l.85,.52c.79-1.27,1.58-2.54,2.39-3.8l-.84-.54Zm573.72-6.3l-.83,.56c.84,1.24,1.67,2.49,2.49,3.74l.84-.55c-.83-1.25-1.66-2.51-2.5-3.75ZM106.73,7.58c-.85,1.24-1.69,2.49-2.52,3.74l.83,.55c.83-1.25,1.67-2.49,2.52-3.72l-.83-.57ZM670.29,1.4l-.81,.59c.88,1.22,1.75,2.44,2.61,3.66l.82-.57c-.86-1.23-1.74-2.46-2.62-3.68ZM111.96,.22c-.89,1.22-1.77,2.43-2.64,3.66l.81,.58c.87-1.22,1.75-2.44,2.63-3.65l-.8-.59Z"/></g><g class="j"><path class="i" d="M394.42,532.58l-3.34,3.01,.67,.75,3.34-3.02-.67-.74Zm-9.36-1.51l-.67,.75,3.34,3.01,.67-.74-3.34-3.02Zm16.04-4.52l-3.34,3.01,.67,.75,3.34-3.02-.67-.74Zm-22.72-1.5l-.67,.74,3.34,3.02,.67-.75-3.34-3.01Zm29.4-4.53l-3.34,3.01,.67,.75,3.34-3.02-.67-.74Zm-36.09-1.5l-.67,.75,3.34,3.01,.67-.74-3.34-3.02Zm42.77-4.53l-3.34,3.01,.67,.75,3.34-3.02-.67-.74Zm-49.45-1.49l-.67,.74,3.34,3.01,.67-.74-3.34-3.01Zm56.13-4.54l-3.34,3.01,.67,.75,3.34-3.02-.67-.74Zm-62.82-1.49l-.67,.74,3.35,3.02,.67-.75-3.35-3.01Zm69.5-4.54l-3.34,3.01,.67,.75,3.34-3.02-.67-.74Zm-76.18-1.49l-.67,.75,3.34,3.01,.67-.74-3.34-3.02Zm82.86-4.54l-3.34,3.01,.67,.75,3.34-3.02-.67-.74Zm-89.55-1.48l-.67,.74,3.35,3.01,.67-.74-3.35-3.01Zm96.24-4.55l-3.34,3.01,.67,.75,3.34-3.02-.67-.74Zm-102.92-1.48l-.67,.75,3.34,3.01,.67-.74-3.34-3.02Zm109.6-4.55l-3.34,3.01,.67,.75,3.34-3.02-.67-.74Zm-116.29-1.47l-.67,.74,3.35,3.01,.67-.74-3.35-3.01Zm122.97-4.56l-3.34,3.01,.67,.75,3.34-3.02-.67-.74Zm-129.65-1.47l-.67,.74,3.34,3.02,.67-.75-3.34-3.01Zm136.33-4.56l-3.34,3.01,.67,.75,3.34-3.02-.67-.74Zm-143.02-1.47l-.67,.75,3.35,3.01,.67-.74-3.35-3.02Zm149.7-4.56l-3.34,3.01,.67,.75,3.34-3.02-.67-.74Zm-156.38-1.46l-.67,.74,3.34,3.01,.67-.74-3.34-3.01Zm163.06-4.57l-3.34,3.01,.67,.75,3.34-3.02-.67-.74Zm-169.75-1.46l-.67,.75,3.35,3.01,.67-.75-3.35-3.01Zm176.43-4.57l-3.34,3.01,.67,.75,3.34-3.02-.67-.74Zm-183.11-1.45l-.67,.74,3.34,3.01,.67-.74-3.34-3.01Zm189.8-4.58l-3.35,3.01,.67,.75,3.35-3.02-.67-.74Zm-196.48-1.45l-.67,.74,3.34,3.02,.67-.75-3.34-3.01Zm203.16-4.58l-3.34,3.01,.67,.75,3.34-3.02-.67-.74Zm-209.85-1.45l-.67,.75,3.34,3.01,.67-.74-3.34-3.02Zm216.53-4.58l-3.34,3.01,.67,.75,3.34-3.02-.67-.74Zm-223.21-1.44l-.67,.74,3.34,3.01,.67-.74-3.34-3.01Zm229.89-4.59l-3.34,3.01,.67,.75,3.34-3.02-.67-.74Zm-236.58-1.44l-.67,.74,3.34,3.02,.67-.75-3.34-3.01Zm243.26-4.59l-3.34,3.01,.67,.75,3.34-3.02-.67-.74Zm-249.94-1.43l-.67,.74,3.34,3.01,.67-.74-3.34-3.01Zm256.61-4.61l-3.33,3.02,.67,.75,3.33-3.04-.67-.73Zm-264.5-2.57l-.68,.74,4.55,4.17,.67-.75-4.54-4.16Zm271.12-3.53l-3.31,3.05,.68,.74,3.31-3.05-.68-.74Zm-277.74-2.57l-.68,.74,3.31,3.05,.68-.74-3.31-3.05Zm284.37-3.54l-3.31,3.05,.68,.74,3.31-3.06-.68-.73Zm-290.98-2.57l-.68,.73,3.3,3.06,.68-.73-3.3-3.06Zm297.57-3.56c-1.1,1.03-2.2,2.05-3.29,3.07l.68,.73c1.09-1.02,2.19-2.04,3.29-3.06l-.68-.74Zm-304.15-2.58l-.68,.73,3.29,3.08,.68-.73-3.29-3.08Zm310.71-3.57c-1.09,1.03-2.18,2.06-3.28,3.08l.69,.73c1.09-1.03,2.18-2.05,3.28-3.09l-.69-.72Zm-317.23-2.58l-.69,.72c1.09,1.03,2.17,2.06,3.26,3.09l.69-.73c-1.09-1.02-2.17-2.05-3.26-3.08Zm323.75-3.63c-1.09,1.04-2.17,2.08-3.26,3.11l.69,.73c1.09-1.04,2.18-2.07,3.26-3.11l-.69-.73Zm-330.22-2.58l-.7,.72c1.08,1.04,2.16,2.08,3.24,3.11l.69-.72c-1.08-1.03-2.16-2.07-3.23-3.11Zm336.7-3.7c-1.07,1.06-2.15,2.11-3.23,3.15l.69,.72c1.08-1.05,2.16-2.1,3.24-3.15l-.7-.72Zm-343.12-2.57l-.71,.71c1.07,1.06,2.14,2.1,3.21,3.15l.7-.72c-1.07-1.04-2.14-2.09-3.2-3.14Zm349.54-3.77c-1.06,1.07-2.13,2.13-3.2,3.18l.7,.71c1.07-1.05,2.14-2.12,3.21-3.18l-.71-.71Zm-355.9-2.57l-.71,.7c1.06,1.07,2.11,2.13,3.17,3.19l.71-.71c-1.06-1.06-2.11-2.12-3.17-3.18Zm362.23-3.84c-1.05,1.07-2.1,2.14-3.15,3.21l.71,.71c1.05-1.07,2.11-2.15,3.16-3.23l-.72-.69Zm-368.5-2.58l-.72,.69c1.04,1.08,2.08,2.16,3.13,3.23l.72-.7c-1.05-1.07-2.09-2.15-3.13-3.22Zm374.75-3.92c-1.04,1.09-2.07,2.17-3.11,3.26l.72,.69c1.04-1.09,2.08-2.17,3.11-3.27l-.72-.68Zm-380.93-2.6l-.73,.68c1.02,1.1,2.05,2.19,3.08,3.28l.73-.69c-1.03-1.08-2.06-2.17-3.08-3.27Zm387.06-4c-1.01,1.11-2.03,2.21-3.05,3.31l.73,.68c1.02-1.1,2.05-2.2,3.06-3.31l-.74-.68Zm-393.14-2.61l-.74,.67c1.01,1.11,2.02,2.22,3.03,3.32l.74-.67c-1.02-1.1-2.02-2.21-3.03-3.32Zm399.16-4.08c-.99,1.12-1.99,2.24-2.99,3.36l.74,.67c1.01-1.12,2.01-2.24,3-3.37l-.75-.66Zm-405.11-2.64l-.76,.65c.99,1.13,1.98,2.26,2.97,3.38l.75-.66c-.99-1.12-1.98-2.24-2.96-3.37Zm411.01-4.17c-.97,1.15-1.95,2.29-2.93,3.42l.75,.65c.99-1.13,1.97-2.27,2.94-3.42l-.76-.65Zm-416.84-2.67l-.77,.64c.96,1.15,1.93,2.3,2.91,3.44l.76-.65c-.97-1.14-1.94-2.28-2.9-3.43Zm422.58-4.25c-.94,1.16-1.89,2.32-2.85,3.48l.77,.64c.96-1.16,1.91-2.32,2.86-3.49l-.78-.63Zm-428.25-2.71l-.79,.62c.94,1.18,1.88,2.35,2.83,3.51l.77-.63c-.94-1.16-1.88-2.33-2.81-3.5Zm433.85-4.34c-.92,1.19-1.85,2.37-2.78,3.54l.79,.62c.93-1.17,1.86-2.36,2.78-3.55l-.79-.61Zm-439.37-2.74l-.8,.6c.91,1.19,1.83,2.38,2.75,3.57l.79-.62c-.92-1.18-1.83-2.36-2.74-3.55Zm444.78-4.44c-.89,1.21-1.78,2.41-2.68,3.61l.79,.6c.91-1.2,1.81-2.41,2.7-3.62l-.81-.59Zm-450.12-2.78l-.81,.58c.88,1.22,1.76,2.43,2.66,3.64l.8-.6c-.89-1.2-1.77-2.41-2.65-3.62Zm455.35-4.54c-.85,1.23-1.72,2.46-2.59,3.68l.82,.58c.87-1.22,1.74-2.45,2.6-3.69l-.83-.57Zm-460.49-2.81l-.82,.56c.84,1.24,1.69,2.47,2.55,3.7l.82-.57c-.86-1.23-1.71-2.46-2.55-3.69Zm465.52-4.65c-.82,1.26-1.65,2.51-2.49,3.75l.83,.56c.84-1.25,1.68-2.5,2.5-3.76l-.84-.55Zm-470.45-2.84l-.84,.53c.81,1.27,1.62,2.53,2.45,3.78l.83-.55c-.82-1.25-1.63-2.5-2.44-3.76Zm475.26-4.76c-.78,1.28-1.58,2.55-2.38,3.82l.85,.53c.8-1.27,1.6-2.55,2.38-3.83l-.85-.52Zm-479.96-2.87l-.86,.51c.77,1.29,1.55,2.57,2.33,3.84l.85-.52c-.78-1.27-1.55-2.55-2.32-3.83Zm484.53-4.89c-.74,1.31-1.49,2.61-2.25,3.9l.86,.51c.76-1.3,1.52-2.6,2.26-3.91l-.87-.5Zm-488.99-2.88l-.87,.49c.72,1.31,1.46,2.61,2.2,3.91l.87-.5c-.74-1.29-1.47-2.59-2.2-3.9Zm493.32-5.02c-.7,1.33-1.41,2.66-2.13,3.97l.87,.48c.73-1.32,1.44-2.65,2.14-3.98l-.88-.47Zm-497.52-2.89l-.9,.45c.69,1.34,1.38,2.67,2.09,4l.88-.47c-.7-1.32-1.39-2.65-2.07-3.98Zm501.57-5.15c-.65,1.35-1.32,2.7-1.99,4.04l.89,.45c.68-1.35,1.34-2.7,2-4.06l-.9-.43Zm-505.52-2.92l-.9,.42c.64,1.37,1.28,2.72,1.94,4.07l.9-.44c-.66-1.34-1.3-2.69-1.94-4.05Zm509.28-5.24c-.61,1.38-1.22,2.74-1.85,4.1l.91,.42c.63-1.37,1.25-2.74,1.85-4.11l-.91-.41Zm-512.93-2.96l-.92,.39c.59,1.38,1.19,2.76,1.8,4.13l.91-.41c-.61-1.36-1.2-2.73-1.79-4.11Zm516.39-5.32c-.56,1.39-1.12,2.78-1.69,4.16l.92,.38c.58-1.38,1.14-2.77,1.7-4.17l-.93-.37Zm-519.74-3.01l-.94,.35c.54,1.41,1.09,2.81,1.65,4.2l.93-.37c-.56-1.39-1.11-2.78-1.64-4.18Zm522.89-5.4c-.5,1.41-1.01,2.82-1.54,4.22l.94,.35c.53-1.4,1.04-2.82,1.54-4.24l-.94-.33Zm-525.93-3.05l-.95,.32c.49,1.43,.98,2.85,1.49,4.26l.94-.34c-.51-1.41-1-2.82-1.48-4.24Zm528.76-5.47c-.45,1.44-.9,2.86-1.37,4.28l.94,.31c.48-1.42,.94-2.85,1.39-4.29l-.96-.3Zm-531.48-3.09l-.96,.29c.43,1.44,.87,2.88,1.33,4.31l.95-.3c-.45-1.43-.89-2.86-1.32-4.3Zm533.99-5.53c-.39,1.45-.8,2.89-1.21,4.32l.96,.28c.41-1.44,.82-2.88,1.21-4.34l-.96-.26Zm-536.37-3.12l-.97,.25c.37,1.46,.76,2.91,1.15,4.36l.97-.27c-.4-1.44-.78-2.88-1.15-4.34Zm538.54-5.59c-.34,1.46-.69,2.92-1.05,4.37l.97,.24c.37-1.45,.72-2.92,1.05-4.39l-.97-.22Zm-540.59-3.15l-.98,.21c.31,1.48,.64,2.94,.99,4.4l.97-.23c-.34-1.45-.67-2.91-.98-4.38Zm542.42-5.64c-.28,1.48-.57,2.95-.87,4.41l.98,.2c.3-1.46,.59-2.94,.87-4.42l-.98-.19Zm-544.14-3.17l-.98,.17c.26,1.49,.53,2.97,.82,4.44l.98-.2c-.29-1.46-.56-2.93-.82-4.41Zm545.64-5.68c-.23,1.49-.46,2.97-.71,4.44l.99,.16c.25-1.47,.48-2.96,.71-4.45l-.99-.15Zm-547.01-3.19l-1,.13c.21,1.5,.42,2.99,.65,4.46l.99-.15c-.23-1.47-.44-2.95-.64-4.44Zm548.17-5.71c-.17,1.49-.35,2.98-.54,4.46l.99,.13c.19-1.49,.37-2.98,.54-4.48l-.99-.11Zm-549.21-3.21l-1,.1c.15,1.5,.31,3,.48,4.48l1-.11c-.18-1.48-.34-2.97-.48-4.47Zm550.03-5.73c-.11,1.5-.23,2.99-.37,4.47l1,.1c.13-1.49,.26-2.99,.37-4.5l-1-.07Zm-550.74-3.22l-1,.06c.09,1.51,.2,3.01,.31,4.5l1-.08c-.12-1.48-.22-2.98-.31-4.48Zm551.24-5.74c-.06,1.5-.13,2.99-.21,4.48l1,.06c.08-1.5,.15-3,.21-4.51l-1-.03Zm-551.62-3.23l-1,.03c.03,1.51,.08,3.01,.15,4.5l1-.04c-.07-1.49-.12-2.98-.15-4.49Zm551.8-5.75v.85c-.01,1.22-.03,2.43-.05,3.64l1,.02c.02-1.21,.04-2.43,.05-3.65v-.85h-1Zm-551.89-1.59v-1.65h-1v1.65c0,.84,0,1.68,.01,2.52v.33h1v-.34c-.01-.84-.01-1.68-.01-2.51Zm552.79-7.43l-1,.03c.04,1.5,.08,2.99,.09,4.49h1c-.01-1.52-.05-3.02-.09-4.52Zm-553.56-3.24c-.07,1.5-.12,3-.16,4.5l1,.03c.04-1.5,.09-2.99,.16-4.49l-1-.04Zm553.1-5.75l-1,.07c.11,1.49,.2,2.98,.27,4.48l1-.06c-.07-1.5-.16-2.99-.27-4.49Zm-552.51-3.25c-.13,1.49-.24,2.99-.34,4.5l1,.06c.09-1.5,.21-2.99,.33-4.48l-.99-.08Zm551.71-5.72l-1,.11c.17,1.49,.31,2.97,.45,4.46l.99-.09c-.13-1.49-.28-2.99-.44-4.48Zm-550.77-3.25c-.19,1.49-.36,2.98-.52,4.48l1,.11c.15-1.5,.32-2.98,.51-4.46l-.99-.13Zm549.61-5.68l-.99,.15c.22,1.48,.43,2.96,.62,4.44l.99-.13c-.19-1.49-.4-2.97-.62-4.46Zm-548.32-3.24c-.24,1.48-.47,2.96-.69,4.45l.99,.15c.21-1.49,.44-2.96,.69-4.44l-.99-.16Zm546.82-5.64l-.98,.19c.28,1.46,.54,2.94,.79,4.41l.99-.17c-.26-1.48-.52-2.96-.8-4.43Zm-545.17-3.23c-.3,1.47-.59,2.95-.87,4.43l.99,.18c.27-1.47,.56-2.94,.86-4.41l-.98-.2Zm543.32-5.59l-.98,.23c.34,1.45,.66,2.91,.97,4.38l.98-.21c-.31-1.47-.64-2.93-.97-4.4Zm-541.31-3.2c-.36,1.46-.71,2.92-1.05,4.39l.98,.22c.33-1.46,.68-2.92,1.04-4.37l-.97-.24Zm539.1-5.54l-.96,.27c.39,1.44,.77,2.89,1.14,4.34l.97-.25c-.37-1.45-.75-2.91-1.15-4.36Zm-536.74-3.18c-.42,1.44-.83,2.9-1.23,4.36l.97,.26c.39-1.46,.8-2.9,1.22-4.34l-.96-.28Zm534.2-5.46l-.96,.3c.45,1.43,.89,2.86,1.31,4.29l.96-.28c-.42-1.44-.86-2.88-1.31-4.31Zm-531.49-3.18c-.48,1.43-.95,2.86-1.4,4.31l.96,.3c.45-1.44,.91-2.87,1.39-4.29l-.95-.32Zm528.6-5.36l-.94,.34c.5,1.4,1,2.82,1.48,4.23l.95-.32c-.49-1.42-.98-2.84-1.49-4.25Zm-525.55-3.15c-.54,1.4-1.06,2.82-1.57,4.24l.94,.34c.51-1.42,1.03-2.83,1.57-4.23l-.94-.35Zm522.32-5.27l-.93,.38c.57,1.38,1.12,2.77,1.65,4.17l.94-.36c-.54-1.4-1.09-2.8-1.66-4.19Zm-518.93-3.12c-.59,1.39-1.17,2.78-1.74,4.18l.93,.37c.56-1.39,1.14-2.78,1.73-4.16l-.92-.39Zm515.37-5.17l-.91,.42c.61,1.36,1.22,2.73,1.81,4.1l.92-.39c-.59-1.38-1.2-2.76-1.82-4.13Zm-511.65-3.07c-.65,1.36-1.28,2.73-1.9,4.1l.91,.41c.62-1.36,1.25-2.72,1.89-4.08l-.9-.43Zm507.76-5.07l-.9,.45c.68,1.34,1.34,2.68,1.98,4.04l.9-.44c-.65-1.35-1.31-2.7-1.98-4.05Zm-503.72-3.01c-.7,1.33-1.39,2.67-2.06,4.02l.89,.45c.67-1.34,1.36-2.68,2.05-4.01l-.88-.46Zm499.51-4.97l-.88,.49c.73,1.31,1.44,2.63,2.14,3.95l.88-.47c-.7-1.33-1.42-2.65-2.14-3.97Zm-495.16-2.94c-.75,1.3-1.49,2.61-2.22,3.93l.88,.48c.72-1.31,1.46-2.62,2.21-3.92l-.87-.49Zm490.63-4.86l-.86,.51c.78,1.29,1.54,2.57,2.3,3.87l.86-.5c-.75-1.3-1.52-2.6-2.3-3.88Zm-485.97-2.88c-.8,1.27-1.59,2.56-2.37,3.84l.86,.52c.77-1.28,1.56-2.56,2.36-3.83l-.85-.53Zm481.14-4.75l-.84,.55c.83,1.25,1.64,2.51,2.45,3.78l.84-.54c-.8-1.27-1.62-2.53-2.45-3.79Zm-476.18-2.79c-.85,1.24-1.69,2.49-2.52,3.74l.84,.55c.82-1.25,1.66-2.49,2.51-3.73l-.83-.56Zm471.04-4.64l-.81,.59c.88,1.22,1.74,2.44,2.59,3.67l.83-.57c-.86-1.23-1.73-2.46-2.61-3.69Zm-465.79-2.71c-.9,1.21-1.79,2.43-2.66,3.65l.81,.58c.87-1.22,1.76-2.43,2.65-3.63l-.8-.6Zm460.37-4.51l-.78,.62c.92,1.18,1.83,2.37,2.73,3.57l.8-.6c-.9-1.21-1.82-2.4-2.75-3.59Zm-454.84-2.62c-.94,1.17-1.88,2.35-2.8,3.54l.79,.62c.92-1.19,1.85-2.36,2.79-3.53l-.78-.63Zm449.14-4.38l-.76,.64c.97,1.15,1.93,2.3,2.87,3.46l.78-.63c-.95-1.16-1.91-2.32-2.89-3.47Zm-443.34-2.52c-.99,1.13-1.96,2.27-2.93,3.42l.76,.65c.97-1.15,1.94-2.29,2.93-3.41l-.76-.66Zm437.37-4.26l-.73,.67c1.01,1.11,2.01,2.22,3,3.35l.75-.66c-.99-1.13-2-2.25-3.02-3.36Zm-431.3-2.42c-1.03,1.1-2.06,2.2-3.07,3.31l.74,.67c1.01-1.1,2.03-2.2,3.06-3.29l-.73-.69Zm427.19-1.96c-.7-.73-1.4-1.45-2.11-2.17l-.71,.71c.7,.71,1.4,1.43,2.1,2.16,.34,.35,.69,.71,1.02,1.06l.73-.69c-.34-.35-.68-.71-1.03-1.07ZM182.47,5.26c-1.08,1.05-2.14,2.11-3.19,3.19l.71,.7c1.05-1.07,2.11-2.13,3.18-3.17l-.7-.72ZM594.78,1.28l-.68,.74c1.09,1.01,2.17,2.04,3.24,3.09l.7-.72c-1.08-1.05-2.16-2.08-3.26-3.11ZM188.04,0c-.78,.71-1.55,1.42-2.31,2.14l.69,.73c1.01-.97,2.05-1.92,3.09-2.87h-1.47Z"/></g><g class="k"><path class="i" d="M394.65,455.82l-3.34,3.02,.67,.74,3.34-3.01-.67-.75Zm-9.36-1.04l-.67,.74,3.35,3.02,.67-.75-3.35-3.01Zm16.04-4.99l-3.34,3.02,.67,.74,3.34-3.01-.67-.75Zm-22.72-1.03l-.67,.74,3.34,3.01,.67-.74-3.34-3.01Zm29.4-5l-3.34,3.02,.67,.74,3.34-3.01-.67-.75Zm-36.09-1.03l-.67,.74,3.35,3.02,.67-.75-3.35-3.01Zm42.77-5l-3.34,3.02,.67,.74,3.34-3.01-.67-.75Zm-49.45-1.03l-.67,.75,3.34,3.01,.67-.74-3.34-3.02Zm56.13-5l-3.34,3.02,.67,.74,3.34-3.01-.67-.75Zm-62.81-1.02l-.67,.74,3.34,3.01,.67-.74-3.34-3.01Zm69.5-5.01l-3.34,3.02,.67,.74,3.34-3.01-.67-.75Zm-76.19-1.02l-.67,.74,3.34,3.02,.67-.75-3.34-3.01Zm82.87-5.01l-3.34,3.02,.67,.74,3.34-3.01-.67-.75Zm-89.55-1.01l-.67,.74,3.34,3.01,.67-.74-3.34-3.01Zm96.23-5.02l-3.34,3.02,.67,.74,3.34-3.01-.67-.75Zm-102.92-1.01l-.67,.74,3.34,3.02,.67-.75-3.34-3.01Zm109.6-5.02l-3.34,3.02,.67,.74,3.34-3.01-.67-.75Zm-116.28-1.01l-.67,.75,3.34,3.01,.67-.74-3.34-3.02Zm122.96-5.02l-3.34,3.02,.67,.74,3.34-3.01-.67-.75Zm-129.65-1l-.67,.74,3.34,3.01,.67-.74-3.34-3.01Zm136.33-5.03l-3.34,3.02,.67,.74,3.34-3.01-.67-.75Zm-143.01-1l-.67,.74,3.34,3.02,.67-.75-3.34-3.01Zm149.69-5.03l-3.34,3.02,.67,.74,3.34-3.01-.67-.75Zm-156.38-.99l-.67,.74,3.34,3.01,.67-.74-3.34-3.01Zm163.06-5.04l-3.34,3.02,.67,.74,3.34-3.01-.67-.75Zm-169.74-.99l-.67,.74,3.34,3.02,.67-.75-3.34-3.01Zm176.43-5.04l-3.34,3.02,.67,.74,3.34-3.01-.67-.75Zm-186.24-3.86l-.68,.73,6.47,5.9,.67-.74-6.46-5.89Zm192.86-2.22l-3.31,3.04,.7,.71,3.29-3.02-.68-.73Zm-199.5-3.9l-.68,.74,3.32,3.05,.68-.73-3.32-3.06Zm206.11-2.19l-3.3,3.04,.67,.74,3.3-3.05-.67-.73Zm-212.74-3.94l-.68,.73,3.31,3.07,.68-.73-3.31-3.07Zm219.32-2.16l-3.29,3.05,.68,.73,3.29-3.05-.68-.73Zm-225.92-4l-.69,.73c1.1,1.03,2.2,2.06,3.3,3.09l.69-.73c-1.11-1.03-2.21-2.06-3.3-3.09Zm232.47-2.13c-1.09,1.02-2.18,2.04-3.27,3.07l.68,.73c1.09-1.03,2.18-2.05,3.27-3.07l-.68-.73Zm-239.02-4.04l-.69,.72c1.09,1.04,2.18,2.07,3.27,3.1l.69-.73c-1.09-1.03-2.18-2.06-3.27-3.09Zm245.52-2.13c-1.08,1.03-2.16,2.06-3.24,3.09l.68,.73c1.09-1.03,2.17-2.06,3.25-3.1l-.69-.72Zm-252.01-4.1l-.7,.72c1.08,1.04,2.16,2.08,3.25,3.12l.69-.72c-1.08-1.04-2.16-2.08-3.24-3.12Zm258.49-2.14c-1.07,1.04-2.15,2.08-3.23,3.13l.69,.72c1.08-1.05,2.16-2.09,3.23-3.14l-.69-.71Zm-264.92-4.15l-.7,.71c1.06,1.06,2.13,2.11,3.21,3.16l.69-.71c-1.07-1.05-2.14-2.1-3.2-3.16Zm271.32-2.17c-1.06,1.06-2.12,2.12-3.19,3.17l.7,.71c1.07-1.05,2.14-2.11,3.2-3.17l-.71-.71Zm-277.67-4.19l-.72,.7c1.05,1.07,2.11,2.13,3.17,3.2l.71-.71c-1.06-1.06-2.12-2.13-3.16-3.19Zm284-2.2c-1.05,1.07-2.1,2.14-3.15,3.21l.71,.7c1.06-1.07,2.11-2.14,3.15-3.21l-.71-.7Zm-290.27-4.26l-.72,.69c1.04,1.09,2.08,2.17,3.12,3.25l.72-.7c-1.04-1.08-2.08-2.16-3.12-3.24Zm296.49-2.23c-1.02,1.09-2.06,2.17-3.1,3.26l.73,.69c1.04-1.09,2.07-2.17,3.1-3.26l-.73-.69Zm-302.63-4.33l-.74,.68c1.02,1.1,2.04,2.2,3.07,3.3l.73-.68c-1.03-1.1-2.05-2.2-3.06-3.3Zm308.74-2.27c-1,1.11-2.02,2.21-3.04,3.32l.74,.67c1.02-1.1,2.03-2.21,3.04-3.31l-.74-.68Zm-314.76-4.4l-.75,.66c.99,1.12,1.99,2.24,3,3.36l.74-.67c-1.01-1.11-2-2.23-2.99-3.35Zm320.73-2.32c-.98,1.13-1.97,2.26-2.96,3.38l.74,.66c1-1.12,1.99-2.25,2.98-3.38l-.76-.66Zm-326.61-4.49l-.76,.65c.97,1.14,1.94,2.29,2.92,3.43l.76-.66c-.98-1.13-1.95-2.27-2.92-3.42Zm332.43-2.36c-.95,1.15-1.92,2.3-2.89,3.45l.76,.64c.98-1.14,1.94-2.29,2.9-3.45l-.77-.64Zm-338.13-4.58l-.78,.62c.94,1.17,1.88,2.34,2.84,3.5l.77-.63c-.95-1.16-1.89-2.33-2.83-3.49Zm343.77-2.41c-.92,1.17-1.86,2.34-2.8,3.51l.78,.63c.94-1.17,1.88-2.35,2.8-3.53l-.78-.61Zm-349.27-4.69l-.8,.6c.9,1.2,1.81,2.39,2.74,3.58l.79-.61c-.92-1.19-1.83-2.38-2.73-3.57Zm354.7-2.47c-.89,1.21-1.78,2.41-2.69,3.6l.8,.6c.91-1.19,1.81-2.4,2.7-3.61l-.81-.59Zm-360-4.82l-.82,.58c.86,1.23,1.74,2.45,2.63,3.67l.81-.59c-.89-1.21-1.76-2.43-2.62-3.66Zm365.2-2.49c-.85,1.23-1.7,2.46-2.57,3.67l.82,.58c.87-1.22,1.73-2.45,2.57-3.68l-.82-.57Zm-370.25-4.96l-.84,.55c.82,1.26,1.65,2.51,2.5,3.76l.83-.56c-.85-1.25-1.68-2.5-2.49-3.75Zm375.18-2.5c-.8,1.25-1.61,2.51-2.43,3.75l.83,.55c.83-1.25,1.65-2.5,2.45-3.77l-.85-.53Zm-379.96-5.12l-.85,.51c.77,1.29,1.56,2.57,2.35,3.85l.85-.53c-.79-1.27-1.58-2.55-2.35-3.83Zm384.62-2.54c-.75,1.29-1.51,2.58-2.29,3.85l.85,.52c.78-1.28,1.55-2.57,2.3-3.86l-.86-.51Zm-389.08-5.26l-.88,.48c.72,1.32,1.45,2.63,2.2,3.94l.87-.5c-.74-1.3-1.48-2.6-2.19-3.92Zm393.43-2.57c-.7,1.32-1.41,2.63-2.13,3.94l.87,.48c.73-1.31,1.44-2.63,2.14-3.96l-.88-.46Zm-397.56-5.39l-.9,.44c.66,1.35,1.34,2.69,2.03,4.03l.89-.46c-.69-1.33-1.36-2.67-2.02-4.01Zm401.58-2.64c-.64,1.36-1.3,2.7-1.97,4.04l.9,.45c.67-1.35,1.33-2.7,1.97-4.06l-.9-.43Zm-405.35-5.48l-.91,.4c.6,1.37,1.21,2.74,1.84,4.1l.91-.42c-.63-1.35-1.24-2.71-1.84-4.08Zm409-2.72c-.58,1.38-1.17,2.76-1.78,4.12l.91,.41c.62-1.37,1.21-2.75,1.79-4.14l-.92-.39Zm-412.38-5.57l-.94,.35c.54,1.41,1.09,2.81,1.66,4.2l.92-.38c-.56-1.38-1.11-2.77-1.64-4.17Zm415.65-2.81c-.52,1.41-1.04,2.82-1.59,4.21l.93,.37c.55-1.41,1.08-2.82,1.6-4.24l-.94-.34Zm-418.64-5.65l-.95,.31c.47,1.43,.95,2.85,1.45,4.27l.94-.33c-.49-1.41-.97-2.83-1.44-4.25Zm421.48-2.85c-.44,1.43-.9,2.85-1.37,4.27l.95,.31c.48-1.42,.94-2.85,1.38-4.29l-.96-.29Zm-424.04-5.75l-.97,.27c.4,1.45,.81,2.9,1.24,4.33l.96-.28c-.43-1.43-.84-2.87-1.23-4.32Zm426.46-2.89c-.37,1.45-.75,2.9-1.15,4.33l.96,.27c.4-1.44,.79-2.89,1.16-4.36l-.97-.24Zm-428.59-5.82l-.98,.22c.32,1.47,.66,2.93,1.01,4.39l.98-.24c-.36-1.45-.69-2.9-1.01-4.37Zm430.58-2.93c-.3,1.47-.61,2.94-.94,4.39l.97,.22c.34-1.46,.65-2.93,.95-4.41l-.98-.2Zm-432.28-5.88l-.98,.17c.25,1.49,.51,2.97,.79,4.44l.98-.19c-.28-1.46-.54-2.93-.79-4.42Zm433.82-2.95c-.22,1.48-.46,2.96-.72,4.42l.99,.18c.26-1.48,.5-2.96,.72-4.46l-.99-.14Zm-435.07-5.93l-.99,.12c.17,1.5,.37,2.99,.57,4.47l.99-.14c-.2-1.47-.39-2.95-.57-4.45Zm436.17-2.97c-.15,1.49-.31,2.98-.5,4.45l1,.13c.18-1.49,.35-2.98,.5-4.49l-1-.09Zm-436.98-5.96l-1,.07c.1,1.51,.22,3,.36,4.49l.99-.09c-.13-1.48-.25-2.97-.35-4.47Zm437.65-2.99c-.07,1.5-.17,3-.28,4.48l1,.07c.11-1.49,.2-2.99,.28-4.5l-1-.05Zm-438.04-5.97l-1,.02c.03,1.51,.08,3.01,.14,4.5l1-.04c-.06-1.48-.11-2.98-.14-4.48Zm438.29-3c0,1.51-.03,3-.07,4.49l1,.03c.04-1.5,.07-3,.07-4.51h-1Zm-439.29-6.02c-.02,.6-.03,1.19-.04,1.78,0,.75-.01,1.49-.01,2.24v.5h1v-.5c0-.74,.01-1.48,.01-2.22,.01-.59,.02-1.18,.04-1.77l-1-.03Zm440.17-3l-1,.04c.06,1.49,.1,2.99,.12,4.48h1c-.02-1.52-.06-3.02-.12-4.52Zm-439.74-6.01c-.11,1.5-.2,3-.28,4.51l1,.05c.08-1.5,.17-3,.28-4.48l-1-.08Zm439.15-2.98l-1,.09c.14,1.49,.26,2.98,.36,4.47l.99-.07c-.1-1.5-.21-3-.35-4.49Zm-438.24-5.99c-.19,1.48-.36,2.98-.51,4.48l.99,.1c.15-1.49,.32-2.98,.51-4.46l-.99-.12Zm437.19-2.96l-.99,.14c.21,1.48,.4,2.96,.58,4.44l.99-.11c-.17-1.5-.37-2.99-.58-4.47Zm-435.8-5.96c-.27,1.48-.52,2.96-.76,4.45l.99,.15c.23-1.48,.48-2.95,.75-4.42l-.98-.18Zm434.27-2.93l-.98,.19c.29,1.47,.57,2.94,.82,4.41l.98-.17c-.25-1.48-.52-2.96-.82-4.43Zm-432.42-5.9c-.34,1.46-.67,2.93-.98,4.4l.97,.21c.31-1.47,.64-2.93,.99-4.38l-.98-.23Zm430.44-2.9l-.97,.25c.37,1.45,.71,2.9,1.04,4.36l.98-.22c-.33-1.47-.68-2.93-1.05-4.39Zm-428.11-5.84c-.43,1.45-.83,2.9-1.22,4.36l.96,.26c.39-1.45,.8-2.9,1.22-4.33l-.96-.29Zm425.66-2.84l-.96,.3c.45,1.43,.87,2.86,1.28,4.3l.96-.27c-.41-1.45-.84-2.89-1.28-4.33Zm-422.86-5.77c-.51,1.42-.99,2.85-1.46,4.29l.95,.31c.47-1.43,.95-2.85,1.45-4.26l-.94-.34Zm419.95-2.77l-.94,.35c.52,1.4,1.02,2.81,1.51,4.22l.94-.32c-.48-1.42-.99-2.84-1.51-4.25Zm-416.71-5.67c-.58,1.39-1.14,2.79-1.68,4.2l.94,.36c.53-1.4,1.09-2.8,1.66-4.18l-.92-.38Zm413.36-2.71l-.92,.4c.59,1.37,1.17,2.75,1.72,4.14l.93-.37c-.56-1.4-1.14-2.79-1.73-4.17Zm-409.67-5.55c-.65,1.36-1.28,2.73-1.9,4.1l.91,.41c.61-1.37,1.24-2.73,1.89-4.08l-.9-.43Zm405.87-2.64l-.9,.45c.67,1.34,1.32,2.69,1.94,4.04l.91-.42c-.63-1.36-1.28-2.72-1.95-4.07Zm-401.76-5.41c-.72,1.32-1.42,2.65-2.11,4l.89,.45c.69-1.33,1.38-2.66,2.1-3.97l-.88-.48Zm397.53-2.56l-.87,.49c.74,1.3,1.46,2.61,2.16,3.94l.88-.47c-.7-1.33-1.43-2.65-2.17-3.96Zm-393-5.26c-.79,1.28-1.56,2.58-2.31,3.88l.86,.5c.75-1.3,1.52-2.58,2.3-3.86l-.85-.52Zm388.36-2.49l-.84,.54c.8,1.26,1.59,2.53,2.36,3.82l.85-.52c-.77-1.29-1.56-2.57-2.37-3.84Zm-383.43-5.08c-.85,1.24-1.69,2.49-2.51,3.75l.84,.55c.81-1.26,1.65-2.5,2.5-3.73l-.83-.57Zm378.38-2.41l-.81,.58c.87,1.22,1.72,2.45,2.56,3.69l.83-.56c-.84-1.25-1.7-2.48-2.58-3.71Zm-373.06-4.89c-.92,1.19-1.82,2.4-2.71,3.62l.81,.59c.88-1.21,1.78-2.41,2.69-3.6l-.79-.61Zm367.63-2.33l-.78,.62c.93,1.18,1.85,2.36,2.75,3.56l.8-.61c-.91-1.2-1.83-2.39-2.77-3.57Zm-361.94-4.68c-.98,1.14-1.94,2.3-2.89,3.47l.77,.63c.95-1.16,1.9-2.31,2.88-3.45l-.76-.65Zm356.14-2.25l-.75,.67c.99,1.12,1.97,2.26,2.93,3.4l.77-.64c-.97-1.15-1.95-2.3-2.95-3.43Zm-350.1-4.46c-1.04,1.1-2.06,2.2-3.07,3.32l.75,.67c1-1.11,2.01-2.21,3.04-3.3l-.72-.69Zm344.86-1.21l-.91-.95-.72,.7,.91,.94c.74,.77,1.47,1.54,2.2,2.31l.73-.68c-.73-.78-1.46-1.55-2.21-2.32Zm-338.49-5.17c-1.09,1.04-2.16,2.09-3.23,3.15l.71,.71c1.06-1.06,2.13-2.1,3.21-3.13l-.69-.73Zm331.11-2.06l-.67,.74c1.09,1.01,2.17,2.04,3.25,3.08l.69-.72c-1.07-1.05-2.17-2.08-3.27-3.1Zm-324.41-3.98c-1.14,.98-2.27,1.97-3.39,2.98l.67,.74c1.11-1,2.24-1.99,3.37-2.96l-.65-.76Zm317.63-1.95l-.64,.77c1.15,.95,2.29,1.92,3.41,2.9l.66-.75c-1.13-.99-2.27-1.97-3.43-2.92Zm-310.63-3.74c-1.19,.92-2.37,1.85-3.54,2.8l.63,.78c1.16-.95,2.34-1.87,3.52-2.79l-.61-.79Zm303.55-1.84l-.6,.8c1.2,.89,2.39,1.8,3.56,2.73l.62-.79c-1.18-.93-2.37-1.84-3.58-2.74Zm-296.27-3.47c-1.23,.85-2.46,1.72-3.67,2.61l.59,.81c1.2-.88,2.42-1.75,3.65-2.6l-.57-.82Zm288.91-1.73l-.56,.83c1.24,.83,2.48,1.68,3.7,2.54l.57-.82c-1.22-.87-2.46-1.72-3.71-2.55Zm-281.36-3.2c-1.28,.79-2.55,1.59-3.81,2.42l.55,.83c1.25-.81,2.51-1.61,3.78-2.4l-.52-.85Zm273.72-1.6l-.5,.86c1.28,.76,2.55,1.54,3.82,2.33l.53-.84c-1.27-.8-2.55-1.59-3.85-2.35Zm-265.93-2.92c-1.32,.72-2.63,1.45-3.93,2.21l.5,.86c1.29-.75,2.59-1.48,3.91-2.2l-.48-.87Zm258.06-1.48l-.47,.89c1.33,.69,2.64,1.4,3.95,2.13l.49-.87c-1.32-.74-2.64-1.45-3.97-2.15Zm-250.05-2.63c-1.36,.65-2.7,1.31-4.03,2l.45,.89c1.33-.68,2.66-1.35,4.01-1.99l-.43-.9Zm241.94-1.34l-.41,.91c1.36,.62,2.71,1.26,4.05,1.92l.44-.9c-1.35-.66-2.71-1.3-4.08-1.93Zm-233.73-2.35c-1.39,.58-2.76,1.18-4.13,1.79l.41,.91c1.36-.61,2.73-1.2,4.1-1.77l-.38-.93Zm225.43-1.18l-.37,.93c1.4,.55,2.78,1.11,4.15,1.7l.4-.92c-1.39-.59-2.78-1.16-4.18-1.71Zm-217.04-2.06c-1.41,.5-2.82,1.03-4.22,1.57l.36,.93c1.39-.54,2.79-1.06,4.19-1.56l-.33-.94Zm208.56-1.03l-.32,.95c1.42,.47,2.83,.96,4.24,1.48l.34-.94c-1.41-.52-2.83-1.01-4.26-1.49Zm-199.98-1.77c-1.45,.43-2.88,.88-4.31,1.34l.31,.95c1.42-.46,2.85-.91,4.28-1.33l-.28-.96Zm191.34-.86l-.26,.96c1.44,.4,2.88,.82,4.31,1.25l.29-.95c-1.44-.44-2.89-.86-4.34-1.26Zm-93.67,.25l-.67,.19c-1.14-.32-2.27-.63-3.41-.93l-.25,.97c1.17,.31,2.35,.63,3.52,.96l.14,.04,.94-.27-.27-.96Zm-88.96-1.74c-1.47,.36-2.92,.73-4.37,1.12l.26,.96c1.44-.39,2.89-.75,4.34-1.1l-.23-.98Zm97.71-.46c-1.47,.33-2.93,.68-4.39,1.05l.25,.97c1.45-.37,2.9-.71,4.36-1.04l-.22-.98Zm76.16-.22l-.22,.97c1.46,.32,2.92,.66,4.37,1.02l.24-.97c-1.46-.36-2.92-.7-4.39-1.02Zm-97.78-.38l-.2,.98c1.47,.31,2.93,.63,4.38,.97l.23-.97c-1.46-.35-2.93-.67-4.41-.98Zm-67.17-.32h-2.65c-.63,.12-1.25,.25-1.87,.39l.21,.97c1.46-.31,2.92-.6,4.4-.87l-.09-.49Zm97.78,0h-4.57l.19,.97c1.47-.29,2.94-.56,4.41-.81l-.03-.16Zm58.25,0c1.44,.23,2.88,.49,4.3,.77l.15-.77h-4.45Zm-96.11,0c.89,.14,1.77,.29,2.65,.45l.08-.45h-2.73Z"/></g><g class="l"><path class="i" d="M388.84,382.82l-3.34-3.01,.67-.74,3.34,3.01-.67,.74Zm4.01-.57l-.67-.74,3.34-3.02,.67,.74-3.34,3.02Zm-10.7-5.46l-3.34-3.01,.67-.74,3.34,3.01-.67,.74Zm17.38-.57l-.67-.74,3.34-3.01,.67,.74-3.34,3.01Zm-24.06-5.45l-3.34-3.01,.67-.74,3.34,3.01-.67,.74Zm30.74-.58l-.67-.74,3.34-3.02,.67,.74-3.34,3.02Zm-37.43-5.45l-3.34-3.01,.67-.74,3.34,3.01-.67,.74Zm44.11-.58l-.67-.74,3.34-3.02,.67,.74-3.34,3.02Zm-50.8-5.44l-3.34-3.01,.67-.74,3.34,3.01-.67,.74Zm57.48-.59l-.67-.74,3.34-3.02,.67,.74-3.34,3.02Zm-64.16-5.44l-3.34-3.01,.67-.74,3.34,3.01-.67,.74Zm70.84-.59l-.67-.74,3.34-3.02,.67,.74-3.34,3.02Zm-77.53-5.44l-3.34-3.01,.67-.74,3.34,3.01-.67,.74Zm84.21-.6l-.67-.74,3.34-3.01,.67,.74-3.34,3.01Zm-90.89-5.43l-3.34-3.01,.67-.74,3.34,3.01-.67,.74Zm97.58-.6l-.67-.74,3.34-3.02,.67,.74-3.34,3.02Zm-103.29-4.55l-3.31-3.05,.68-.74,3.31,3.05-.68,.74Zm109.96-1.5l-.68-.74,3.31-3.05,.68,.74-3.31,3.05Zm-116.58-4.6l-3.31-3.05,.68-.74,3.31,3.05-.68,.74Zm123.2-1.5l-.68-.74,3.31-3.05,.68,.73-3.31,3.05Zm-129.82-4.6l-3.3-3.06,.68-.73,3.3,3.06-.68,.73Zm136.43-1.5l-.68-.73,3.3-3.06,.68,.73-3.3,3.06Zm-143.03-4.62c-1.1-1.03-2.2-2.05-3.29-3.07l.68-.73c1.09,1.02,2.19,2.04,3.29,3.07l-.68,.73Zm149.62-1.51l-.68-.73c1.1-1.03,2.2-2.05,3.28-3.08l.68,.73c-1.09,1.02-2.18,2.05-3.29,3.08Zm-156.19-4.65c-1.1-1.03-2.19-2.07-3.27-3.09l.69-.72c1.08,1.03,2.17,2.06,3.27,3.09l-.69,.73Zm162.76-1.52l-.69-.73c1.09-1.03,2.18-2.07,3.26-3.1l.69,.72c-1.08,1.03-2.17,2.06-3.26,3.1Zm-169.28-4.68c-1.09-1.04-2.17-2.08-3.24-3.12l.7-.72c1.07,1.04,2.15,2.08,3.24,3.12l-.69,.72Zm175.8-1.53l-.69-.72c1.08-1.05,2.16-2.09,3.23-3.13l.7,.72c-1.07,1.04-2.15,2.09-3.23,3.13Zm-182.26-4.73c-1.08-1.06-2.15-2.11-3.21-3.16l.71-.71c1.06,1.05,2.13,2.1,3.2,3.16l-.7,.71Zm188.72-1.55l-.7-.71c1.07-1.06,2.14-2.11,3.19-3.17l.71,.71c-1.06,1.06-2.12,2.11-3.2,3.17Zm-195.11-4.8c-1.06-1.07-2.12-2.14-3.16-3.21l.72-.7c1.04,1.07,2.09,2.13,3.15,3.2l-.71,.7Zm201.48-1.57l-.71-.7c1.06-1.07,2.1-2.14,3.14-3.22l.72,.7c-1.04,1.07-2.09,2.15-3.15,3.22Zm-207.77-4.88c-1.04-1.09-2.08-2.18-3.1-3.27l.73-.69c1.02,1.09,2.05,2.17,3.1,3.26l-.72,.69Zm214.04-1.6l-.72-.69c1.04-1.09,2.06-2.18,3.08-3.27l.73,.68c-1.02,1.09-2.05,2.19-3.09,3.28Zm-220.21-4.97c-1.02-1.11-2.03-2.22-3.03-3.33l.74-.67c1,1.11,2,2.22,3.02,3.32l-.74,.68Zm226.35-1.63l-.74-.67c1.01-1.11,2.02-2.23,3.01-3.34l.75,.66c-.99,1.12-2,2.23-3.01,3.35Zm-232.38-5.07c-1-1.14-1.98-2.27-2.95-3.41l.76-.65c.97,1.13,1.94,2.27,2.94,3.4l-.75,.66Zm238.36-1.66l-.76-.65c.98-1.14,1.96-2.28,2.91-3.42l.77,.64c-.96,1.14-1.94,2.29-2.92,3.43Zm-244.2-5.2c-.96-1.16-1.91-2.33-2.84-3.5l.78-.62c.93,1.16,1.87,2.33,2.83,3.49l-.77,.64Zm250-1.71l-.78-.63c.95-1.17,1.88-2.34,2.8-3.51l.79,.62c-.92,1.18-1.86,2.35-2.81,3.52Zm-255.62-5.34c-.92-1.2-1.83-2.4-2.72-3.6l.8-.59c.89,1.2,1.79,2.39,2.71,3.58l-.79,.61Zm261.19-1.75l-.8-.6c.91-1.2,1.8-2.4,2.67-3.61l.81,.59c-.88,1.21-1.77,2.42-2.68,3.62Zm-266.56-5.49c-.87-1.23-1.73-2.47-2.57-3.71l.83-.56c.83,1.23,1.69,2.46,2.56,3.69l-.82,.58Zm271.85-1.81l-.82-.57c.86-1.23,1.7-2.47,2.52-3.71l.83,.55c-.83,1.25-1.67,2.49-2.53,3.73Zm-276.91-5.66c-.82-1.27-1.62-2.54-2.4-3.82l.85-.52c.78,1.27,1.57,2.54,2.38,3.8l-.84,.54Zm281.88-1.86l-.85-.53c.8-1.27,1.58-2.55,2.33-3.83l.86,.51c-.76,1.29-1.55,2.57-2.35,3.85Zm-286.57-5.84c-.75-1.31-1.48-2.62-2.19-3.94l.88-.47c.71,1.31,1.43,2.62,2.18,3.92l-.87,.5Zm291.17-1.92l-.87-.49c.73-1.31,1.44-2.63,2.12-3.95l.89,.46c-.69,1.33-1.4,2.65-2.14,3.97Zm-295.44-6.02c-.68-1.35-1.34-2.72-1.96-4.08l.91-.42c.62,1.34,1.28,2.71,1.95,4.05l-.89,.45Zm299.6-1.98l-.9-.43c.65-1.35,1.28-2.71,1.88-4.07l.91,.41c-.61,1.36-1.24,2.74-1.9,4.09Zm-303.39-6.22c-.59-1.38-1.16-2.79-1.7-4.18l.93-.36c.53,1.38,1.1,2.78,1.69,4.15l-.92,.39Zm307.05-2.01l-.93-.38c.56-1.38,1.1-2.78,1.61-4.17l.94,.34c-.52,1.4-1.06,2.82-1.63,4.2Zm-310.31-6.41c-.49-1.42-.97-2.86-1.41-4.28l.96-.3c.44,1.41,.91,2.84,1.4,4.25l-.94,.33Zm313.42-2.06l-.95-.31c.47-1.42,.91-2.86,1.33-4.28l.96,.28c-.42,1.44-.87,2.89-1.34,4.31Zm-316.08-6.56c-.39-1.45-.76-2.92-1.1-4.38l.97-.23c.34,1.44,.7,2.9,1.09,4.34l-.96,.26Zm318.6-2.12l-.97-.25c.36-1.44,.71-2.91,1.02-4.36l.98,.21c-.31,1.46-.66,2.94-1.02,4.4Zm-320.65-6.67c-.29-1.47-.55-2.96-.78-4.45l.99-.16c.23,1.47,.49,2.96,.78,4.41l-.98,.19Zm322.54-2.16l-.98-.17c.26-1.46,.49-2.95,.7-4.42l.99,.14c-.21,1.48-.44,2.98-.7,4.46Zm-323.94-6.76c-.18-1.47-.33-2.98-.46-4.49l1-.08c.13,1.49,.28,2.99,.46,4.45l-.99,.12Zm325.19-2.18l-1-.1c.15-1.48,.28-2.98,.38-4.46l1,.07c-.1,1.49-.23,3.01-.38,4.5Zm-325.95-6.82c-.07-1.49-.12-3-.15-4.51l1-.02c.02,1.5,.07,3,.14,4.48l-1,.05Zm326.56-2.19l-1-.03c.04-1.27,.06-2.55,.07-3.84v-.65h1.01v.65c-.01,1.29-.04,2.58-.08,3.86Zm-325.72-6.83h-1c.02-1.51,.07-3.03,.14-4.53l1,.05c-.08,1.48-.12,2.99-.14,4.48Zm324.74-2.17c-.04-1.48-.12-2.99-.22-4.47l1-.07c.1,1.5,.18,3.02,.22,4.51l-1,.03Zm-324.28-6.77l-1-.09c.14-1.5,.3-3.01,.5-4.49l.99,.13c-.19,1.47-.36,2.97-.49,4.45Zm323.67-2.16c-.16-1.48-.35-2.98-.57-4.44l.99-.15c.22,1.48,.41,2.99,.57,4.48l-.99,.11Zm-322.51-6.72l-.99-.17c.25-1.48,.54-2.98,.85-4.44l.98,.21c-.31,1.45-.59,2.93-.84,4.4Zm321.19-2.14c-.27-1.46-.58-2.93-.92-4.38l.97-.22c.34,1.46,.65,2.95,.92,4.42l-.98,.18Zm-319.33-6.62l-.97-.25c.37-1.45,.77-2.92,1.2-4.36l.96,.29c-.42,1.42-.82,2.88-1.19,4.32Zm317.33-2.11c-.39-1.43-.81-2.87-1.26-4.3l.95-.3c.45,1.44,.88,2.9,1.27,4.34l-.96,.26Zm-314.77-6.49l-.95-.32c.49-1.42,1.01-2.85,1.55-4.26l.93,.36c-.54,1.39-1.05,2.81-1.53,4.22Zm312.08-2.05c-.5-1.39-1.04-2.8-1.6-4.19l.93-.38c.56,1.4,1.11,2.82,1.61,4.22l-.94,.34Zm-308.85-6.32l-.92-.4c.59-1.38,1.23-2.76,1.88-4.12l.9,.43c-.65,1.35-1.27,2.72-1.86,4.08Zm305.5-1.98c-.61-1.36-1.26-2.72-1.92-4.05l.89-.45c.67,1.34,1.32,2.71,1.94,4.08l-.91,.41Zm-301.61-6.11l-.88-.47c.7-1.33,1.44-2.66,2.19-3.96l.87,.5c-.75,1.29-1.48,2.6-2.18,3.92Zm297.61-1.91c-.72-1.3-1.47-2.61-2.24-3.88l.86-.52c.78,1.29,1.54,2.6,2.26,3.92l-.88,.48Zm-293.11-5.85l-.84-.54c.8-1.26,1.64-2.53,2.5-3.77l.82,.57c-.85,1.23-1.68,2.49-2.47,3.74Zm288.48-1.82c-.81-1.24-1.67-2.48-2.54-3.69l.81-.58c.88,1.22,1.74,2.48,2.56,3.73l-.83,.55Zm-283.39-5.55l-.8-.6c.9-1.21,1.84-2.4,2.78-3.57l.78,.63c-.93,1.15-1.86,2.34-2.76,3.53Zm278.17-1.73c-.91-1.17-1.85-2.34-2.82-3.49l.77-.64c.97,1.16,1.93,2.34,2.84,3.52l-.79,.61Zm-272.52-5.23l-.75-.66c.99-1.13,2.01-2.25,3.05-3.34l.73,.69c-1.02,1.08-2.04,2.19-3.02,3.31Zm266.75-1.63c-.76-.84-1.53-1.66-2.32-2.48l-.76-.78,.71-.7,.77,.79c.79,.82,1.57,1.66,2.34,2.5l-.74,.67Zm-260.59-4.87l-.7-.72c1.07-1.05,2.18-2.09,3.29-3.09l.67,.74c-1.1,1-2.2,2.03-3.27,3.06Zm254.31-1.53c-1.08-1.02-2.2-2.03-3.32-3.01l.66-.75c1.13,.98,2.25,2,3.34,3.03l-.69,.73Zm-247.66-4.47l-.64-.77c1.14-.95,2.33-1.91,3.52-2.83l.61,.79c-1.18,.91-2.36,1.86-3.49,2.8Zm240.92-1.41c-1.16-.93-2.35-1.85-3.54-2.74l.6-.8c1.2,.89,2.4,1.82,3.57,2.77l-.63,.78Zm-233.83-4.05l-.58-.82c1.21-.86,2.47-1.72,3.73-2.54l.55,.84c-1.25,.82-2.49,1.67-3.7,2.52Zm226.64-1.29c-1.23-.84-2.49-1.67-3.75-2.46l.53-.85c1.26,.79,2.53,1.62,3.78,2.48l-.56,.83Zm-219.15-3.61l-.51-.86c1.29-.77,2.6-1.53,3.91-2.24l.48,.88c-1.3,.71-2.6,1.46-3.88,2.22Zm211.57-1.15c-1.29-.74-2.62-1.46-3.93-2.15l.46-.89c1.33,.69,2.66,1.42,3.96,2.17l-.5,.87Zm-203.72-3.14l-.45-.9c1.34-.67,2.71-1.32,4.08-1.93l.41,.91c-1.35,.61-2.71,1.25-4.04,1.91Zm195.78-1c-1.35-.64-2.73-1.25-4.09-1.83l.39-.92c1.38,.58,2.76,1.21,4.12,1.85l-.43,.9Zm-97.01-.69l-.2-.09c-1-.44-2-.86-3.01-1.27l.38-.93c.95,.39,1.89,.79,2.83,1.2,.31-.13,.61-.27,.92-.4l.39,.92c-.37,.16-.74,.32-1.11,.48l-.2,.09Zm-90.62-1.97l-.37-.93c1.38-.56,2.8-1.1,4.21-1.6l.34,.94c-1.4,.5-2.8,1.03-4.18,1.59Zm96.09-.29l-.36-.93c1.4-.54,2.83-1.05,4.25-1.54l.32,.95c-1.41,.48-2.82,.99-4.21,1.53Zm83.29-.55c-1.39-.53-2.81-1.03-4.22-1.5l.32-.95c1.42,.47,2.85,.98,4.26,1.51l-.35,.94Zm-96.15-.17c-1.4-.51-2.83-1-4.24-1.45l.31-.95c1.42,.46,2.86,.95,4.27,1.46l-.34,.94Zm-74.81-2.01l-.3-.95c1.44-.45,2.9-.88,4.34-1.27l.26,.97c-1.43,.38-2.87,.81-4.3,1.25Zm96.15-.16l-.29-.96c1.44-.43,2.91-.84,4.35-1.21l.25,.97c-1.43,.37-2.89,.77-4.32,1.2Zm66.32-.49c-1.43-.41-2.89-.8-4.33-1.16l.24-.97c1.45,.36,2.92,.75,4.37,1.17l-.28,.96Zm-96.18-.08c-1.44-.4-2.9-.78-4.34-1.13l.23-.97c1.45,.35,2.92,.73,4.37,1.14l-.27,.96Zm-57.64-1.6l-.22-.97c1.46-.33,2.95-.64,4.42-.92l.18,.98c-1.47,.27-2.94,.58-4.39,.91Zm96.18-.07l-.21-.98c1.46-.32,2.95-.62,4.43-.88l.18,.98c-1.47,.26-2.95,.56-4.39,.87Zm48.94-.4c-1.45-.3-2.94-.57-4.41-.82l.16-.99c1.48,.24,2.98,.52,4.45,.82l-.2,.98Zm-96.2-.02c-1.46-.29-2.94-.56-4.41-.8l.16-.99c1.48,.24,2.98,.51,4.45,.8l-.2,.98Zm-40.12-1.15l-.14-.99c1.48-.22,2.99-.4,4.48-.56l.1,.99c-1.48,.16-2.97,.34-4.44,.56Zm96.19-.01l-.14-.99c1.49-.21,3-.39,4.48-.54l.1,1c-1.47,.15-2.97,.33-4.45,.54Zm-64.92-.27c-1.47-.18-2.97-.34-4.46-.46l.08-1c1.5,.13,3.01,.28,4.5,.47l-.12,.99Zm96.2,0c-1.48-.18-2.98-.34-4.46-.47l.08-1c1.49,.13,3,.29,4.5,.47l-.12,.99Zm-22.37-.64l-.06-1c1.5-.1,3.02-.17,4.51-.21l.03,1c-1.48,.04-2.99,.11-4.47,.2Zm-96.2-.01l-.07-1c1.5-.1,3.02-.17,4.51-.21l.03,1c-1.48,.04-2.99,.11-4.47,.2Zm13.44-.1c-1.48-.07-2.99-.11-4.48-.13v-1c1.51,.02,3.03,.06,4.53,.13l-.05,1Zm96.2-.01c-1.13-.05-2.26-.09-3.39-.11-.36,0-.73-.01-1.09-.01v-1c.37,0,.74,0,1.11,.01,1.14,.02,2.29,.06,3.42,.11l-.05,1Z"/></g><path id="c" class="f" d="M438.26,110.91c-18.44,.09-35.9,8.3-47.75,22.44-11.86-14.14-29.32-22.34-47.75-22.44-31.87-.37-58,25.2-58.38,57.11,0,.57,0,1.14,0,1.71,0,40.63,36.07,73.23,90.71,123.52l15.42,13.9,15.41-13.9c54.64-50.29,90.71-82.86,90.71-123.52,.56-31.92-24.81-58.24-56.67-58.81-.56,0-1.12-.01-1.68,0Z"/><path class="h" d="M425.43,195.53c-2.79-3.52-6.48-6.21-10.66-7.81,0-6.26-2.38-12.28-6.64-16.84-4.29-4.81-10.38-7.65-16.81-7.84-13.3-.41-24.45,9.93-25.1,23.25v1.42c-9.73,3.8-16.14,13.24-16.11,23.71-.13,13.55,10.61,24.75,24.17,25.14,6.04-.03,11.88-2.33,16.34-6.41,4.36,4.09,10.12,6.36,16.09,6.41,13.61-.26,24.42-11.51,24.17-25.14,0-5.77-1.94-11.35-5.45-15.9Zm-18.49,32.74h-.23c-9.01-.13-16.24-7.55-16.11-16.6v-.23c-.03-1.06-.44-2.09-1.19-2.84-.75-.78-1.76-1.19-2.84-1.19-2.17,.1-3.9,1.86-4,4.03-.1,4.24,.98,8.4,3.07,12.08-2.99,3.05-7.1,4.76-11.36,4.76-9.29,0-16.81-7.55-16.81-16.84s7.51-16.84,16.81-16.84c1.94-.05,3.85,.28,5.68,.93h.23l1.42,.49c.67,.72,1.63,1.14,2.61,1.19,1.14,.03,2.19-.52,2.84-1.42,.67-.8,.98-1.76,.98-2.74,0-1.19-.49-2.35-1.45-3.21-1.19-.98-2.56-1.71-4.03-2.12-2.66-1.03-5.45-1.6-8.29-1.66,1.14-8.17,8.13-14.09,16.16-14.09,.75,0,1.5,.05,2.27,.16,7.49,1.06,13.27,7.11,13.99,14.64v1.19c.1,5.51-2.45,10.71-6.87,13.99-1.65,1.42-2.04,3.8-.96,5.69,.7,1.19,1.96,1.91,3.33,1.89,.85-.1,1.68-.41,2.35-.93,4.18-3.18,7.26-7.58,8.78-12.57,5.94,2.82,9.71,8.82,9.71,15.41,0,9.03-7.1,16.45-16.11,16.84Z"/><rect class="e" y="314.12" width="781" height="374.19"/></svg>